<?xml version="1.0" encoding="utf-8"?>
<!-- Generator: Adobe Illustrator 27.2.0, SVG Export Plug-In . SVG Version: 6.00 Build 0)  -->
<svg version="1.1" id="Шар_1" xmlns="http://www.w3.org/2000/svg" xmlns:xlink="http://www.w3.org/1999/xlink" x="0px" y="0px"
	 viewBox="0 0 400 312.1" style="enable-background:new 0 0 400 312.1;" xml:space="preserve">
<style type="text/css">
	.st0{fill:#231F20;}
</style>
<path class="st0" d="M11.1-0.5L11.1-0.5L11.1-0.5L11.1-0.5z"/>
<path d="M388.4,274.8c0.5-3.4-0.3-8.6-2.8-14.6c-2.5-6-6.5-12.7-11.9-20.1c-5.2-7.3-11.9-15.1-19.4-23.4
	c-15.1-16.5-34-34.5-55.2-52.8c-10.5-9.2-21.8-18.2-33.2-27.4c-11.5-9.1-23.4-18-35.5-26.8c-12-8.8-24.3-17.4-36.4-25.5
	c-12.3-8.1-24.4-16-36.4-23.2c-12-7.2-23.6-14-34.9-20.1s-22-11.5-32.2-16C80.3,20.4,70.7,16.6,62,13.9c-8.6-2.9-16.4-4.5-22.8-5
	s-11.7,0.2-14.6,1.9c-1.5,0.8-2.6,1.6-3.2,2.2c-0.6,0.7-0.9,0.9-0.9,1l0,0C9.9,28.3,35,65.6,81.3,110.1L43,128.2
	c-3.5-2.7-8.2-3.5-12.5-1.5c-6,2.9-8.6,10.2-5.6,16.1c2.9,5.7,10,8,15.7,5.4c4.2-2.1,6.7-6.1,6.6-10.5l42.2-19.9
	c9.5,8.7,19.6,17.7,30.6,26.8l8.2,7.1l5.4,4.6c5.8,4.7,15.5,14.7,39.9,31.9c22,15.4,26.8,18.8,32,22c0.8,0.5,6.7,3.8,8.2,4.5
	l2.3,1.2l8.3,5.4l11.6,7c11.4,7.1,22.5,13.5,33.1,19.4l-4.1,43.1c-4.1,1.5-7.1,5.3-7.7,9.9c-0.6,6.6,4.2,12.3,10.7,12.9
	c6.6,0.6,12.3-4.2,12.9-10.7c0.5-4.7-1.8-8.8-5.5-11.2l3.7-38.7c55.3,29.2,97.4,40.9,107.5,26.9c0,0,0.2-0.5,0.7-1.2
	C387.6,277.8,387.9,276.4,388.4,274.8L388.4,274.8z M44.8,27c0.6-0.1,1.3,0,2.2,0.2c0.9,0.2,2.1,0.7,3.2,1.3
	c1.2,0.7,2.6,1.5,4.1,2.4c1.5,0.9,3,2,4.6,3c0.6,0.3,1,0.8,1.6,1.2c0.6,0.5,1,0.8,1.6,1.2c0.6,0.5,1,0.9,1.6,1.2
	c0.6,0.5,1,0.9,1.5,1.4c2.1,1.8,3.9,3.6,5.4,5.2c1.5,1.6,2.7,3.1,3.6,4.3c0.8,1.4,1.4,2.3,1.3,3c0.1,0.7-0.2,1.3-1,1.3
	c-0.6,0.1-1.4-0.1-2.3-0.3c-0.9-0.3-2.1-0.7-3.3-1.3c-1.2-0.7-2.5-1.5-4-2.2c-1.5-0.9-2.9-1.9-4.4-2.9c-0.6-0.3-0.9-0.8-1.5-1
	c-0.6-0.5-1-0.8-1.4-1.2c-0.6-0.5-1-0.8-1.4-1.2c-0.6-0.5-1-0.9-1.4-1.2c-2.2-2-3.9-3.7-5.4-5.2c-1.5-1.6-2.7-2.9-3.6-4.3
	c-0.8-1.4-1.5-2.3-1.5-3.2C43.9,27.7,44.1,27.2,44.8,27L44.8,27z M46.5,53.4c-1.8-1.5-3.4-3-4.8-4.3c-1.4-1.4-2.5-2.8-3.5-3.9
	c-0.9-1.1-1.4-2.2-1.6-2.8c-0.2-0.7,0.1-1.1,0.7-1.4c0.6-0.3,1.5,0.1,2.7,0.7c1.3,0.6,2.9,1.3,4.4,2.2c1.7,0.9,3.7,2.4,5.6,3.7
	c2.1,1.6,4,3,5.9,4.6c1.8,1.5,3.5,3.2,5,4.5c1.4,1.5,2.5,2.8,3.4,4c0.7,1.1,1.4,2.2,1.3,2.7c0.1,0.7-0.2,1-0.9,1
	c-0.7,0.1-1.6-0.2-2.9-0.8c-1.3-0.6-2.6-1.2-4.4-2.2c-1.8-1-3.6-2.1-5.5-3.6C50.2,56.4,48.3,54.8,46.5,53.4L46.5,53.4z M77.4,89.4
	c-0.6,0-1.5-0.2-2.7-0.8c-1.3-0.6-2.6-1.2-4.3-2.2c-0.5-0.3-0.8-0.5-1.2-0.8c-0.5-0.3-0.8-0.5-1.2-0.8c-0.5-0.3-0.8-0.6-1.3-0.9
	c-0.5-0.3-0.8-0.6-1.3-0.9c-1.3-0.9-2.6-2-3.8-2.9c-1.2-0.9-2.5-1.9-3.6-3c-1.2-1-2.2-1.9-3.1-2.9c-0.9-0.9-1.6-1.8-2.3-2.6
	c-0.8-1-1.3-1.9-1.4-2.5c-0.1-0.6,0.2-0.9,0.8-0.9s1.5,0.1,2.5,0.7c1.3,0.6,2.6,1.2,4.4,2.2c0.5,0.3,0.8,0.5,1.4,0.8
	c0.5,0.3,0.9,0.7,1.4,0.8c0.5,0.3,0.9,0.7,1.3,0.9c0.5,0.3,0.9,0.7,1.3,0.9c1.3,0.9,2.6,2,3.9,3s2.4,2.1,3.7,3.2
	c1.2,1,2.2,2,3.1,2.9c0.9,0.9,1.6,1.9,2.2,2.6c0.8,1,1.2,1.9,1.2,2.4C78.3,89.3,78.1,89.5,77.4,89.4L77.4,89.4z M109.9,59.8
	c-0.8,0.1-2.1-0.2-3.8-0.9c-0.8-0.3-1.7-0.7-2.6-1.1c-0.9-0.5-1.8-1-2.9-1.6c-1-0.7-2-1.2-3-1.9c-1-0.7-2.1-1.5-3.1-2.1
	c-1-0.8-2.1-1.6-3.1-2.5c-1-0.9-2.1-1.7-3.1-2.6c-1-0.9-2-1.8-2.9-2.7c-0.9-0.9-1.8-1.8-2.8-2.7c-1.6-1.8-2.9-3.4-3.8-4.7
	c-0.8-1.4-1.4-2.5-1.4-3.3c-0.1-0.8,0.2-1.4,1.1-1.6c0.8-0.2,2.1,0,3.7,0.5c0.8,0.3,1.7,0.7,2.6,1.1c0.9,0.4,2.1,1,2.9,1.6
	c1,0.7,2.2,1.2,3.2,2c1,0.8,2.2,1.6,3.2,2.4c1,0.8,2.2,1.7,3.2,2.6c1,0.9,2.2,1.8,3.2,2.7c1,0.9,2.1,1.8,3,2.8
	c0.9,0.9,1.7,1.9,2.7,2.8c1.6,1.8,2.9,3.4,3.7,4.9c0.7,1.3,1.2,2.4,1.2,3.1C111.2,59.4,110.7,59.8,109.9,59.8L109.9,59.8z
	 M169.1,88.9c-1.1,0-2.6-0.3-4.4-1s-3.9-1.7-6.1-3c-0.6-0.3-1.2-0.7-1.7-0.9c-0.6-0.3-1.2-0.8-1.7-1.1c-0.6-0.3-1.2-0.8-1.7-1.1
	c-0.6-0.5-1.2-0.8-1.7-1.2c-1.7-1.2-3.5-2.6-5-4c-1.5-1.4-3.1-2.7-4.4-4.1c-1.4-1.4-2.5-2.7-3.6-3.9c-1-1.4-1.9-2.5-2.5-3.5
	c-0.8-1.5-1.1-2.6-1.1-3.4c0.2-0.8,0.8-1.2,1.8-1.4c0.9,0,2.5,0.2,4.2,0.9c1.7,0.7,3.9,1.7,6.3,2.9c0.6,0.3,1.2,0.7,1.7,1.1
	c0.6,0.3,1.2,0.8,1.8,1.1c0.7,0.3,1.2,0.8,1.8,1.2c0.6,0.5,1.2,0.8,1.8,1.2c1.8,1.4,3.6,2.7,5.2,4.1c1.7,1.4,3.2,2.8,4.5,4.2
	c1.4,1.4,2.5,2.8,3.7,4c1,1.4,1.7,2.5,2.3,3.5c0.7,1.5,0.9,2.4,0.6,3.2C170.9,88.5,170.1,88.9,169.1,88.9L169.1,88.9z M243.6,135.1
	c-0.6,0.7-1.6,0.8-3,0.6c-1.4-0.1-3.1-0.7-5-1.4s-4.1-1.8-6.4-3.2c-2.3-1.2-4.7-2.9-7.3-4.7c-2.5-1.8-4.7-3.6-6.7-5.4
	s-3.7-3.6-5-5.2c-1.4-1.6-2.4-3.1-3-4.3c-0.6-1.3-0.7-2.3-0.4-3c0.3-0.7,1.4-1,2.5-0.9c1.3,0.1,3,0.5,4.9,1.3
	c1.8,0.8,4.3,1.8,6.7,3.2s5.1,3,7.5,5c2.6,1.8,5,3.8,7,5.8c2.1,1.8,3.7,3.7,5.2,5.3c1.4,1.6,2.2,3.1,2.8,4.3
	C244.1,133.5,244.1,134.5,243.6,135.1L243.6,135.1z M310.4,189.1c-0.7,0.4-1.8,0.5-3.4,0.2c-1.3-0.2-2.5-0.8-4-1.2
	c-1.5-0.6-3.1-1.3-4.8-2.2c-1.7-0.8-3.5-1.9-5.2-3s-3.6-2.4-5.3-3.6c-0.6-0.5-1-0.8-1.7-1.2c-0.6-0.5-1-0.9-1.6-1.2
	c-0.6-0.3-1-0.9-1.5-1.4c-0.6-0.5-1-0.9-1.5-1.4c-2-1.8-3.6-3.4-4.7-4.9c-1.2-1.5-2-2.7-2.3-3.9c-0.4-1-0.3-1.8,0.3-2.3
	c0.6-0.5,1.6-0.6,3.2-0.5c1.3,0.2,2.5,0.7,4,1.1c1.5,0.6,3.2,1.3,4.9,2.1c1.7,0.8,3.6,1.9,5.4,3c1.8,1.1,3.7,2.4,5.5,3.7
	c0.6,0.5,1.2,0.9,1.7,1.2c0.6,0.3,1.2,0.9,1.7,1.4c0.4,0.5,1,0.9,1.7,1.4c0.6,0.5,1,0.9,1.5,1.4c2.1,1.8,3.7,3.6,4.9,5.1
	c1.2,1.5,1.9,2.7,2.1,3.8C311.3,188,311.1,188.7,310.4,189.1L310.4,189.1z M320.9,211.3c0.7-0.2,1.8-0.3,3.3,0.1
	c1.5,0.3,3.3,0.9,5.6,2.1c1,0.5,2.3,1.1,3.5,1.7c1.2,0.7,2.4,1.2,3.6,2c1.2,0.7,2.4,1.5,3.6,2.1c1.2,0.8,2.4,1.6,3.5,2.5
	c1,0.8,2.2,1.7,3.2,2.5c1,0.8,2,1.7,2.9,2.4c0.9,0.8,1.6,1.7,2.4,2.4c0.8,0.8,1.4,1.5,2,2.3c1,1.5,1.6,2.5,1.6,3.3
	c0.1,0.8-0.2,1.4-1.1,1.6c-0.8,0.2-1.9,0.1-3.6-0.3c-1.5-0.3-3.6-1.1-5.6-2.1c-1-0.5-2.3-1.1-3.3-1.7c-1.2-0.7-2.3-1.2-3.5-1.9
	c-1.2-0.7-2.3-1.5-3.5-2.1c-1.2-0.8-2.2-1.6-3.2-2.4c-1-0.8-2.1-1.6-3.1-2.3c-1-0.8-2-1.6-2.8-2.4c-0.9-0.8-1.7-1.5-2.4-2.3
	c-0.8-0.8-1.4-1.5-2-2.3c-1.2-1.5-1.7-2.5-2-3.4C320,212.2,320.3,211.5,320.9,211.3L320.9,211.3z M330.6,272.3
	c-0.6,0.1-1.5-0.1-2.7-0.4c-0.9-0.3-2.1-0.9-3.2-1.3c-1.3-0.6-2.4-1.2-3.7-1.9c-1.4-0.8-2.6-1.6-3.9-2.5c-1.3-0.9-2.6-1.8-3.9-2.8
	c-0.5-0.3-0.8-0.6-1.3-0.9c-0.5-0.3-0.8-0.6-1.2-0.9s-0.8-0.6-1.2-0.9c-0.5-0.3-0.8-0.6-1.2-0.9c-1.4-1.2-2.8-2.4-3.5-3.4
	c-0.9-1-1.4-1.8-1.6-2.4c-0.2-0.6,0-0.9,0.5-1c0.5-0.1,1.4,0,2.6,0.3c0.9,0.3,2.1,0.7,3.2,1.3c1.3,0.6,2.4,1.2,3.7,1.9
	c1.4,0.8,2.8,1.6,4.1,2.5c1.5,0.9,2.8,1.9,4,2.8c0.5,0.3,0.9,0.7,1.3,0.9c0.5,0.3,0.9,0.7,1.3,0.9c0.5,0.3,0.8,0.6,1.2,0.9
	s0.8,0.6,1.2,0.9c1.5,1.4,2.8,2.6,3.5,3.4c0.9,1,1.3,1.7,1.5,2.3C331.5,271.9,331.2,272.2,330.6,272.3L330.6,272.3z M360.4,277.8
	c-0.7,0.1-1.9-0.1-3.2-0.7c-1.4-0.6-3-1.2-4.7-2c-1.7-0.8-3.7-1.9-5.5-3.1c-2-1.2-3.9-2.5-5.9-4.1c-2-1.4-3.7-2.7-5.2-4.1
	c-1.4-1.4-2.5-2.5-3.5-3.6c-0.9-1-1.4-1.9-1.6-2.6c-0.2-0.7,0.1-1.1,0.8-1.2c0.7-0.1,1.6,0,3,0.5c1.4,0.3,3,1,4.7,2
	c1.7,0.8,3.7,1.9,5.9,3.1c2,1.2,4,2.6,6.2,4.2c2.1,1.6,3.8,2.9,5.3,4.3c1.5,1.4,2.8,2.6,3.5,3.6c0.9,1,1.4,1.9,1.5,2.5
	C361.5,277.4,361.2,277.7,360.4,277.8z M370.9,266.4c-0.8,0.1-1.9-0.1-3.4-0.5c-1.5-0.3-3.2-1.2-5.3-2.1c-2-1-4.1-2.1-6.3-3.5
	c-0.6-0.3-1-0.7-1.6-1.1c-0.6-0.3-1-0.8-1.6-1.1c-0.6-0.3-1-0.8-1.6-1.1s-1-0.8-1.5-1c-1.6-1.1-2.9-2.1-4.2-3.4
	c-1.3-1-2.4-2.1-3.4-3.2c-1-1-1.7-1.9-2.3-2.6c-0.6-0.9-0.9-1.6-1.1-2.2c-0.2-0.8,0.2-1.3,0.9-1.5c0.7-0.2,1.8,0,3.3,0.4
	s3.2,1.1,5.2,2c2,1,4.3,2.1,6.5,3.5c0.6,0.3,1.2,0.8,1.7,1.1c0.6,0.3,1.2,0.8,1.7,1.1c0.6,0.3,1,0.8,1.6,1.1c0.6,0.3,1,0.8,1.6,1.1
	c1.6,1.2,3,2.3,4.3,3.5c1.3,1,2.4,2.3,3.5,3.2c1,1,1.7,1.9,2.3,2.8c0.5,0.9,0.8,1.5,0.9,2C372.2,265.9,371.7,266.3,370.9,266.4
	L370.9,266.4z"/>
<polygon class="st0" points="331.7,147.9 331.6,147.7 331.6,147.9 "/>
<path d="M331.6,147.9L331.6,147.9c0,0-2.4-2.3-6.7-6.1c-2.1-1.9-4.6-4.3-7.6-7.1c-2.9-2.8-6.5-5.5-10.3-8.9
	c-3.8-3.2-8-6.8-12.2-10.4c-4.5-3.5-9.1-7.1-14.2-11.2c-2.5-1.8-4.8-4-7.5-5.8c-2.6-1.8-5.3-3.8-7.8-5.6c-5.3-3.8-10.7-7.8-16-11.6
	c-5.5-3.7-11.1-7.4-16.5-11c-2.6-1.8-5.4-3.7-8.1-5.4c-2.8-1.7-5.4-3.3-8.1-5.1c-5.3-3.3-10.4-6.5-15.2-9.6c-4.9-2.8-9.7-5.5-13.9-8
	c-4.4-2.4-8.2-4.8-11.8-6.6c-3.6-1.9-6.8-3.6-9.3-4.9c-5.2-2.7-8.2-4.4-8.2-4.4s3.1,1.2,8.5,3.3c2.6,1.1,5.9,2.6,9.6,4
	c3.8,1.6,7.9,3.6,12.4,5.7c4.6,2.2,9.3,4.7,14.6,7.3c5.1,2.8,10.2,5.8,15.6,9c2.6,1.6,5.4,3.1,8.3,4.7c2.8,1.7,5.4,3.6,8.2,5.3
	c5.5,3.6,11.1,7.3,16.6,11c5.5,4,10.7,8,16,11.8c2.6,2,5.2,4,7.7,5.9c2.5,1.9,5,4.1,7.3,6.1c4.8,4.1,9.3,8,13.8,11.8
	c4.3,4,8.2,7.8,11.8,11.2c3.6,3.6,6.9,6.6,9.7,9.7c2.7,2.9,5.1,5.7,7.1,7.8C329.6,145.2,331.7,147.8,331.6,147.9
	c3.5-33.4-17.3-73.9-55.8-101.7c-40-29-86.8-35.7-117.5-19.9C82.7-6.8,32.2-2.2,20.4,14c0.1-0.1,0.3-0.5,0.9-1
	c0.5-0.8,1.6-1.5,3.1-2.7c3.1-1.9,8.4-3.3,15.1-3c13.4,0.3,31.8,5,52.7,13.5c10.5,4.2,21.7,9.2,33.2,15
	c11.6,5.8,23.6,12.2,35.8,19.3c12.2,7.1,24.6,14.6,37,22.8c12.4,8.1,24.8,16.6,37,25.5c12.1,8.8,24.1,18,35.6,27.2
	c11.6,9.3,22.6,18.7,33.2,28.1c10.5,9.4,20.3,18.9,29.4,28.2c9.1,9.3,17.3,18.2,24.6,27c14.5,17.3,24.8,33.5,29.2,46
	c2.1,6.3,2.6,11.6,1.8,15.2c-0.6,1.7-1,3-1.6,3.8c-0.5,0.8-0.8,1.2-0.8,1.2C398.4,263.4,390.5,211.3,331.6,147.9L331.6,147.9z"/>
</svg>
