<?xml version="1.0" encoding="utf-8"?>
<!-- Generator: Adobe Illustrator 27.4.0, SVG Export Plug-In . SVG Version: 6.00 Build 0)  -->
<svg version="1.1" id="Слой_1" xmlns="http://www.w3.org/2000/svg" xmlns:xlink="http://www.w3.org/1999/xlink" x="0px" y="0px"
	 viewBox="0 0 850 850" style="enable-background:new 0 0 850 850;" xml:space="preserve">
<style type="text/css">
	.st0{fill:#FBF2E0;}
	.st1{opacity:0.73;clip-path:url(#SVGID_00000066476448519139535270000014559635377064800942_);}
	.st2{fill:#F08636;}
	.st3{fill:#E73B83;}
	.st4{fill:#FFFFFF;stroke:#FFFFFF;stroke-width:3.4041;stroke-miterlimit:10;}
	.st5{fill:none;stroke:#FFFFFF;stroke-width:3.4041;stroke-miterlimit:10;}
	.st6{fill:#00A0C9;}
	.st7{stroke:#000000;stroke-width:3.404;stroke-miterlimit:10;}
	.st8{fill:none;stroke:#000000;stroke-width:3.404;stroke-miterlimit:10;}
	.st9{fill:#FFFFFF;stroke:#FFFFFF;stroke-width:5.5682;stroke-miterlimit:10;}
	.st10{fill:none;stroke:#FFFFFF;stroke-width:5.5682;stroke-miterlimit:10;}
	.st11{stroke:#000000;stroke-width:5.5682;stroke-miterlimit:10;}
	.st12{fill:none;stroke:#000000;stroke-width:5.5682;stroke-miterlimit:10;}
	.st13{fill:#FFFFFF;stroke:#FFFFFF;stroke-width:3.404;stroke-miterlimit:10;}
	.st14{fill:none;stroke:#FFFFFF;stroke-width:3.404;stroke-miterlimit:10;}
	.st15{fill:#FF3385;}
	.st16{fill:#00B2DF;}
	.st17{display:none;}
	.st18{fill:#FFFFFF;stroke:#FFFFFF;stroke-width:2.719;stroke-miterlimit:10;}
	.st19{fill:none;stroke:#FFFFFF;stroke-width:2.719;stroke-miterlimit:10;}
	.st20{fill:#FF9FD8;stroke:#FF9FD8;stroke-width:5.6774;stroke-miterlimit:10;}
	.st21{fill:none;stroke:#FF9FD8;stroke-width:5.6774;stroke-miterlimit:10;}
	.st22{fill:#FF8516;}
	.st23{fill:#02A4D1;}
	.st24{opacity:0.51;fill:#F08636;}
	.st25{fill:none;stroke:#FBF2E0;stroke-width:13.3308;stroke-miterlimit:10;}
	.st26{fill:#F26E14;}
	.st27{fill:#ED2C7E;}
	.st28{fill:#EF8025;}
	.st29{fill:#DC4485;}
	.st30{clip-path:url(#SVGID_00000094587530774713260190000015315986763347895940_);fill:#00A0C9;}
	.st31{clip-path:url(#SVGID_00000094587530774713260190000015315986763347895940_);fill:#F08636;}
	.st32{clip-path:url(#SVGID_00000094587530774713260190000015315986763347895940_);fill:#E73B83;}
	.st33{fill:#FF9FD8;stroke:#FF9FD8;stroke-width:4.3344;stroke-miterlimit:10;}
	.st34{fill:none;stroke:#FF9FD8;stroke-width:4.3344;stroke-miterlimit:10;}
	.st35{fill:#FFFFFF;stroke:#FFFFFF;stroke-width:3.9739;stroke-miterlimit:10;}
	.st36{fill:none;stroke:#FFFFFF;stroke-width:3.9739;stroke-miterlimit:10;}
	.st37{opacity:0.5;}
	.st38{opacity:0.42;}
	.st39{fill:#FFFFFF;stroke:#FFFFFF;stroke-width:4.1045;stroke-miterlimit:10;}
	.st40{fill:none;stroke:#FFFFFF;stroke-width:4.1045;stroke-miterlimit:10;}
	.st41{fill:none;stroke:#00A0C9;stroke-width:0.8494;stroke-miterlimit:10;}
	.st42{stroke:#000000;stroke-width:6.019;stroke-miterlimit:10;}
	.st43{fill:none;stroke:#000000;stroke-width:6.019;stroke-miterlimit:10;}
	.st44{fill:#FF9FD8;stroke:#FF9FD8;stroke-width:3.4041;stroke-miterlimit:10;}
	.st45{fill:none;stroke:#FF9FD8;stroke-width:3.4041;stroke-miterlimit:10;}
	.st46{fill:#FF9FD8;}
	.st47{fill:#FFFFFF;}
	.st48{fill:#FFFFFF;stroke:#FFFFFF;stroke-width:3.1894;stroke-miterlimit:10;}
	.st49{fill:none;stroke:#FFFFFF;stroke-width:3.1894;stroke-miterlimit:10;}
	.st50{fill:#FFFFFF;stroke:#FFFFFF;stroke-width:4.1532;stroke-miterlimit:10;}
	.st51{fill:none;stroke:#FFFFFF;stroke-width:4.1532;stroke-miterlimit:10;}
	.st52{fill:#FFFFFF;stroke:#FFFFFF;stroke-width:5.1998;stroke-miterlimit:10;}
	.st53{fill:none;stroke:#FFFFFF;stroke-width:5.1998;stroke-miterlimit:10;}
	.st54{fill:#FFFFFF;stroke:#FFFFFF;stroke-width:14.3869;stroke-miterlimit:10;}
	.st55{fill:none;stroke:#FFFFFF;stroke-width:14.3869;stroke-miterlimit:10;}
	.st56{stroke:#000000;stroke-width:14.375;stroke-miterlimit:10;}
	.st57{fill:none;stroke:#000000;stroke-width:14.375;stroke-miterlimit:10;}
	.st58{fill:#FFFFFF;stroke:#FFFFFF;stroke-width:7.5547;stroke-miterlimit:10;}
	.st59{fill:none;stroke:#FFFFFF;stroke-width:7.5547;stroke-miterlimit:10;}
	.st60{clip-path:url(#SVGID_00000004531273456939458610000010536073095649467033_);fill:#01A3D0;}
	.st61{clip-path:url(#SVGID_00000004531273456939458610000010536073095649467033_);fill:#E73B83;}
	.st62{fill:#FFFFFF;stroke:#FFFFFF;stroke-width:3.942;stroke-miterlimit:10;}
	.st63{fill:none;stroke:#FFFFFF;stroke-width:3.942;stroke-miterlimit:10;}
	.st64{fill:#FFFFFF;stroke:#FFFFFF;stroke-width:1.9196;stroke-miterlimit:10;}
	.st65{fill:none;stroke:#FFFFFF;stroke-width:2.0119;stroke-miterlimit:10;}
	.st66{fill:none;stroke:#FFFFFF;stroke-width:2.0119;stroke-miterlimit:10;stroke-dasharray:4.14,4.14;}
	.st67{clip-path:url(#SVGID_00000122717709007055069450000001517226427249728675_);fill:#01A3D0;}
	.st68{clip-path:url(#SVGID_00000122717709007055069450000001517226427249728675_);fill:#E73B83;}
	.st69{clip-path:url(#SVGID_00000122717709007055069450000001517226427249728675_);fill:#00A0C9;}
	.st70{clip-path:url(#SVGID_00000178889140886198108510000015629480277055353527_);fill:#01A3D0;}
	.st71{clip-path:url(#SVGID_00000178889140886198108510000015629480277055353527_);fill:#E73B83;}
	.st72{clip-path:url(#SVGID_00000178889140886198108510000015629480277055353527_);fill:#EF8025;}
	.st73{fill:#FFFFFF;stroke:#FFFFFF;stroke-width:1.0003;stroke-miterlimit:10;}
	.st74{fill:none;stroke:#FFFFFF;stroke-width:1.0003;stroke-miterlimit:10;}
	.st75{fill:#FFFFFF;stroke:#FFFFFF;stroke-width:1.2975;stroke-miterlimit:10;}
	.st76{fill:none;stroke:#FFFFFF;stroke-width:1.2975;stroke-miterlimit:10;}
	.st77{fill:#3A4A54;}
	.st78{fill:#C5D6E3;}
	.st79{fill:#1B272C;}
	.st80{fill:#839AAD;}
	.st81{fill:none;stroke:#DD2335;stroke-width:1.6976;stroke-miterlimit:10;}
	.st82{fill:none;stroke:#DD2335;stroke-width:1.8124;stroke-miterlimit:10;}
	.st83{fill:none;stroke:#DD2335;stroke-width:1.6908;stroke-miterlimit:10;}
	.st84{fill:none;stroke:#DD2335;stroke-width:1.7102;stroke-miterlimit:10;}
	.st85{fill:none;stroke:#DD2335;stroke-width:1.6946;stroke-miterlimit:10;}
	.st86{fill:none;stroke:#DD2335;stroke-width:2.3009;stroke-miterlimit:10;}
	.st87{fill:none;stroke:#DD2335;stroke-width:1.6668;stroke-miterlimit:10;}
	.st88{fill:none;stroke:#DD2335;stroke-width:1.7745;stroke-miterlimit:10;}
	.st89{fill:none;stroke:#DD2335;stroke-width:2.1862;stroke-miterlimit:10;}
	.st90{fill:none;stroke:#DD2335;stroke-width:5.887;stroke-miterlimit:10;}
	.st91{fill:#DD2335;}
	.st92{fill:none;stroke:#DD2335;stroke-width:1.66;stroke-miterlimit:10;}
	.st93{fill:none;stroke:#DD2335;stroke-width:2.1154;stroke-miterlimit:10;}
	.st94{fill:none;stroke:#DD2335;stroke-width:2.3333;stroke-miterlimit:10;}
	.st95{fill:none;stroke:#DD2335;stroke-width:1.3707;stroke-miterlimit:10;}
	.st96{fill:none;stroke:#DD2335;stroke-width:1.4197;stroke-miterlimit:10;}
	.st97{fill:none;stroke:#DD2335;stroke-width:1.654;stroke-miterlimit:10;}
	.st98{fill:none;stroke:#FF9FD8;stroke-width:11.3386;stroke-miterlimit:10;}
	.st99{fill:none;stroke:#FBF2E0;stroke-width:11.3386;stroke-miterlimit:10;}
	.st100{fill:#FBF2E0;stroke:#FBF2E0;stroke-width:1.4173;stroke-miterlimit:10;}
	.st101{fill:none;stroke:#FBF2E0;stroke-width:2.4406;stroke-miterlimit:10;}
	.st102{fill:#FBF2E0;stroke:#FBF2E0;stroke-width:2.4406;stroke-miterlimit:10;}
	.st103{fill:#FBF2E0;stroke:#FBF2E0;stroke-width:2.6939;stroke-miterlimit:10;}
	.st104{fill:none;stroke:#FBF2E0;stroke-width:2.6939;stroke-miterlimit:10;}
	.st105{fill:#FBF2E0;stroke:#FBF2E0;stroke-width:0.8615;stroke-miterlimit:10;}
	.st106{fill:none;stroke:#FBF2E0;stroke-width:8.8409;stroke-miterlimit:10;}
	.st107{fill:#FF9FD8;stroke:#FF9FD8;stroke-width:3.3954;stroke-miterlimit:10;}
	.st108{fill:none;stroke:#FF9FD8;stroke-width:3.3954;stroke-miterlimit:10;}
	.st109{fill:#FBF2E0;stroke:#FBF2E0;stroke-width:3.3954;stroke-miterlimit:10;}
	.st110{fill:none;stroke:#FBF2E0;stroke-width:3.3954;stroke-miterlimit:10;}
	.st111{fill:#F2A068;}
	.st112{fill:#22B9DD;}
	.st113{fill:none;stroke:#FBF2E0;stroke-width:7.4113;stroke-miterlimit:10;}
	.st114{fill:#FBF2E0;stroke:#FBF2E0;stroke-width:2.2194;stroke-miterlimit:10;}
	.st115{fill:none;stroke:#FBF2E0;stroke-width:2.2194;stroke-miterlimit:10;}
</style>
<rect x="-25" y="-87" class="st2" width="919" height="1011"/>
<g>
	<g>
		<g>
			<path class="st52" d="M532.82,304.26l-21.1-11.45v8.28c0,4.83-3.91,8.74-8.74,8.74h-35.5c-4.83,0-8.74-3.91-8.74-8.74v-35.5
				c0-0.49,0.03-0.97,0.13-1.44l-59.29-32.14c-4.77-2.58-10.73-0.81-13.31,3.96l-11.32,20.88h7.57c4.83,0,8.74,3.91,8.74,8.74v35.5
				c0,4.83-3.91,8.74-8.74,8.74h-35.5c-0.27,0-0.52-0.01-0.78-0.03l-6.01,11.07c1.61-1.96,4.05-3.22,6.78-3.22h35.5
				c4.83,0,8.74,3.91,8.74,8.73v35.51c0,4.83-3.91,8.74-8.74,8.74h-35.5c-4.83,0-8.74-3.91-8.74-8.74v-35.51
				c0-0.94,0.15-1.85,0.43-2.7l-25.49,47.01c-2.58,4.77-0.81,10.73,3.96,13.31l21.1,11.45v-8.28c0-4.83,3.91-8.74,8.74-8.74h35.5
				c4.83,0,8.74,3.91,8.74,8.74v35.51c0,0.49-0.03,0.96-0.13,1.42l59.29,32.14c4.77,2.58,10.73,0.82,13.31-3.95l11.33-20.89h-7.58
				c-4.83,0-8.74-3.9-8.74-8.73v-35.51c0-4.83,3.91-8.74,8.74-8.74h35.5c0.27,0,0.53,0.01,0.79,0.05l6.01-11.09
				c-1.61,1.98-4.05,3.24-6.79,3.24h-35.5c-4.83,0-8.74-3.91-8.74-8.74v-35.51c0-4.82,3.91-8.73,8.74-8.73h35.5
				c4.83,0,8.74,3.91,8.74,8.73v35.51c0,0.9-0.14,1.78-0.39,2.6l25.45-46.91C539.36,312.81,537.59,306.85,532.82,304.26z
				 M451.5,422.68c0,4.83-3.91,8.73-8.74,8.73h-35.51c-4.83,0-8.74-3.9-8.74-8.73v-35.51c0-4.83,3.91-8.74,8.74-8.74h35.51
				c4.83,0,8.74,3.91,8.74,8.74V422.68z M451.5,361.89c0,4.83-3.91,8.74-8.74,8.74h-35.51c-4.83,0-8.74-3.91-8.74-8.74v-35.51
				c0-4.82,3.91-8.73,8.74-8.73h35.51c4.83,0,8.74,3.91,8.74,8.73V361.89z M451.5,301.09c0,4.83-3.91,8.74-8.74,8.74h-35.51
				c-4.83,0-8.74-3.91-8.74-8.74v-35.5c0-4.83,3.91-8.74,8.74-8.74h35.51c4.83,0,8.74,3.91,8.74,8.74V301.09z"/>
			<g>
				<path class="st53" d="M374.95,256.85h7.57c4.83,0,8.74,3.91,8.74,8.74v35.5c0,4.83-3.91,8.74-8.74,8.74h-35.5
					c-0.27,0-0.52-0.01-0.78-0.03"/>
				<path class="st53" d="M346.24,309.8c-4.47-0.39-7.96-4.14-7.96-8.7v-35.5c0-4.83,3.91-8.74,8.74-8.74h27.93"/>
				<path class="st53" d="M511.72,292.82v-27.23c0-4.83-3.91-8.74-8.74-8.74h-35.5c-4.34,0-7.93,3.16-8.61,7.3"/>
				<path class="st53" d="M511.29,364.57c-0.32,1.02-0.83,1.94-1.49,2.77L511.29,364.57z"/>
				<path class="st53" d="M340.23,320.86l-1.52,2.8C339.04,322.63,339.57,321.68,340.23,320.86z"/>
				<path class="st53" d="M338.28,395.44v27.24c0,4.83,3.91,8.73,8.74,8.73h35.5c4.34,0,7.94-3.16,8.61-7.3"/>
				<path class="st53" d="M503.77,378.47c4.46,0.39,7.95,4.13,7.95,8.69v35.51c0,4.83-3.91,8.73-8.74,8.73h-27.92"/>
			</g>
		</g>
	</g>
	<g>
		<g>
			<path class="st47" d="M236.8,619.18h-10.93c-3.42,0-5.74-3.47-4.45-6.64L266.4,502.6c0.74-1.81,2.5-2.99,4.45-2.99h15.57
				c2,0,3.79,1.24,4.5,3.11l41.51,109.94c1.19,3.15-1.13,6.52-4.5,6.52h-13.35c-2,0-3.79-1.24-4.5-3.12l-9.9-26.34
				c-0.71-1.88-2.5-3.12-4.5-3.12h-39.08c-1.95,0-3.71,1.18-4.45,2.99l-10.89,26.6C240.51,618,238.75,619.18,236.8,619.18z
				 M265.67,573.55h21.35c3.36,0,5.69-3.38,4.49-6.53c-0.66-1.73-1.3-3.43-1.93-5.09c-1.4-3.72-2.79-7.4-4.17-11.04
				c-1.38-3.64-2.78-7.32-4.2-11.04l0,0c-1.58-4.13-7.39-4.18-9.04-0.08l-10.96,27.17C259.93,570.09,262.26,573.55,265.67,573.55z"
				/>
			<path class="st47" d="M195.06,619.18h-13.05c-2.65,0-4.81-2.16-4.81-4.81V504.43c0-2.66,2.15-4.81,4.81-4.81h64.46
				c2.65,0,4.81,2.16,4.81,4.81v4.65c0,2.66-2.15,4.81-4.81,4.81h-41.8c-2.65,0-4.81,2.16-4.81,4.81v95.66
				C199.86,617.02,197.71,619.18,195.06,619.18z"/>
			<path class="st47" d="M363.19,554.66v61.84c0,1.48-1.2,2.68-2.68,2.68h-14.99c-1.48,0-2.68-1.2-2.68-2.68V502.3
				c0-1.48,1.2-2.68,2.68-2.68h16.09c1.95,0,3.71,1.18,4.45,2.98l26.05,63.51c1.63,3.96,7.23,3.98,8.88,0.03l7.71-18.4l19.48-46.48
				c0.42-1,1.39-1.65,2.47-1.65h17.29c1.48,0,2.68,1.2,2.68,2.68v114.2c0,1.48-1.2,2.68-2.68,2.68h-13.45
				c-2.66,0-4.82-2.17-4.81-4.83l0.28-59.31c0.01-1.38-1.89-1.76-2.42-0.49c-6.29,15.02-12.61,28.38-18.9,43.89
				c-0.74,1.81-2.5,2.99-4.45,2.99h-16.93c-1.08,0-2.05-0.65-2.47-1.64l-19.19-45.62C365.07,552.9,363.19,553.28,363.19,554.66z"/>
			<path class="st47" d="M544.36,504.43v4.65c0,2.66-2.15,4.81-4.81,4.81h-45.88c-2.65,0-4.81,2.16-4.81,4.81v22.83
				c0,2.66,2.15,4.81,4.81,4.81h9.51c7.23,0,13.71,0.81,19.43,2.44c5.73,1.63,10.68,3.97,14.86,7.02
				c4.91,3.78,8.66,8.17,11.24,13.18c2.58,5,3.87,10.55,3.87,16.65c0,6.95-1.49,12.89-4.48,17.81c-2.99,4.92-7.34,8.85-13.07,11.77
				c-2.68,1.3-6.39,2.29-11.12,2.96c-4.73,0.67-10.43,1.01-17.09,1.01h-35.89c-2.65,0-4.81-2.16-4.81-4.81V504.43
				c0-2.66,2.15-4.81,4.81-4.81h68.61C542.21,499.61,544.36,501.77,544.36,504.43z M529.37,584.95c0-5.04-0.74-9.29-2.22-12.75
				c-1.48-3.46-3.5-6.1-6.06-7.93l0.12,0.06c-2.68-1.54-5.89-2.75-9.63-3.63c-3.74-0.87-7.96-1.31-12.67-1.31h-5.24
				c-2.65,0-4.81,2.16-4.81,4.81v37.1c0,2.66,2.15,4.81,4.81,4.81h13.47C521.96,606.12,529.37,599.07,529.37,584.95z"/>
			<path class="st47" d="M581.96,619.18h-13.05c-2.65,0-4.81-2.15-4.81-4.81v-79.89c0-2.65,2.15-4.81,4.81-4.81h13.05
				c2.66,0,4.81,2.15,4.81,4.81v79.89C586.77,617.02,584.62,619.18,581.96,619.18z"/>
			<path class="st47" d="M610.6,614.39v-95.06c0-2.64-2.15-4.78-4.81-4.78H575.2c-2.65,0-4.81-2.14-4.81-4.78v-4.62
				c0-2.64,2.15-4.78,4.81-4.78h92.79c2.66,0,4.81,2.14,4.81,4.78v4.62c0,2.64-2.15,4.78-4.81,4.78h-29.98
				c-2.65,0-4.81,2.14-4.81,4.78v95.06c0,2.64-2.15,4.78-4.81,4.78h-12.99C612.75,619.18,610.6,617.03,610.6,614.39z"/>
		</g>
	</g>
</g>
</svg>
