<?xml version="1.0" encoding="utf-8"?>
<!-- Generator: Adobe Illustrator 27.2.0, SVG Export Plug-In . SVG Version: 6.00 Build 0)  -->
<svg version="1.1" id="Layer_1" xmlns="http://www.w3.org/2000/svg" xmlns:xlink="http://www.w3.org/1999/xlink" x="0px" y="0px"
	 viewBox="0 0 76.5 59.5" style="enable-background:new 0 0 76.5 59.5;" xml:space="preserve">
<style type="text/css">
	.st0{fill:#FFC531;}
	.st1{fill:#B50828;}
	.st2{fill:url(#SVGID_1_);}
	.st3{fill:#181716;}
</style>
<g>
	<polygon class="st0" points="10.7,13.2 10.7,13.2 10.7,13.2 	"/>
	<path class="st1" d="M67.3,27.7c-0.1-0.5-0.5-1.1-1.1-1.8c-0.6-0.7-1.4-1.4-2.4-2.1c-1-0.7-2.2-1.4-3.5-2.1c-2.6-1.4-5.7-2.8-9.2-4
		c-1.7-0.6-3.5-1.2-5.3-1.8c-1.8-0.6-3.7-1.1-5.5-1.6c-1.9-0.5-3.7-1-5.6-1.4c-1.9-0.4-3.7-0.8-5.5-1.1c-1.8-0.3-3.5-0.6-5.1-0.7
		c-1.6-0.2-3.2-0.3-4.6-0.3c-1.4,0-2.8,0-3.9,0.1c-1.2,0.1-2.2,0.3-3,0.6c-0.8,0.3-1.4,0.7-1.7,1.1c-0.1,0.2-0.2,0.4-0.3,0.5
		c0,0.1-0.1,0.2-0.1,0.2l0,0c-0.5,2.5,4.3,6.2,12,9.6L19,27.4c-0.5-0.2-1.1,0-1.5,0.5c-0.6,0.7-0.5,1.8,0.1,2.5
		c0.6,0.6,1.6,0.6,2.2-0.1c0.4-0.5,0.5-1.2,0.3-1.8l4-5.1c1.6,0.6,3.2,1.3,4.9,1.9l2.9-4.4h0c0.3-0.8,3.5-0.7,7.2,0.2
		c3.7,0.9,6.7,2.4,6.6,3.3h0l1.1,5.7c1.7,0.3,3.3,0.6,4.9,0.7l1.6,6.1C53,37.3,52.8,38,53,38.6c0.3,0.9,1.1,1.4,1.9,1.1
		c0.8-0.3,1.3-1.3,1-2.2c-0.2-0.6-0.7-1.1-1.2-1.2L53.2,31c8,0.8,13.6,0,14.1-2.5c0,0,0-0.1,0-0.2C67.3,28.2,67.3,28,67.3,27.7
		L67.3,27.7z"/>
	<path class="st0" d="M14.2,13.6c0,0,0.1-0.1,0.3-0.1c0.1,0,0.3,0,0.5,0c0.2,0,0.4,0,0.6,0.1c0.2,0,0.5,0.1,0.7,0.2
		c0.1,0,0.2,0,0.2,0.1c0.1,0,0.2,0.1,0.2,0.1c0.1,0,0.2,0.1,0.2,0.1c0.1,0,0.2,0.1,0.3,0.1c0.3,0.1,0.6,0.3,0.9,0.4
		c0.3,0.1,0.5,0.3,0.6,0.4c0.2,0.1,0.3,0.2,0.3,0.3s0,0.2-0.1,0.2c-0.1,0-0.2,0.1-0.3,0.1c-0.1,0-0.3,0-0.5,0c-0.2,0-0.4,0-0.6-0.1
		c-0.2,0-0.4-0.1-0.7-0.2c-0.1,0-0.2,0-0.2-0.1c-0.1,0-0.2,0-0.2-0.1c-0.1,0-0.2-0.1-0.2-0.1c-0.1,0-0.2-0.1-0.2-0.1
		c-0.3-0.1-0.6-0.2-0.9-0.4c-0.3-0.1-0.5-0.3-0.6-0.4c-0.2-0.1-0.3-0.2-0.4-0.3C14.2,13.8,14.2,13.7,14.2,13.6L14.2,13.6z"/>
	<path class="st0" d="M15.8,17.1c-0.3-0.1-0.5-0.2-0.8-0.3c-0.2-0.1-0.4-0.2-0.6-0.3c-0.2-0.1-0.3-0.2-0.3-0.3c-0.1-0.1,0-0.2,0-0.2
		c0.1,0,0.2-0.1,0.4-0.1s0.4,0,0.6,0.1c0.3,0,0.5,0.1,0.9,0.2c0.3,0.1,0.6,0.2,0.9,0.3c0.3,0.1,0.6,0.2,0.8,0.3
		c0.2,0.1,0.4,0.2,0.6,0.3c0.2,0.1,0.3,0.2,0.3,0.3c0,0.1,0,0.2,0,0.2c-0.1,0-0.2,0.1-0.4,0.1s-0.4,0-0.6-0.1
		c-0.2,0-0.5-0.1-0.8-0.2S16,17.2,15.8,17.1L15.8,17.1z"/>
	<path class="st0" d="M21.2,20.2c-0.1,0-0.2,0.1-0.4,0.1s-0.4,0-0.6-0.1c-0.1,0-0.1,0-0.2,0c-0.1,0-0.1,0-0.2,0c-0.1,0-0.1,0-0.2,0
		c-0.1,0-0.1,0-0.2-0.1c-0.2-0.1-0.4-0.1-0.6-0.2c-0.2-0.1-0.4-0.1-0.6-0.2c-0.2-0.1-0.4-0.2-0.5-0.2c-0.2-0.1-0.3-0.2-0.4-0.2
		c-0.1-0.1-0.2-0.2-0.3-0.3c0-0.1,0-0.1,0-0.2c0.1,0,0.2-0.1,0.3-0.1c0.2,0,0.4,0,0.6,0.1c0.1,0,0.1,0,0.2,0c0.1,0,0.1,0,0.2,0
		c0.1,0,0.1,0,0.2,0c0.1,0,0.1,0,0.2,0.1c0.2,0.1,0.4,0.1,0.6,0.2s0.4,0.1,0.6,0.2c0.2,0.1,0.4,0.2,0.5,0.2c0.2,0.1,0.3,0.2,0.4,0.2
		c0.1,0.1,0.2,0.2,0.3,0.3C21.3,20.1,21.3,20.2,21.2,20.2L21.2,20.2z"/>
	<path class="st0" d="M23.6,14.3c-0.1,0.1-0.3,0.1-0.5,0.1c-0.1,0-0.2,0-0.4,0s-0.3,0-0.4,0c-0.1,0-0.3-0.1-0.5-0.1
		c-0.2,0-0.3-0.1-0.5-0.1c-0.2,0-0.3-0.1-0.5-0.2c-0.2-0.1-0.3-0.1-0.5-0.2c-0.2-0.1-0.3-0.1-0.5-0.2c-0.2-0.1-0.3-0.1-0.4-0.2
		c-0.3-0.2-0.5-0.3-0.7-0.4c-0.2-0.1-0.3-0.3-0.3-0.4s0-0.2,0-0.3c0.1-0.1,0.2-0.1,0.5-0.1c0.1,0,0.2,0,0.4,0c0.1,0,0.3,0,0.4,0
		c0.2,0,0.3,0.1,0.5,0.1c0.2,0,0.3,0.1,0.5,0.1c0.2,0,0.4,0.1,0.5,0.2s0.4,0.1,0.5,0.2c0.2,0.1,0.3,0.1,0.5,0.2
		c0.2,0.1,0.3,0.2,0.5,0.2c0.3,0.2,0.5,0.3,0.7,0.4c0.2,0.1,0.3,0.3,0.3,0.4C23.7,14.2,23.7,14.3,23.6,14.3L23.6,14.3z"/>
	<path class="st0" d="M32,14.9c-0.1,0.1-0.3,0.1-0.6,0.1c-0.2,0-0.5,0-0.9-0.1c-0.1,0-0.2,0-0.3,0c-0.1,0-0.2,0-0.3-0.1
		c-0.1,0-0.2,0-0.3-0.1c-0.1,0-0.2,0-0.3-0.1c-0.3-0.1-0.5-0.2-0.8-0.2c-0.3-0.1-0.5-0.2-0.7-0.3c-0.2-0.1-0.4-0.2-0.6-0.3
		c-0.2-0.1-0.4-0.2-0.5-0.3c-0.2-0.2-0.3-0.3-0.3-0.4c0-0.1,0-0.2,0.1-0.3c0.1-0.1,0.3-0.1,0.5-0.1c0.2,0,0.5,0,0.9,0.1
		c0.1,0,0.2,0,0.3,0c0.1,0,0.2,0,0.3,0.1c0.1,0,0.2,0,0.3,0.1c0.1,0,0.2,0,0.3,0.1c0.3,0.1,0.6,0.2,0.8,0.3c0.3,0.1,0.5,0.2,0.8,0.3
		c0.2,0.1,0.4,0.2,0.6,0.3c0.2,0.1,0.3,0.2,0.5,0.3c0.2,0.2,0.2,0.3,0.2,0.4C32.3,14.8,32.2,14.9,32,14.9L32,14.9z"/>
	<path class="st0" d="M43.2,17c0,0.1-0.1,0.2-0.3,0.2c-0.2,0.1-0.4,0.1-0.7,0.1c-0.3,0-0.6,0-0.9-0.1c-0.3-0.1-0.7-0.1-1.1-0.2
		c-0.4-0.1-0.7-0.2-1.1-0.4c-0.3-0.1-0.6-0.3-0.9-0.4c-0.2-0.1-0.4-0.3-0.6-0.4c-0.1-0.1-0.2-0.3-0.2-0.4s0.1-0.2,0.3-0.3
		c0.2-0.1,0.4-0.1,0.7-0.1c0.3,0,0.6,0,0.9,0.1c0.4,0.1,0.7,0.1,1.1,0.2c0.4,0.1,0.8,0.2,1.1,0.4c0.3,0.1,0.6,0.3,0.9,0.4
		c0.2,0.2,0.4,0.3,0.5,0.4S43.2,16.8,43.2,17L43.2,17z"/>
	<path class="st0" d="M53.8,20.5c-0.1,0.1-0.2,0.2-0.4,0.2c-0.2,0-0.3,0.1-0.6,0.1c-0.2,0-0.4,0-0.7,0c-0.2,0-0.5-0.1-0.8-0.1
		c-0.3-0.1-0.5-0.1-0.8-0.2c-0.1,0-0.2,0-0.3-0.1c-0.1,0-0.2-0.1-0.3-0.1c-0.1,0-0.2-0.1-0.3-0.1c-0.1,0-0.2-0.1-0.2-0.1
		c-0.3-0.1-0.6-0.3-0.8-0.4c-0.2-0.1-0.4-0.3-0.5-0.4c-0.1-0.1-0.1-0.2-0.1-0.3c0-0.1,0.2-0.2,0.4-0.2c0.1,0,0.3-0.1,0.5-0.1
		c0.2,0,0.4,0,0.7,0c0.3,0,0.5,0.1,0.8,0.1c0.3,0.1,0.6,0.1,0.8,0.2c0.1,0,0.2,0.1,0.3,0.1c0.1,0,0.2,0.1,0.3,0.1
		c0.1,0,0.2,0.1,0.3,0.1c0.1,0,0.2,0.1,0.3,0.1c0.3,0.1,0.6,0.3,0.8,0.4c0.2,0.1,0.4,0.3,0.4,0.4C53.8,20.3,53.8,20.4,53.8,20.5
		L53.8,20.5z"/>
	<path class="st0" d="M56.1,22.9c0.1-0.1,0.2-0.1,0.4-0.2c0.2,0,0.5-0.1,0.8,0c0.2,0,0.3,0,0.5,0c0.2,0,0.4,0,0.5,0.1
		c0.2,0,0.4,0.1,0.5,0.1c0.2,0,0.4,0.1,0.5,0.1c0.2,0,0.3,0.1,0.5,0.2c0.2,0.1,0.3,0.1,0.5,0.2c0.1,0.1,0.3,0.1,0.4,0.2
		c0.1,0.1,0.2,0.1,0.3,0.2c0.2,0.1,0.3,0.2,0.4,0.4c0,0.1,0,0.2,0,0.3c-0.1,0.1-0.2,0.1-0.4,0.2c-0.2,0-0.5,0-0.8,0
		c-0.2,0-0.3,0-0.5,0c-0.2,0-0.3,0-0.5-0.1c-0.2,0-0.3-0.1-0.5-0.1c-0.2,0-0.3-0.1-0.5-0.1c-0.2,0-0.3-0.1-0.5-0.1
		c-0.2-0.1-0.3-0.1-0.4-0.2c-0.1-0.1-0.3-0.1-0.4-0.2c-0.1-0.1-0.2-0.1-0.3-0.2c-0.2-0.1-0.3-0.2-0.4-0.3
		C56.1,23.1,56.1,23,56.1,22.9L56.1,22.9z"/>
	<path class="st0" d="M60.3,30.7c-0.1,0-0.2,0.1-0.4,0.1c-0.1,0-0.3,0-0.4,0c-0.2,0-0.4,0-0.5-0.1s-0.4-0.1-0.6-0.1
		c-0.2,0-0.4-0.1-0.6-0.2c-0.1,0-0.1,0-0.2-0.1c-0.1,0-0.1,0-0.2-0.1c-0.1,0-0.1,0-0.2-0.1c-0.1,0-0.1,0-0.2-0.1
		c-0.2-0.1-0.4-0.2-0.6-0.3c-0.1-0.1-0.3-0.2-0.3-0.2s-0.1-0.1,0-0.2c0,0,0.2-0.1,0.3-0.1c0.1,0,0.3,0,0.4,0c0.2,0,0.4,0,0.5,0.1
		c0.2,0,0.4,0.1,0.6,0.1c0.2,0,0.4,0.1,0.6,0.2c0.1,0,0.1,0,0.2,0.1c0.1,0,0.1,0,0.2,0.1c0.1,0,0.1,0,0.2,0.1c0.1,0,0.1,0,0.2,0.1
		c0.2,0.1,0.4,0.2,0.6,0.3c0.1,0.1,0.2,0.2,0.3,0.2C60.4,30.5,60.4,30.6,60.3,30.7L60.3,30.7z"/>
	<path class="st0" d="M64.1,29.7c-0.1,0.1-0.2,0.1-0.4,0.1c-0.2,0-0.4,0-0.7,0c-0.3,0-0.5-0.1-0.8-0.1c-0.3-0.1-0.6-0.1-0.9-0.2
		s-0.6-0.2-0.8-0.3c-0.2-0.1-0.4-0.2-0.6-0.3c-0.2-0.1-0.3-0.2-0.3-0.3c0-0.1,0-0.2,0-0.2c0.1-0.1,0.2-0.1,0.4-0.1
		c0.2,0,0.4,0,0.7,0c0.3,0,0.5,0.1,0.8,0.1c0.3,0.1,0.6,0.1,0.9,0.2c0.3,0.1,0.6,0.2,0.8,0.3c0.2,0.1,0.4,0.2,0.6,0.3
		c0.1,0.1,0.3,0.2,0.3,0.3C64.2,29.6,64.2,29.7,64.1,29.7L64.1,29.7z"/>
	<path class="st0" d="M64.8,27.6c-0.1,0.1-0.2,0.1-0.4,0.1c-0.2,0-0.4,0-0.7,0c-0.3,0-0.6-0.1-0.9-0.1c-0.1,0-0.2,0-0.2,0
		c-0.1,0-0.2,0-0.2-0.1c-0.1,0-0.2,0-0.2-0.1c-0.1,0-0.2,0-0.2-0.1c-0.2-0.1-0.5-0.1-0.7-0.2c-0.2-0.1-0.4-0.2-0.6-0.2
		c-0.2-0.1-0.3-0.2-0.4-0.2c-0.1-0.1-0.2-0.2-0.2-0.2c-0.1-0.1,0-0.2,0-0.2c0.1-0.1,0.2-0.1,0.4-0.1s0.4,0,0.7,0
		c0.3,0,0.6,0.1,1,0.1c0.1,0,0.2,0,0.3,0c0.1,0,0.2,0,0.3,0.1c0.1,0,0.2,0,0.3,0.1c0.1,0,0.2,0,0.2,0.1c0.2,0.1,0.5,0.1,0.7,0.2
		c0.2,0.1,0.4,0.2,0.6,0.2c0.2,0.1,0.3,0.2,0.4,0.2c0.1,0.1,0.2,0.2,0.2,0.2C64.9,27.5,64.9,27.5,64.8,27.6L64.8,27.6z"/>
	<polygon class="st0" points="54.3,13.7 54.3,13.7 54.3,13.7 	"/>
	<path class="st1" d="M54.3,13.7L54.3,13.7c0,0-0.4-0.2-1.1-0.5c-0.4-0.2-0.8-0.3-1.3-0.5c-0.5-0.2-1.1-0.4-1.7-0.6
		c-0.6-0.2-1.3-0.5-2-0.7c-0.7-0.2-1.4-0.5-2.2-0.7c-0.4-0.1-0.8-0.3-1.2-0.4s-0.8-0.2-1.2-0.3c-0.8-0.2-1.7-0.5-2.5-0.7
		c-0.8-0.2-1.7-0.4-2.5-0.6c-0.4-0.1-0.8-0.2-1.2-0.3c-0.4-0.1-0.8-0.2-1.2-0.2C35.5,8.1,34.7,8,34,7.8c-0.7-0.1-1.4-0.2-2.1-0.3
		c-0.6-0.1-1.2-0.2-1.7-0.2c-0.5-0.1-1-0.1-1.4-0.1C28.1,7.1,27.7,7,27.7,7s0.4,0,1.2,0c0.4,0,0.8,0,1.4,0c0.5,0,1.1,0,1.8,0.1
		c0.6,0.1,1.3,0.1,2.1,0.2c0.7,0.1,1.5,0.2,2.3,0.3c0.4,0.1,0.8,0.1,1.2,0.2C38,7.8,38.4,7.9,38.8,8c0.8,0.2,1.7,0.4,2.5,0.6
		C42.2,8.8,43,9,43.8,9.3c0.4,0.1,0.8,0.2,1.2,0.3c0.4,0.1,0.8,0.3,1.2,0.4c0.8,0.3,1.5,0.6,2.2,0.8c0.7,0.3,1.3,0.6,1.9,0.9
		c0.6,0.3,1.2,0.5,1.6,0.8c0.5,0.3,0.9,0.5,1.2,0.7C53.9,13.5,54.2,13.7,54.3,13.7C53,9,48.5,4.7,42.6,3.1c-6.2-1.7-12.1,0.1-14.9,4
		c-10.6-0.2-16.4,3.3-17,6.2c0,0,0-0.1,0-0.2c0-0.1,0.1-0.3,0.2-0.5c0.3-0.4,0.8-0.9,1.6-1.3c1.6-0.7,4-1.1,6.9-1.2
		c1.4,0,3,0,4.7,0.2c1.7,0.1,3.4,0.3,5.2,0.6c1.8,0.3,3.6,0.6,5.5,1c1.9,0.4,3.8,0.9,5.6,1.4c1.9,0.5,3.8,1.1,5.6,1.7
		c1.8,0.6,3.6,1.3,5.3,1.9c1.7,0.7,3.3,1.4,4.9,2.1c1.5,0.7,3,1.5,4.2,2.3c2.6,1.5,4.6,3.1,5.7,4.6c0.6,0.7,0.9,1.4,1,2
		c0,0.3,0,0.5,0,0.6c0,0.1,0,0.2,0,0.2C67.9,25.6,64.4,19,54.3,13.7L54.3,13.7z"/>
</g>
<linearGradient id="SVGID_1_" gradientUnits="userSpaceOnUse" x1="33.8937" y1="11.6778" x2="39.9179" y2="38.6194" gradientTransform="matrix(1 0 0 -1 0 59.8898)">
	<stop  offset="0" style="stop-color:#FFFFFF;stop-opacity:0"/>
	<stop  offset="1" style="stop-color:#FFFFFF"/>
</linearGradient>
<path class="st2" d="M45.8,24.4L45.8,24.4c0-0.9-2.9-2.4-6.7-3.3c-3.7-1-6.9-1-7.2-0.2h0L17.2,43.3l33.7,8.5L45.8,24.4L45.8,24.4z"
	/>
<g>
	<g>
		<path class="st0" d="M5.6,58c-0.1,0-0.2,0-0.3-0.1c-0.1,0-0.1-0.1-0.3-0.1l-0.3-0.2l-0.3-0.1l-0.3-0.3c-0.1-0.2-0.2-0.2-0.2-0.2
			c0,0,0,0,0,0c-0.1,0-0.2-0.1-0.2-0.3c0-0.2,0-0.3,0.1-0.4l0,0c0,0,0-0.1,0-0.5c-0.1-0.6-0.2-1.3-0.3-1.9l0-0.2
			c-0.1-0.7-0.2-1.5-0.3-2.4c0-0.4-0.1-0.8-0.1-1.2l0-0.5l-0.1-0.5c0-0.2,0-0.4-0.1-0.5c-0.2-1.6-0.1-1.7-0.1-1.8c0-0.1,0-0.3,0-0.4
			l-0.6,0.1l-0.7,0.1c0,0-0.1,0-0.1,0.1c-0.1,0.1-0.2,0.1-0.4,0.1h0c-0.2,0-0.3-0.1-0.3-0.2l0-0.3c0-0.3-0.1-0.5-0.3-0.7
			c-0.2-0.2-0.3-0.5-0.3-0.8c0-0.1,0-0.3,0.2-0.5c0.1-0.2,0.3-0.3,0.4-0.3L1.4,44c0,0,0.2-0.1,0.5-0.2c0.3-0.1,0.6-0.2,0.9-0.3
			l1.4-0.3c0.2,0,0.4-0.1,0.6-0.1C4.9,43.1,5.1,43,5.2,43C5.4,43,5.5,43,5.7,43c0.7,0,0.9,0.5,1.1,1.3c0,0.1,0,0.2,0,0.3
			c0,0.2,0,0.3-0.1,0.4l0.1,0.2c0,0.2-0.1,0.5-0.3,0.5l0,0c0,0-0.2,0-0.3,0l-0.2,0c-0.2,0-0.4,0.1-0.6,0.2c-0.1,0-0.1,0.1-0.1,0.3
			l0,0.7c0,0.3,0,0.6,0,1l0,0.6c0,0.6,0.1,1.2,0.1,1.8c0,0.6,0.1,1,0.1,1.3l0.2,1.2c0.1,0.5,0.2,0.9,0.2,1.4c0.1,0.5,0.2,1,0.3,1.4
			c0.1,0.4,0.2,0.8,0.4,1c0,0,0,0.1,0,0.2c0,0.2,0,0.6-0.3,0.9C6.2,57.9,6,58,5.6,58L5.6,58L5.6,58z"/>
		<path class="st3" d="M5.7,43.1c0.5,0,0.8,0.3,0.9,1.2c0,0.1,0,0.2,0,0.3c0,0.1,0,0.2-0.1,0.4l0.1,0.3c0,0-0.1,0.3-0.1,0.3
			c0,0-0.2,0-0.3,0c0,0,0,0-0.1,0l-0.2,0c-0.2,0-0.5,0.1-0.6,0.2c-0.2,0.1-0.2,0.2-0.2,0.5l0,0.6c0,0.5,0,1,0.1,1.6
			c0,0.6,0.1,1.2,0.1,1.8c0,0.6,0.1,1,0.1,1.3l0.2,1.2c0.1,0.5,0.2,1,0.3,1.5c0.1,0.5,0.2,1,0.3,1.4c0.1,0.4,0.2,0.8,0.4,1h0v0v0.1
			c0,0.2,0,0.5-0.2,0.8c-0.1,0.1-0.3,0.2-0.6,0.3c0,0,0,0,0,0c-0.1,0-0.1,0-0.2-0.1c-0.1-0.1-0.2-0.1-0.3-0.1h0l-0.2-0.2l-0.3-0.1
			l-0.2-0.2C4.2,57.1,4.1,57,4.1,57l0,0h0h0l0,0C4,57,4,56.9,4,56.8c0-0.1,0-0.2,0-0.3c0-0.1,0.1-0.3,0-0.6
			c-0.1-0.7-0.2-1.4-0.3-2.2c-0.1-0.7-0.2-1.5-0.3-2.4c-0.1-0.7-0.1-1.2-0.2-1.7s-0.1-0.8-0.1-1C3,47.6,3,47.1,3,47
			c0-0.2,0-0.4,0-0.6c0-0.1-0.1-0.2-0.2-0.2l0,0l-0.6,0.1l-0.7,0.1c0,0,0,0-0.2,0.1c-0.1,0.1-0.2,0.1-0.3,0.1c0,0,0,0,0,0
			c-0.1,0-0.1,0-0.1-0.1v-0.1l0-0.3c0-0.3-0.1-0.6-0.3-0.8c-0.2-0.2-0.3-0.4-0.3-0.7c0-0.1,0-0.2,0.1-0.3c0.1-0.2,0.2-0.2,0.2-0.2
			l0.7-0.1c0,0,0.2-0.1,0.5-0.2c0.3-0.1,0.6-0.2,0.9-0.3l1.4-0.3c0.2,0,0.4-0.1,0.6-0.1c0.2-0.1,0.4-0.1,0.5-0.1
			C5.4,43.1,5.5,43.1,5.7,43.1 M5.7,42.8c-0.1,0-0.3,0-0.5,0.1c-0.2,0-0.3,0.1-0.5,0.1C4.5,43,4.3,43,4.1,43.1l-1.4,0.3
			c-0.3,0.1-0.6,0.1-0.9,0.3c-0.3,0.1-0.4,0.2-0.5,0.2l-0.7,0.1c-0.2,0-0.3,0.1-0.5,0.4C0,44.5,0,44.7,0,44.9c0,0.4,0.2,0.7,0.4,0.9
			c0.1,0.1,0.2,0.3,0.2,0.6l0,0.3c0,0.3,0.2,0.5,0.4,0.5c0,0,0.1,0,0.1,0c0.1,0,0.3-0.1,0.4-0.2c0,0,0.1,0,0.1-0.1l0.6-0.1l0.4-0.1
			c0,0.1,0,0.2,0,0.3c0,0.2,0,0.5,0.1,1.8c0,0.1,0,0.3,0.1,0.5c0,0.2,0,0.3,0.1,0.5l0,0.5c0,0.4,0.1,0.7,0.1,1.2v0.1
			c0.1,0.8,0.2,1.5,0.3,2.3l0,0.2c0.1,0.7,0.2,1.4,0.3,2c0,0.3,0,0.4,0,0.4c-0.1,0.1-0.1,0.3-0.1,0.5c0.1,0.4,0.3,0.4,0.4,0.4
			c0,0,0.1,0.1,0.1,0.1l0.2,0.2c0,0,0.1,0.1,0.1,0.1l0.3,0.1L4.9,58C4.9,58,5,58,5,58l0,0l0,0c0.1,0,0.2,0,0.2,0
			c0.1,0.1,0.3,0.1,0.4,0.1c0,0,0.1,0,0.1,0c0.4-0.1,0.6-0.2,0.8-0.4c0.3-0.3,0.4-0.7,0.3-1.1c0-0.1,0-0.2,0-0.2
			c-0.1-0.2-0.2-0.6-0.3-1c-0.1-0.4-0.2-0.9-0.3-1.4c-0.1-0.5-0.2-1-0.3-1.4l-0.2-1.2c0-0.2-0.1-0.6-0.1-1.3c0-0.6-0.1-1.2-0.1-1.7
			l0-0.6c0-0.4,0-0.7,0-1l0-0.6c0-0.1,0-0.2,0-0.2C5.5,46,5.7,46,5.9,45.9l0.2,0c0.1,0,0.3,0,0.3,0c0,0,0,0,0,0c0,0,0,0,0,0
			c0.3,0,0.4-0.5,0.4-0.7L6.8,45c0-0.1,0-0.2,0-0.2v-0.1c0-0.2,0-0.3,0-0.4C6.7,43.5,6.5,42.8,5.7,42.8L5.7,42.8L5.7,42.8z"/>
	</g>
	<g>
		<path class="st0" d="M26.5,49.9c-0.1,0-0.2,0-0.2-0.1c0,0-0.1,0-0.1,0c0,0,0,0,0,0c0,0-0.1,0-0.1,0l-0.2-0.1l-0.2,0l-0.3-0.2
			c-0.1-0.1-0.1-0.1-0.2-0.2c0,0,0,0,0,0c-0.1,0-0.2-0.1-0.2-0.2c0-0.1,0-0.3,0-0.4l0,0c0,0,0-0.1,0-0.4c-0.1-0.5-0.2-1-0.3-1.6
			l0-0.2c-0.1-0.5-0.2-1.1-0.3-1.7l0-0.2c-0.1-0.3-0.1-0.7-0.2-1l-0.1-0.5l-0.1-0.4c0-0.2-0.1-0.3-0.1-0.4c-0.3-1.3-0.2-1.4-0.2-1.5
			c0-0.1,0-0.2-0.1-0.3l-0.4,0.1l-0.6,0.1c0,0,0,0-0.1,0.1c-0.1,0.1-0.2,0.1-0.3,0.1c0,0,0,0,0,0c-0.2,0-0.3-0.1-0.3-0.2l-0.1-0.3
			c0-0.2-0.1-0.4-0.2-0.5c-0.2-0.2-0.3-0.4-0.3-0.6c0-0.1,0-0.2,0.1-0.4c0.1-0.2,0.2-0.3,0.3-0.3l0.6-0.1c0,0,0.1-0.1,0.4-0.2
			c0.3-0.1,0.5-0.2,0.7-0.3l1.1-0.3c0.2-0.1,0.4-0.1,0.5-0.2c0.1-0.1,0.3-0.1,0.4-0.1c0.2-0.1,0.3-0.1,0.5-0.1c0.6,0,0.7,0.5,0.9,1
			c0,0.1,0,0.2,0,0.3c0,0.2,0,0.3,0,0.4l0.1,0.2c0,0.1-0.1,0.4-0.2,0.5c0,0-0.1,0-0.2,0c-0.1,0-0.1,0-0.1,0l-0.1,0
			c-0.2,0.1-0.4,0.1-0.5,0.2c0,0-0.1,0.1,0,0.2l0.1,0.5c0,0.2,0.1,0.5,0.1,0.8l0.1,0.5c0.1,0.5,0.1,1,0.2,1.5c0.1,0.5,0.1,0.8,0.2,1
			l0.2,1c0.1,0.4,0.2,0.8,0.3,1.1c0.1,0.4,0.2,0.8,0.3,1.1c0.1,0.3,0.2,0.6,0.4,0.8c0,0,0,0.1,0,0.2c0,0.2,0,0.5-0.2,0.8
			c-0.1,0.1-0.3,0.2-0.6,0.3L26.5,49.9L26.5,49.9z"/>
		<path class="st3" d="M25.7,37.5c0.4,0,0.6,0.2,0.7,0.9c0,0.1,0,0.1,0,0.2c0,0.1,0,0.2,0,0.3l0.1,0.2c0,0-0.1,0.2-0.1,0.2
			c0,0,0,0-0.1,0c-0.1,0-0.1,0-0.2,0l-0.1,0c-0.2,0.1-0.4,0.1-0.5,0.2c-0.1,0.1-0.2,0.2-0.1,0.4l0.1,0.5c0,0.4,0.1,0.8,0.2,1.3
			c0.1,0.5,0.1,1,0.2,1.5c0.1,0.5,0.1,0.8,0.2,1.1l0.2,1c0.1,0.4,0.2,0.8,0.3,1.2s0.2,0.8,0.3,1.1c0.1,0.3,0.2,0.6,0.4,0.8h0v0v0.1
			c0,0.2,0,0.4-0.1,0.7c-0.1,0.1-0.3,0.2-0.5,0.3c0,0,0,0-0.1,0c0,0-0.1,0-0.2,0c-0.1,0-0.1,0-0.2,0c0,0-0.1,0-0.1,0l-0.2-0.1
			l-0.3-0.1l-0.2-0.2c-0.1-0.1-0.2-0.2-0.2-0.2l0,0h0h0l0,0c0,0,0,0-0.1-0.1c0-0.1,0-0.2,0-0.2c0-0.1,0-0.2,0-0.5
			c-0.1-0.6-0.2-1.1-0.4-1.8c-0.1-0.6-0.2-1.3-0.4-1.9c-0.1-0.6-0.2-1-0.3-1.4s-0.1-0.6-0.2-0.8c-0.2-0.8-0.2-1.3-0.2-1.3
			c0-0.2,0-0.3-0.1-0.5c0-0.1-0.1-0.1-0.1-0.1c0,0,0,0,0,0L23,40.5l-0.6,0.1c0,0,0,0-0.1,0.1c-0.1,0.1-0.2,0.1-0.3,0.1c0,0,0,0,0,0
			c0,0-0.1,0-0.1-0.1v-0.1l-0.1-0.2c-0.1-0.3-0.2-0.5-0.3-0.6c-0.1-0.1-0.2-0.3-0.3-0.6c0-0.1,0-0.2,0.1-0.3
			c0.1-0.1,0.1-0.2,0.2-0.2l0.6-0.1c0,0,0.2-0.1,0.4-0.2c0.2-0.1,0.5-0.2,0.7-0.3l1.1-0.3c0.2-0.1,0.4-0.1,0.5-0.2
			c0.1-0.1,0.3-0.1,0.4-0.1C25.5,37.5,25.7,37.5,25.7,37.5 M25.7,37.2c-0.1,0-0.3,0-0.5,0.1c-0.1,0-0.3,0.1-0.4,0.2
			c-0.1,0.1-0.3,0.1-0.5,0.2l-1.1,0.3c-0.2,0.1-0.4,0.2-0.7,0.3c-0.2,0.1-0.3,0.2-0.4,0.2l-0.5,0.1c-0.1,0-0.3,0.1-0.4,0.4
			C21,39.1,21,39.3,21,39.4c0.1,0.3,0.2,0.6,0.4,0.7c0.1,0.1,0.1,0.2,0.2,0.4l0,0.2c0.1,0.2,0.2,0.4,0.4,0.4c0,0,0.1,0,0.1,0
			c0.1,0,0.2-0.1,0.3-0.2c0,0,0.1,0,0.1,0l0.5-0.1l0.3-0.1c0,0,0,0.1,0,0.1c0,0.2,0,0.5,0.2,1.5c0,0.1,0,0.2,0.1,0.4
			c0,0.1,0,0.3,0.1,0.4l0.1,0.4c0,0.3,0.1,0.6,0.2,1l0,0.1c0.1,0.6,0.2,1.3,0.3,1.8c0.1,0.7,0.2,1.2,0.4,1.8c0,0.2,0,0.2,0,0.3
			c-0.1,0.1-0.1,0.3,0,0.5c0.1,0.3,0.3,0.4,0.4,0.4c0,0,0,0,0.1,0.1l0.2,0.2c0,0,0.1,0.1,0.1,0.1l0.2,0l0.1,0.1c0,0,0.1,0,0.1,0
			c0,0,0,0,0,0c0,0,0,0,0,0c0.1,0,0.1,0,0.1,0c0.1,0.1,0.2,0.1,0.3,0.1c0,0,0.1,0,0.1,0c0.3-0.1,0.5-0.2,0.6-0.4
			c0.3-0.4,0.3-0.8,0.2-1c0-0.1,0-0.2,0-0.2c-0.1-0.2-0.2-0.5-0.3-0.8c-0.1-0.3-0.2-0.7-0.3-1.1c-0.1-0.4-0.2-0.8-0.3-1.2l-0.2-1
			c0-0.2-0.1-0.5-0.2-1C26,43,26,42.5,25.9,42l-0.1-0.5c0-0.3-0.1-0.6-0.1-0.8l-0.1-0.5c0-0.1,0-0.1,0-0.1c0.1,0,0.3-0.1,0.4-0.1
			l0.1,0c0,0,0,0,0.1,0h0.1c0,0,0,0,0,0c0,0,0,0,0.1,0c0.2-0.1,0.4-0.5,0.3-0.7L26.8,39c0,0,0-0.1,0-0.2v-0.1c0-0.2,0-0.3,0-0.4
			C26.7,37.8,26.4,37.2,25.7,37.2L25.7,37.2L25.7,37.2z"/>
	</g>
	<g>
		<path class="st0" d="M10.8,56.8c-0.2,0-0.3,0-0.4-0.1c-0.1-0.1-0.3-0.2-0.3-0.4c0-0.1-0.1-0.1-0.1-0.1L9.7,56
			c-0.1-0.1-0.2-0.1-0.3-0.2c-0.1-0.1-0.2-0.2-0.2-0.3c0-0.1,0.1-0.2,0.2-0.2c0-0.1,0-0.2,0-0.2c0-0.1,0-0.2,0-0.3v-0.6
			c0-0.2,0-0.4,0-0.6c0-0.7,0.1-1.3,0.1-1.9c0,0,0-1.5,0.1-1.8c0-0.6,0-1.3,0.1-2l0.2-0.2H9.7v-0.2l0,0c-0.1,0.1-0.1,0.1-0.2,0.1
			c-0.1,0.1-0.2,0.2-0.3,0.2c-0.1,0.1-0.2,0.1-0.3,0.1c0,0-0.1,0-0.3-0.2c-0.1-0.1-0.2-0.2-0.3-0.3C8.2,47.2,8.1,47,8,46.8
			c-0.1-0.2-0.1-0.4-0.1-0.6s0.2-0.4,0.6-0.6c0.4-0.2,0.8-0.4,1.3-0.6c0.5-0.2,1-0.4,1.5-0.5c0.5-0.2,1-0.2,1.3-0.2
			c0.5,0,1,0.1,1.3,0.4c0.4,0.2,0.7,0.6,0.8,1c0.1,0.1,0.1,0.3,0.2,0.3l0.1,0.1c0.1,0.1,0.1,0.2,0.2,0.4c0.2,0.5,0.4,1.3,0.4,1.6
			c0,0.3,0,0.6-0.2,1c-0.1,0.4-0.3,0.7-0.4,1c-0.1,0.2-0.3,0.5-0.5,0.7c-0.2,0.2-0.5,0.5-0.8,0.7c-0.3,0.2-0.5,0.4-0.8,0.6
			c-0.3,0.2-0.6,0.2-0.9,0.2c-0.1,0-0.1,0-0.2-0.1c-0.1,0-0.2-0.1-0.3-0.1c-0.1,0-0.1-0.1-0.2-0.1l0,0.1l0,0.8v1.6
			c0,0.2,0,0.4,0,0.5c0,0.1,0,0.2,0.1,0.2c0,0.1,0.1,0.2,0.1,0.3c0,0,0.1,0.2,0.1,0.2c0,0.2-0.1,0.4-0.3,0.6
			C11.3,56.6,11.1,56.8,10.8,56.8L10.8,56.8z M11.7,47.3c0,0.3-0.1,0.7-0.1,1.1c0,0.4-0.1,0.9-0.1,1.2l0,0.6c0,0.2,0,0.2,0,0.2
			c0.1,0,0.3-0.1,0.6-0.2c0.3-0.2,0.5-0.4,0.8-0.6c0.4-0.4,0.7-0.8,0.8-1.1c0.2-0.4,0.3-0.8,0.3-1.2c0-0.3-0.1-0.6-0.3-0.7
			c-0.2-0.2-0.4-0.2-0.6-0.2c-0.3,0-0.9,0.2-1.4,0.4c0.1,0.1,0.2,0.2,0.2,0.3c0,0.1,0,0.1-0.1,0.2C11.7,47.2,11.7,47.2,11.7,47.3
			L11.7,47.3z"/>
		<path class="st3" d="M12.6,44.4c0.5,0,0.9,0.1,1.2,0.3c0.4,0.2,0.6,0.6,0.8,1c0.1,0.3,0.1,0.2,0.3,0.5c0.1,0.1,0.1,0.2,0.2,0.3
			c0.2,0.5,0.3,1.2,0.3,1.5c0,0.3,0,0.6-0.2,1c-0.1,0.4-0.2,0.7-0.4,1c-0.1,0.2-0.3,0.5-0.5,0.7c-0.2,0.3-0.5,0.5-0.7,0.7
			c-0.3,0.2-0.5,0.4-0.8,0.6c-0.3,0.1-0.6,0.2-0.8,0.2c0,0-0.1,0-0.2-0.1c-0.1,0-0.2-0.1-0.2-0.1c-0.1-0.1-0.3-0.2-0.3-0.2
			c0,0-0.1,0-0.1,0.1c0,0.1,0,0.1,0,0.1v0.1l0,0.9v1.6c0,0.2,0,0.4,0,0.5c0,0.1,0,0.2,0.1,0.3c0,0.1,0.1,0.2,0.1,0.3
			c0,0,0,0.1,0,0.1c0,0.2-0.1,0.3-0.2,0.5c-0.2,0.2-0.3,0.3-0.4,0.3s-0.3,0-0.4-0.1c-0.1-0.1-0.2-0.2-0.3-0.3c0-0.1-0.1-0.1-0.2-0.2
			s-0.2-0.1-0.3-0.2c-0.1-0.1-0.2-0.1-0.2-0.2c-0.1-0.1-0.1-0.1-0.1-0.2c0,0,0-0.1,0.1-0.1c0-0.1,0.1-0.1,0.1-0.1c0-0.1,0-0.2,0-0.3
			c0-0.1,0-0.2,0-0.2v-0.6c0-0.2,0-0.4,0-0.7c0-0.6,0.1-1.2,0.1-1.8c0-0.6,0-1.2,0.1-1.8s0-1.3,0.1-2c0-0.1,0-0.1,0-0.2v-0.2
			c0-0.2,0-0.3-0.1-0.3c0,0,0,0-0.1,0.1c-0.1,0.1-0.2,0.1-0.3,0.2c-0.1,0.1-0.2,0.1-0.3,0.2S9,47.6,8.9,47.6c0,0-0.1,0-0.2-0.1
			c-0.1-0.1-0.2-0.2-0.3-0.3c-0.1-0.1-0.2-0.3-0.3-0.4c-0.1-0.2-0.1-0.3-0.1-0.5c0-0.1,0.2-0.3,0.5-0.5c0.4-0.2,0.8-0.4,1.3-0.6
			c0.5-0.2,1-0.4,1.5-0.5C11.9,44.4,12.3,44.4,12.6,44.4 M11.7,47C11.7,47,11.6,46.9,11.7,47c-0.1,0-0.1,0.1-0.1,0.3
			c0,0.3-0.1,0.7-0.1,1.1c0,0.4-0.1,0.9-0.1,1.2c0,0.4,0,0.6,0,0.6c0,0.2,0.1,0.3,0.2,0.3c0.2,0,0.4-0.1,0.7-0.3
			c0.3-0.2,0.5-0.4,0.8-0.6c0.4-0.4,0.7-0.8,0.9-1.2c0.2-0.4,0.3-0.8,0.3-1.3c0-0.4-0.1-0.7-0.3-0.9C13.5,46.1,13.3,46,13,46
			c-0.3,0-0.9,0.2-1.7,0.6C11.5,46.7,11.7,46.9,11.7,47 M12.6,44.1c-0.4,0-0.9,0.1-1.4,0.2c-0.6,0.2-1.1,0.4-1.5,0.5
			c-0.4,0.2-0.9,0.4-1.3,0.6C8,45.8,7.7,46,7.7,46.3c0,0.2,0,0.4,0.2,0.6c0.1,0.1,0.2,0.3,0.3,0.5c0.1,0.2,0.2,0.3,0.3,0.4
			C8.7,48,8.8,48,8.8,48c0.1,0,0.2-0.1,0.4-0.1c0.1,0,0.2-0.1,0.3-0.2l0.1-0.1c0,0,0,0.1,0,0.1c0,0.7-0.1,1.4-0.1,2c0,0.3,0,0.7,0,1
			c0,0.3,0,0.6,0,0.8c0,0.6,0,1.2-0.1,1.8v0.1c0,0.2,0,0.4,0,0.6v0.6c0,0.1,0,0.2,0,0.3c0,0,0,0.1,0,0.1c-0.1,0.1-0.2,0.2-0.2,0.3
			c0,0.2,0.1,0.4,0.2,0.5c0.1,0.1,0.2,0.2,0.3,0.2c0,0,0.1,0,0.1,0.1l0.1,0.1c0,0,0,0.1,0.1,0.1c0.1,0.2,0.2,0.3,0.4,0.5
			c0.2,0.1,0.3,0.2,0.5,0.2c0.2,0,0.4-0.1,0.7-0.4c0.2-0.2,0.3-0.5,0.3-0.8c0-0.1,0-0.2-0.1-0.4c0-0.1-0.1-0.1-0.1-0.2
			c0-0.1,0-0.1-0.1-0.2c0-0.1,0-0.3,0-0.4v-1.6l0-0.7c0.1,0.1,0.2,0.1,0.3,0.1c0,0,0.1,0.1,0.2,0.1c0.3,0,0.6-0.1,0.9-0.2
			c0.3-0.2,0.6-0.4,0.9-0.6c0.3-0.2,0.5-0.5,0.8-0.7c0.3-0.3,0.4-0.6,0.6-0.8c0.1-0.3,0.3-0.6,0.4-1.1c0.1-0.4,0.2-0.7,0.2-1.1
			c0-0.4-0.2-1.2-0.4-1.6c-0.1-0.2-0.2-0.4-0.3-0.5L15,45.9c-0.1-0.1-0.1-0.1-0.1-0.2c-0.2-0.5-0.5-0.9-0.9-1.2
			C13.6,44.2,13.1,44.1,12.6,44.1L12.6,44.1L12.6,44.1z M11.9,46.7c0.6-0.2,1-0.3,1.2-0.3c0.2,0,0.4,0.1,0.6,0.2
			c0.1,0.1,0.2,0.2,0.2,0.6c0,0.4-0.1,0.8-0.2,1.1c-0.1,0.3-0.4,0.7-0.8,1.1c-0.2,0.2-0.5,0.4-0.7,0.6c-0.2,0.1-0.3,0.2-0.4,0.2
			c0-0.1,0-0.3,0-0.6c0-0.4,0-0.8,0.1-1.2c0-0.4,0.1-0.8,0.1-1.1c0,0,0-0.1,0-0.1c0.1-0.1,0.1-0.2,0.1-0.2S12,46.8,11.9,46.7
			L11.9,46.7L11.9,46.7z"/>
	</g>
	<g>
		<path class="st0" d="M20,55c-0.1,0-0.1,0-0.2-0.1c0,0-0.1,0-0.2,0c-0.1,0-0.1,0-0.2,0c-0.2,0-0.4,0-0.5,0c0,0-0.4-0.1-0.4-0.1
			c-0.2-0.1-0.4-0.1-0.6-0.2c-0.2-0.1-0.4-0.2-0.5-0.2l-0.2-0.1c-0.3-0.1-0.5-0.2-0.6-0.2c-0.1,0-0.2-0.1-0.3-0.2
			c-0.1-0.2-0.1-0.4,0-0.9c0-0.3,0.1-0.7,0.2-1.2s0.2-1,0.3-1.7l0.3-1.6l0.2-0.8l0.2-0.9l0.2-1.1c0-0.2,0.1-0.4,0.1-0.6
			c0-0.2,0.1-0.3,0.1-0.5l0-0.4c0,0-0.2,0-0.2,0c-0.1,0-0.1,0-0.2,0c-0.1,0-0.2-0.1-0.3-0.2c0,0,0-0.2,0-0.2c0-0.1,0.1-0.2,0.2-0.3
			l0,0c0,0,0-0.1,0-0.3c0-0.2-0.1-0.4,0-0.5l0.1-0.4c0-0.2,0.1-0.4,0.1-0.4s0.2-0.2,0.2-0.2c0.2,0,0.4,0.1,0.5,0.2
			c0.1,0.1,0.2,0.1,0.3,0.1c0.3,0.1,0.9,0.2,1.5,0.2c0.5,0,1,0.1,1,0.1c0,0,0.1,0,0.1,0c0.1,0,0.3,0.1,0.4,0.1
			c0.5,0.1,0.8,0.2,0.8,0.5c0,0.2,0,0.3,0,0.5c0,0,0,0.1,0,0.2c0,0.1,0,0.2,0,0.3c0,0,0,0.2,0,0.2c0,0.1,0,0.1,0,0.1c0,0,0,0,0,0.1
			c0,0.1,0,0.3,0,0.4c0,0.1,0,0.2-0.1,0.2c0,0.1-0.1,0.1-0.2,0.2l-0.2,0.1c0,0,0,0-0.1,0c0,0-0.1,0-0.1-0.1C21.5,45,21.5,45,21.5,45
			s-0.1,0-0.2-0.1c-0.2-0.1-0.5-0.1-0.7-0.2c0,0-0.1,0-0.1,0c-0.1,0-0.2,0-0.3,0c-0.1,0-0.2,0-0.3,0c-0.1,0-0.2,0-0.2,0
			c0,0.2-0.1,0.3-0.2,0.6c-0.1,0.3-0.2,0.7-0.2,1c0,0.2-0.2,0.9-0.2,0.9c0.2,0.1,0.5,0.1,0.8,0.1l0.6,0c0.3,0,0.4,0.1,0.5,0.1
			c0.1,0,0.4,0.2,0.3,0.7c0,0.1,0,0.2-0.1,0.3c-0.1,0.2-0.1,0.3-0.1,0.3c0,0.1,0,0.2,0,0.3c0,0.2,0,0.4,0,0.5
			C21.1,50,20.9,50,20.8,50c-0.1,0-0.1,0-0.3-0.2c-0.1-0.1-0.2-0.1-0.3-0.1c-0.1,0-0.1,0-0.2,0c-0.1,0-0.2,0-0.3,0
			c-0.1,0-0.2,0-0.3,0c-0.1,0-0.1,0-0.2,0l-0.5-0.2c0.1,0,0,0.3-0.1,0.5l-0.1,1l-0.1,0.7c0,0.2-0.1,0.3-0.1,0.4c0,0,0.5,0.1,0.5,0.1
			c0.3,0.1,0.5,0.2,0.7,0.2c0.1,0,0.1,0.1,0.1,0.1c0,0,0.1,0,0.2,0c0,0,0.1,0,0.1,0c0.2,0,0.4,0,0.6,0.1c0.2,0,0.3,0.2,0.2,0.3
			c0,0.1,0,0.1,0,0.2l0,0.1c0,0.1,0,0.2-0.1,0.3c0,0.2-0.1,0.4-0.1,0.5c0.1,0.2,0.1,0.3,0,0.4c0,0.1-0.1,0.2-0.2,0.3
			C20.2,55,20.1,55,20,55C20.1,55,20,55,20,55L20,55z"/>
		<path class="st3" d="M17.7,42C17.7,42,17.8,42,17.7,42c0.2,0,0.3,0.1,0.4,0.2c0.1,0.1,0.2,0.1,0.4,0.2c0.4,0.1,1,0.2,1.5,0.2
			c0.5,0,1,0.1,1,0.1c0,0,0.4,0.1,0.5,0.2c0.4,0.1,0.7,0.2,0.7,0.3c0,0.1,0,0.2,0,0.4c0,0.1,0,0.3,0,0.4c0,0.1,0,0.1-0.1,0.2
			c0,0.1-0.1,0.1-0.1,0.1c0,0,0,0,0,0.1c0,0.1,0,0.2,0,0.3c0,0.1,0,0.2-0.1,0.2c0,0.1-0.1,0.1-0.2,0.2l-0.2,0.1
			c-0.1-0.2-0.2-0.2-0.2-0.3c0,0-0.1-0.1-0.3-0.1c0,0-0.4-0.1-0.7-0.2c0,0-0.1,0-0.1,0c-0.1,0-0.2,0-0.3,0c-0.1,0-0.2,0-0.3,0
			c-0.1,0-0.2,0-0.3,0c-0.1,0.2-0.1,0.4-0.2,0.7c-0.1,0.3-0.2,0.7-0.2,1C19,46.6,19,46.8,18.9,47c0,0.1,0,0.2,0,0.2c0,0,0,0,0,0l0,0
			l0,0v0.1l0,0l0,0c0,0,0,0,0,0c0,0.1,0,0.2,0.2,0.2c0.2,0,0.8,0.1,1.4,0.1c0.2,0,0.4,0,0.5,0.1c0.2,0,0.2,0.2,0.2,0.5
			c0,0,0,0.1-0.1,0.3c-0.1,0.2-0.1,0.3-0.1,0.4c0,0.2,0,0.6,0,0.9c0,0.2-0.1,0.2-0.2,0.2c0,0,0,0,0,0c0,0-0.1-0.1-0.2-0.2
			c-0.1-0.1-0.2-0.1-0.4-0.2c-0.1,0-0.1,0-0.2,0c-0.1,0-0.2,0-0.3,0c-0.1,0-0.2,0-0.3,0c-0.1,0-0.1,0-0.2,0l-0.1,0l-0.4-0.1l0,0
			c-0.1,0-0.2,0.3-0.3,0.6l-0.1,1L18,51.7c0,0.2-0.1,0.4-0.1,0.6c0,0,0.1,0,0.2,0.1l0.4,0.1c0.5,0.1,0.7,0.3,0.8,0.3
			c0.1,0,0.1,0,0.3,0c0,0,0.1,0,0.2,0c0.2,0,0.4,0,0.6,0.1c0.1,0,0.1,0.1,0.1,0.2c0,0.1,0,0.1,0,0.2l0,0.1c-0.1,0.3-0.2,0.6-0.2,0.9
			c0,0,0,0.1,0,0.2s0,0.2,0,0.2c0,0.1,0,0.1-0.1,0.2c-0.1,0-0.1,0.1-0.2,0.1c0,0,0,0,0,0c-0.1,0-0.1,0-0.2-0.1l-0.2,0c0,0,0,0-0.1,0
			c0,0-0.1,0-0.2,0c-0.2,0-0.4,0-0.5,0c-0.1,0-0.2-0.1-0.4-0.1c-0.2-0.1-0.4-0.1-0.6-0.2c-0.2-0.1-0.4-0.2-0.5-0.2
			c-0.2-0.1-0.3-0.1-0.3-0.1c-0.3-0.1-0.5-0.2-0.6-0.2c-0.1,0-0.2-0.1-0.2-0.2c-0.1-0.1-0.1-0.4,0-0.8c0-0.3,0.1-0.7,0.2-1.2
			s0.2-1,0.3-1.7l0.3-1.6l0.2-0.8l0.2-0.9l0.2-1.1c0-0.2,0.1-0.4,0.1-0.6c0-0.2,0.1-0.3,0.1-0.5c0-0.2,0-0.3,0-0.4l0,0
			c0-0.1-0.1-0.1-0.1-0.1l-0.2,0l0,0c-0.1,0-0.2,0-0.2,0c-0.1,0-0.2-0.1-0.2-0.2c0-0.1,0.2-0.3,0.2-0.3c0-0.1,0-0.2-0.1-0.4
			c0-0.2-0.1-0.3,0-0.4v0l0.1-0.3c0-0.2,0.1-0.3,0.1-0.4C17.6,42,17.6,42,17.7,42 M17.7,41.6c-0.2,0-0.3,0.1-0.4,0.3
			c0,0.1-0.1,0.2-0.1,0.4l-0.1,0.3c0,0.3,0,0.5,0,0.6c0,0.1,0,0.1,0,0.2c-0.1,0.1-0.2,0.2-0.2,0.3c0,0.2,0,0.3,0.1,0.4
			c0.1,0.1,0.2,0.1,0.3,0.1c0.1,0,0.2,0,0.3,0v0.2c0,0.1,0,0.3-0.1,0.5c0,0.2-0.1,0.4-0.1,0.6l-0.2,1.1l-0.2,0.9l-0.2,0.8L16.6,50
			c-0.1,0.7-0.2,1.2-0.3,1.7c-0.1,0.5-0.2,0.9-0.2,1.2c-0.1,0.5-0.1,0.8,0.1,1c0,0.1,0.2,0.2,0.3,0.3c0.1,0,0.3,0.1,0.6,0.2
			c0.1,0,0.1,0.1,0.3,0.1c0.1,0.1,0.3,0.1,0.5,0.2c0.2,0.1,0.4,0.2,0.6,0.2l0.2,0.1c0.1,0,0.2,0.1,0.2,0.1c0.1,0,0.3,0,0.5,0.1
			c0.1,0,0.2,0,0.2,0l0.2,0c0.1,0,0.1,0,0.2,0.1c0,0,0.1,0,0.1,0c0.1,0,0.2,0,0.3-0.1c0.2-0.1,0.3-0.2,0.3-0.4c0-0.1,0-0.3,0-0.4
			l0-0.1c0-0.2,0.1-0.3,0.1-0.5c0-0.1,0.1-0.2,0.1-0.4l0-0.1c0-0.1,0-0.2,0-0.3c0-0.2-0.1-0.4-0.4-0.5c-0.2,0-0.4-0.1-0.6-0.1
			c-0.1,0-0.1,0-0.2,0c-0.1,0-0.1,0-0.2,0c0,0-0.1,0-0.1,0c-0.2-0.1-0.4-0.2-0.7-0.2l-0.3-0.1c0-0.1,0-0.2,0-0.2l0.1-0.7l0.1-1
			c0-0.1,0-0.2,0.1-0.3l0.2,0.1l0.1,0c0.1,0,0.2,0,0.2,0c0.1,0,0.2,0,0.3,0c0.1,0,0.2,0,0.3,0c0.1,0,0.1,0,0.2,0
			c0.1,0,0.2,0.1,0.3,0.1c0.2,0.2,0.2,0.2,0.3,0.2c0,0,0.1,0,0.1,0c0.2,0,0.4-0.1,0.5-0.5c0-0.2,0-0.4,0-0.6c0-0.1,0-0.2,0-0.3
			c0,0,0-0.1,0.1-0.3c0-0.1,0.1-0.3,0.1-0.3c0-0.2,0-0.4,0-0.6c-0.1-0.2-0.2-0.3-0.4-0.4c-0.1,0-0.3,0-0.5-0.1h-0.1
			c-0.2,0-0.4,0-0.6-0.1c-0.3,0-0.5,0-0.7-0.1l0-0.2c0-0.2,0.1-0.3,0.1-0.6c0.1-0.3,0.1-0.6,0.2-1c0-0.2,0.1-0.3,0.1-0.5
			c0,0,0.1,0,0.1,0c0.1,0,0.2,0,0.3,0c0.1,0,0.2,0,0.3,0c0,0,0.1,0,0.1,0c0.2,0,0.4,0.1,0.6,0.2c0.1,0,0.1,0,0.1,0
			c0.1,0,0.1,0,0.1,0c0,0,0,0.1,0.1,0.2c0.1,0.1,0.1,0.1,0.2,0.1c0.1,0,0.1,0,0.2-0.1l0.2-0.1c0.1-0.1,0.2-0.2,0.3-0.3
			c0,0,0.1-0.2,0.1-0.3s0-0.3,0-0.4c0,0,0,0,0,0c0-0.1,0.1-0.2,0.1-0.2c0-0.1,0-0.2,0-0.3c0-0.1,0-0.1,0-0.1c0-0.2,0-0.3,0-0.4
			c0,0,0-0.1,0-0.1c-0.1-0.3-0.5-0.5-1-0.6c-0.1,0-0.3-0.1-0.4-0.1c-0.1,0-0.1,0-0.2,0c-0.1,0-0.7-0.1-1.1-0.1
			c-0.5,0-1.1-0.1-1.5-0.2c-0.1,0-0.2-0.1-0.2-0.1C18.1,41.7,18,41.7,17.7,41.6C17.8,41.6,17.7,41.6,17.7,41.6L17.7,41.6L17.7,41.6z
			"/>
	</g>
	<g>
		<path class="st0" d="M28.6,41.6c-0.3,0-0.6-0.2-1-0.5L27.5,41c0,0-0.1-0.1-0.1-0.2c-0.1-0.2-0.1-0.2-0.1-0.3l0-0.1
			c0-0.1,0-0.2,0-0.3c0-0.1,0-0.4,0.1-0.5c0.1,0,0.3,0.1,0.3,0.2L28,40c0.3,0.2,0.4,0.2,0.4,0.3c0,0,0-0.1,0.1-0.1
			c0.2-0.1,0.3-0.3,0.4-0.6c0-0.3,0-0.7,0-1c-0.3,0-0.5-0.1-0.8-0.3c-0.3-0.2-0.5-0.5-0.6-0.9c0-0.1,0-0.2-0.1-0.3l0-0.2
			c-0.1-0.4-0.1-0.7,0-1.1c0.1-0.4,0.3-0.7,0.7-0.9c0.1-0.1,0.3-0.2,0.4-0.2c0.1,0,0.2-0.1,0.3-0.1c0,0,0,0,0,0c0.2,0,0.4,0,0.5,0.1
			c0.1,0.1,0.3,0.1,0.4,0.2l0,0c0-0.4,0-0.7,0.2-0.9c0.2-0.2,0.3-0.3,0.4-0.4l0.1-0.1l0.1-0.1c0.2-0.1,0.3-0.1,0.4-0.1
			c0.1,0,0.1,0,0.2,0c0.2,0,0.4,0.2,0.4,0.4l0,0.2c-0.1,0.2-0.1,0.4-0.1,0.5c0,0.3,0,0.8,0.2,1.7c0.1,0.4,0.2,1,0.3,1.6l0.2,0.7
			c0,0.1,0,0.2,0,0.3c0,0.2,0,0.3,0.1,0.5c0,0.4-0.2,0.8-0.3,0.9c-0.2,0.3-0.3,0.5-0.3,0.5c-0.1,0.1-0.2,0.1-0.2,0.1
			c-0.1,0-0.1,0-0.2,0c-0.3,0-0.3,0-0.4-0.2c-0.1-0.3-0.1-0.5,0-0.6c0-0.1,0-0.2,0-0.3L30.8,39c-0.1-0.3-0.1-0.6-0.1-0.8
			c0,0-0.1,0-0.1,0s-0.1,0-0.1,0c0.1,0.2,0.1,0.4,0.1,0.6c0,0.3,0,0.5,0,0.8c0,0.3-0.1,0.6-0.3,0.9c-0.2,0.3-0.3,0.5-0.4,0.6
			c-0.1,0.1-0.2,0.2-0.4,0.3c0,0-0.1,0.1-0.2,0.1c-0.2,0.1-0.4,0.1-0.6,0.1L28.6,41.6L28.6,41.6z M29.2,35.8
			c-0.1,0.1-0.2,0.2-0.1,0.4c0.1,0.3,0.1,0.4,0.3,0.6c0.2,0.2,0.3,0.3,0.5,0.4c0.1,0.1,0.2,0.1,0.2,0.1c0,0,0.1,0,0.2,0
			c0.1,0,0.1-0.1,0.1-0.2c-0.2-0.5-0.5-0.9-0.9-1.2C29.4,35.8,29.3,35.7,29.2,35.8l0-0.2C29.3,35.6,29.2,35.8,29.2,35.8z"/>
		<path class="st3" d="M31.1,33.5c0.1,0,0.1,0,0.2,0c0.1,0,0.3,0.2,0.3,0.3v0.1l0,0.2c0,0.1-0.1,0.3-0.1,0.5c0,0.4,0,0.9,0.2,1.8
			c0.1,0.4,0.2,1,0.3,1.6l0.2,0.7c0,0.2,0,0.3,0.1,0.4c0,0.1,0,0.2,0.1,0.4c0,0.2-0.1,0.5-0.3,0.8c-0.2,0.3-0.3,0.5-0.3,0.5h0
			c0,0-0.1,0-0.1,0s-0.1,0-0.2,0c-0.2,0-0.3,0-0.3,0c-0.1-0.2-0.1-0.4,0-0.5c0-0.1,0-0.2,0-0.4L31,39c-0.1-0.3-0.1-0.6-0.1-0.7v-0.1
			c0-0.1-0.1-0.1-0.2-0.1c0,0,0,0-0.1,0l-0.1,0c0,0,0,0,0,0c0,0,0,0,0,0c-0.1,0-0.1,0.1-0.1,0.2c0,0.2,0,0.4,0,0.6
			c0,0.2,0,0.5,0,0.8c0,0.3-0.1,0.6-0.2,0.8c-0.2,0.3-0.3,0.4-0.3,0.5c-0.1,0.1-0.2,0.2-0.3,0.2c-0.1,0-0.1,0.1-0.2,0.1
			c-0.1,0.1-0.3,0.1-0.5,0.1c0,0-0.1,0-0.1,0c-0.3,0-0.6-0.2-0.9-0.4c-0.2-0.2-0.2-0.1-0.2-0.2l0-0.1c0-0.1,0-0.1-0.1-0.2l0-0.2
			c0-0.1,0-0.2,0-0.2c0-0.2,0-0.3,0-0.3h0l0,0c0,0,0,0,0,0.1v0c0,0,0.1,0.1,0.2,0.2l0.3,0.1c0.2,0.1,0.3,0.2,0.4,0.2c0,0,0,0,0,0
			c0,0,0,0,0,0c0,0,0.1-0.1,0.2-0.1c0.2-0.1,0.4-0.4,0.4-0.8c0-0.3,0.1-0.8,0-1.2c0,0,0,0,0,0c-0.3,0-0.5-0.1-0.8-0.3
			c-0.2-0.2-0.4-0.5-0.5-0.8c0-0.1,0-0.2-0.1-0.3l0-0.2c-0.1-0.3,0-0.7,0-1c0.1-0.3,0.3-0.6,0.6-0.8c0.1-0.1,0.2-0.1,0.4-0.2
			c0.1,0,0.2,0,0.3-0.1c0,0,0,0,0.1,0c0.1,0,0.3,0,0.4,0.1c0.1,0.1,0.3,0.1,0.4,0.2c0.1,0.1,0.3,0.2,0.4,0.3l-0.2-0.5
			c0-0.3,0-0.6,0.2-0.7c0.1-0.2,0.3-0.3,0.4-0.3l0.1-0.1l0.1-0.1h0.1C30.9,33.5,31,33.5,31.1,33.5 M30.1,37.4c0.1,0,0.1,0,0.2,0
			c0,0,0.1,0,0.1-0.1c0.1-0.1,0.1-0.2,0.1-0.3l0-0.1c-0.2-0.4-0.5-0.9-0.9-1.2c-0.1-0.1-0.2-0.1-0.3-0.1c0,0-0.1,0-0.1,0
			c0,0-0.1,0-0.1,0.1C29,35.8,28.9,36,29,36.2l0,0.1c0,0.2,0.1,0.4,0.3,0.5c0.2,0.2,0.3,0.4,0.6,0.5C29.9,37.4,30,37.4,30.1,37.4
			 M31.1,33.1c-0.1,0-0.3,0-0.4,0.1c0,0-0.1,0-0.1,0l-0.1,0.1l-0.1,0c-0.1,0-0.2,0.1-0.5,0.4c-0.1,0.1-0.2,0.3-0.2,0.7
			c-0.1,0-0.1-0.1-0.2-0.1c-0.1-0.1-0.3-0.1-0.5-0.1h-0.1c-0.1,0-0.2,0-0.3,0.1c-0.1,0-0.3,0.1-0.4,0.2c-0.4,0.2-0.6,0.6-0.7,1
			c-0.1,0.4-0.1,0.8,0,1.2l0,0.2c0,0.1,0,0.2,0.1,0.3c0.1,0.5,0.3,0.8,0.6,1c0.2,0.2,0.5,0.3,0.7,0.3c0,0.3,0,0.6,0,0.9
			c0,0.3-0.2,0.4-0.3,0.5c0,0,0,0-0.1,0c-0.1,0-0.2-0.1-0.3-0.2l-0.3-0.2c0,0,0,0,0,0l0,0c-0.1-0.2-0.2-0.3-0.3-0.3c0,0-0.1,0-0.1,0
			c0,0-0.1,0-0.1,0c-0.2,0.2-0.2,0.5-0.2,0.7c0,0.1,0,0.2,0,0.3l0,0.1c0,0.1,0,0.2,0.1,0.3l0,0c0,0.2,0.1,0.2,0.2,0.3l0.1,0.1
			c0.4,0.3,0.7,0.5,1.1,0.5h0.1c0.2,0,0.4,0,0.6-0.1c0.1,0,0.2-0.1,0.3-0.1c0.1-0.1,0.3-0.2,0.4-0.3c0.1-0.1,0.2-0.3,0.4-0.6
			c0.2-0.3,0.3-0.6,0.3-1c0-0.2,0-0.4,0-0.6l0.2,0.8c0,0.1,0,0.2,0,0.2c-0.1,0.2,0,0.5,0,0.7c0.1,0.2,0.2,0.2,0.4,0.3h0.1
			c0.1,0,0.2,0,0.2,0c0.1,0,0.1,0,0.2,0c0,0,0.1-0.1,0.2-0.1c0,0,0.2-0.2,0.4-0.5c0.1-0.2,0.3-0.6,0.3-1c0,0,0-0.1,0-0.1
			c0-0.1,0-0.2-0.1-0.3v-0.1c0-0.1,0-0.2-0.1-0.3l-0.2-0.7c-0.2-0.7-0.3-1.2-0.3-1.6c-0.1-0.6-0.2-1.3-0.2-1.7c0-0.1,0-0.2,0.1-0.4
			c0-0.1,0-0.1,0-0.2l0-0.2c0,0,0-0.1,0-0.1c-0.1-0.3-0.3-0.5-0.5-0.6C31.2,33.1,31.2,33.1,31.1,33.1L31.1,33.1L31.1,33.1z
			 M30.1,37.1c0,0-0.1,0-0.1,0c-0.2-0.1-0.3-0.2-0.5-0.4c-0.1-0.1-0.2-0.3-0.2-0.4l0-0.1c0-0.1,0-0.2,0-0.2c0,0,0,0,0.1,0.1
			C29.7,36.2,30,36.6,30.1,37.1L30.1,37.1C30.2,37,30.1,37,30.1,37.1L30.1,37.1L30.1,37.1z"/>
	</g>
	<g>
		<path class="st0" d="M59.9,58.4c-0.2,0-0.3,0-0.5,0c-0.2,0-0.4,0-0.6,0h-0.6c-0.2,0-0.2,0-0.3,0c-0.2,0-0.3-0.1-0.4-0.2
			c-0.2-0.1-0.3-0.4-0.3-0.9c0-0.3,0-0.6-0.1-1l-0.1-1.5l0-1.4v-0.7l0-0.8l0-1c0-0.2,0-0.3,0-0.5c0-0.2,0-0.3,0-0.4
			c-0.1,0-0.2,0-0.2,0c-0.4,0-0.6-0.2-0.6-0.5c0-0.1,0-0.2,0.1-0.3c-0.1-0.2-0.2-0.4-0.2-0.6v-0.3c0-0.3,0-0.4,0-0.5
			c0-0.1,0.1-0.4,0.5-0.4c0,0,0.1,0,0.2,0c0.1,0,0.2,0,0.3,0c0,0,0.1,0,0.1,0c0.4,0,1.1-0.1,1.6-0.3c0.4-0.1,1-0.2,1.1-0.2
			c0,0,0.2,0,0.2,0c0.1,0,0.3,0,0.4,0c0.2,0,0.3,0,0.4,0c0.4,0,0.6,0.1,0.7,0.2c0,0,0.1,0.1,0.1,0.2c0,0.1,0,0.2,0.1,0.4
			c0.1,0.3,0.1,0.3,0.1,0.4c0,0.1,0,0.2,0,0.2c0.1,0.1,0.1,0.2,0.1,0.3c0,0.1,0,0.3,0,0.4c0,0.1-0.1,0.2-0.2,0.4l-0.1,0.1
			c-0.1,0.1-0.2,0.1-0.3,0.1c-0.1,0-0.1,0-0.2-0.1c-0.1-0.1-0.2-0.1-0.2-0.1l-0.2,0c-0.2,0-0.4,0-0.6,0c0,0-0.1,0-0.3,0.1
			c-0.1,0.1-0.2,0.1-0.4,0.1c0,0.1,0,0.2,0,0.3c0,0.3,0,0.6,0,0.8v0.5c0.1,0,1.2-0.3,1.2-0.3c0.3,0,0.4-0.1,0.6-0.1l0,0
			c0.2,0,0.6,0.1,0.7,0.8c0,0.1,0,0.2,0,0.4c0,0.2,0,0.2,0,0.2c0,0,0,0.1,0,0.2c0,0.2,0.1,0.3,0.1,0.5c0,0.4-0.2,0.7-0.5,0.7l0,0
			c-0.1,0-0.2,0-0.4-0.1c0,0-0.1,0-0.2,0c-0.2,0-0.3,0.1-0.5,0.1c-0.2,0.1-0.4,0.2-0.6,0.2h-0.3c0,0,0,0.1,0,0.1l0.1,1.5l0.2,0
			c0.1,0,0.3,0,0.4,0c0.1,0,0.3,0,0.4,0l0,0c0.2,0,0.3,0,0.4-0.1c0.2-0.1,0.4-0.1,0.6-0.1l0,0c0.3,0,0.5,0.2,0.6,0.4
			c0,0.1,0,0.2,0,0.2c0,0.2,0,0.3,0,0.5c0,0.1,0,0.2,0,0.4c0.1,0.1,0.1,0.2,0.1,0.4c0,0.2,0,0.4-0.2,0.5c-0.1,0.1-0.3,0.2-0.4,0.2
			c0,0-0.4,0-0.4,0s-0.1,0-0.2,0.1c-0.2,0.1-0.4,0.1-0.5,0.1C60.4,58.3,59.9,58.3,59.9,58.4L59.9,58.4L59.9,58.4z"/>
		<path class="st3" d="M60.7,47.2c0.3,0,0.5,0.1,0.6,0.2c0,0,0,0.1,0,0.1c0,0.1,0,0.2,0.1,0.4c0,0,0,0,0,0.1c0,0.1,0,0.2,0.1,0.3
			c0,0.1,0,0.1,0,0.2c0,0,0,0,0,0.1c0.1,0.1,0.1,0.2,0.1,0.3c0,0.1,0,0.2,0,0.3c0,0.1-0.1,0.2-0.2,0.3l-0.1,0.1c0,0-0.1,0.1-0.2,0.1
			c0,0-0.1,0-0.1,0c-0.1-0.1-0.2-0.1-0.2-0.1c0,0,0,0-0.1,0s-0.1,0-0.1,0c0,0,0,0-0.1,0c-0.1,0-0.4,0-0.6,0c0,0-0.1,0-0.4,0.1
			c-0.2,0.1-0.3,0.1-0.5,0.1c0,0.1,0,0.2,0,0.4c0,0.3,0,0.6,0,0.8c0,0.2,0,0.4,0,0.5v0.2c0,0,0,0,0,0c0.1,0,0.4-0.1,0.7-0.2
			c0.2,0,0.4-0.1,0.6-0.1h0.1c0.2,0,0.3-0.1,0.5-0.1h0c0.1,0,0.4,0.1,0.5,0.6c0,0.1,0,0.2,0,0.3c0,0.2,0,0.2,0,0.2
			c0,0,0,0.2,0.1,0.2c0,0.2,0.1,0.3,0.1,0.5c0,0.3-0.1,0.5-0.4,0.5c0,0,0,0,0,0c0,0-0.1,0-0.3-0.1c-0.1,0-0.2,0-0.2,0
			c0,0-0.1,0-0.1,0c-0.1,0-0.3,0.1-0.4,0.1c-0.2,0.1-0.4,0.1-0.5,0.2h-0.1l-0.3,0c0,0.1,0,0.2,0,0.3l0.1,1.4c0,0.1,0,0.2,0,0.2
			l0.4,0c0.1,0,0.3,0,0.4,0c0.1,0,0.3,0,0.4,0c0,0,0.1,0,0.1,0c0.1,0,0.2,0,0.4-0.1c0.2-0.1,0.4-0.1,0.6-0.1c0,0,0,0,0,0
			c0.2,0,0.3,0.1,0.4,0.3c0,0.1,0,0.1,0,0.2v0.1c0,0.1,0,0.2,0,0.3c0,0.1,0,0.3,0,0.4c0,0,0,0,0,0l0,0c0.1,0.1,0.1,0.2,0.1,0.3
			c0,0.2,0,0.3-0.1,0.4c-0.1,0.1-0.2,0.2-0.4,0.2c0,0-0.1,0-0.1,0c0,0,0,0-0.1,0h-0.1c0,0-0.1,0-0.3,0.1c-0.2,0.1-0.4,0.1-0.5,0.1
			c0,0-0.1,0-0.2,0h-0.3c-0.2,0-0.3,0-0.5,0c-0.2,0-0.4,0-0.6,0h-0.1c-0.1,0-0.1,0-0.2,0c-0.1,0-0.2,0-0.3,0c-0.2,0-0.2,0-0.3,0
			c-0.2,0-0.3-0.1-0.4-0.1c-0.1-0.1-0.2-0.4-0.3-0.8c0-0.3,0-0.6-0.1-1c0-0.4,0-0.9-0.1-1.5l0-1.4v-0.7l0-0.8l0-1c0-0.2,0-0.4,0-0.5
			c0-0.1,0-0.3,0-0.4c0-0.1,0-0.1,0-0.2h-0.1c-0.1,0-0.2,0-0.2,0c0,0,0,0-0.1,0c-0.3,0-0.4-0.2-0.4-0.3c0-0.1,0-0.2,0.1-0.3
			c0,0,0-0.1-0.1-0.1c-0.1-0.1-0.2-0.3-0.2-0.5v0v-0.3c0-0.3,0-0.4,0-0.4c0-0.1,0.1-0.3,0.4-0.3c0,0,0.1,0,0.1,0c0.1,0,0.2,0,0.3,0
			c0.1,0,0.1,0,0.2,0c0,0,0.1,0,0.1,0c0.3,0,1-0.1,1.5-0.3c0.4-0.1,1-0.2,1-0.2c0,0,0.1,0,0.2,0c0.1,0,0.3,0,0.4,0
			C60.4,47.2,60.6,47.1,60.7,47.2 M60.7,46.8L60.7,46.8c-0.1,0-0.3,0-0.4,0c-0.1,0-0.3,0-0.4,0c-0.1,0-0.1,0-0.2,0
			c-0.1,0-1,0.2-1.1,0.2c-0.5,0.1-1.1,0.2-1.5,0.2c0,0-0.1,0-0.1,0c0,0-0.1,0-0.1,0c-0.1,0-0.3-0.1-0.4-0.1c-0.1,0-0.1,0-0.2,0
			c-0.4,0-0.6,0.3-0.6,0.6c0,0.1,0,0.2,0,0.5v0.3c0,0,0,0.1,0,0.1c0,0.2,0.1,0.4,0.2,0.6c0,0.1,0,0.2,0,0.3c0,0.3,0.2,0.6,0.7,0.6
			c0,0,0.1,0,0.1,0c0,0,0,0,0,0c0,0.1,0,0.1,0,0.2c0,0.2,0,0.3,0,0.5l0,1l0,0.8v0.7l0,1.4c0,0.6,0,1,0.1,1.5c0,0.4,0,0.7,0.1,1
			c0,0.3,0.1,0.8,0.4,1c0.1,0.1,0.3,0.2,0.5,0.2c0.1,0,0.2,0,0.3,0c0.1,0,0.2,0,0.3,0h0.2h0.1c0.1,0,0.3,0,0.6,0c0.2,0,0.4,0,0.5,0
			h0.3c0.1,0,0.2,0,0.2,0c0.1,0,0.3-0.1,0.6-0.1c0.1-0.1,0.2-0.1,0.3-0.1h0.1c0,0,0,0,0,0c0,0,0.1,0,0.2,0c0.2,0,0.4-0.1,0.5-0.2
			c0.2-0.2,0.3-0.4,0.3-0.7c0-0.2-0.1-0.3-0.1-0.5c0-0.1,0-0.2,0-0.2c0-0.1,0-0.2,0-0.4v-0.1c0-0.1,0-0.2-0.1-0.3
			c-0.1-0.3-0.3-0.5-0.6-0.5c0,0-0.1,0-0.1,0c-0.2,0-0.4,0.1-0.7,0.1c-0.2,0.1-0.3,0.1-0.3,0.1c0,0,0,0-0.1,0c-0.1,0-0.2,0-0.4,0
			c-0.1,0-0.2,0-0.4,0h-0.1l-0.1-1.3l0,0h0.1c0.2,0,0.4-0.1,0.6-0.2c0.1-0.1,0.2-0.1,0.4-0.1h0.1c0.1,0,0.1,0,0.2,0
			c0.2,0.1,0.3,0.1,0.4,0.1c0.5,0,0.8-0.4,0.7-0.9c0-0.2-0.1-0.4-0.1-0.6c0-0.1,0-0.1,0-0.2l0,0c0,0,0-0.1,0-0.1
			c0-0.2,0.1-0.3,0-0.4c0-0.7-0.5-0.9-0.8-0.9c0,0-0.1,0-0.1,0c-0.1,0-0.3,0-0.5,0.1h-0.1c-0.2,0.1-0.4,0.1-0.6,0.2
			c-0.1,0-0.3,0.1-0.4,0.1c0-0.1,0-0.2,0-0.3c0-0.3,0-0.5,0-0.8c0-0.1,0-0.1,0-0.2c0.1,0,0.2-0.1,0.3-0.1c0.2-0.1,0.3-0.1,0.3-0.1
			c0.2,0,0.4,0,0.5,0c0.1,0,0.1,0,0.2,0c0,0,0.1,0,0.1,0c0,0,0.1,0,0.1,0.1C60.8,50,60.9,50,61,50c0.1,0,0.3-0.1,0.4-0.2l0.1-0.1
			c0.1-0.1,0.2-0.3,0.3-0.5c0-0.1,0-0.2,0-0.4c0-0.1,0-0.3-0.1-0.4c0-0.1,0-0.1,0-0.2c0-0.1,0-0.2-0.1-0.3c0,0,0,0,0-0.1
			c0-0.2,0-0.4-0.1-0.4c0-0.1-0.1-0.2-0.1-0.2C61.2,47,60.9,46.9,60.7,46.8L60.7,46.8L60.7,46.8z"/>
	</g>
	<g>
		<path class="st0" d="M65.4,59.4c-0.2,0-0.3-0.1-0.5-0.2c-0.2,0-0.2-0.1-0.3-0.1l-0.1-0.1l-0.2-0.1c0,0-0.1-0.1-0.2-0.2L64,58.3
			c0,0,0,0,0,0c-0.1,0-0.3-0.1-0.3-0.5c0-0.2,0-0.3,0.1-0.5c0,0,0-0.1,0-0.2c0-0.5,0-1.1,0-1.6v-0.1c0-0.5,0-1.1,0.1-1.7l0.2-0.2H64
			c0-0.3,0-0.6,0-0.9l0-0.8c0-0.3,0-0.4,0-0.5c0-1,0-1.3,0.1-1.4H64l-0.5,0c0,0,0,0-0.1,0c-0.1,0-0.2,0.1-0.3,0.1
			c-0.3,0-0.5-0.3-0.5-0.6v-0.3c0-0.2,0-0.3-0.1-0.4c-0.1-0.2-0.2-0.5-0.2-0.8c0-0.2,0.1-0.4,0.3-0.6c0.2-0.2,0.3-0.3,0.5-0.3
			l0.6,0.1l0.3-0.1c0.3-0.1,0.6-0.1,0.8-0.1H66c0.1,0,0.2,0,0.4,0c0.2,0,0.3,0,0.4,0c0.9,0,1.3,0.5,1.3,1.6c0,0.1,0,0.2,0,0.3h-0.2
			l0.1,0.1L68,48.8l0,0.1c0,0.2-0.1,0.4-0.2,0.5c-0.1,0.1-0.2,0.2-0.4,0.2c-0.2,0-0.3-0.1-0.3-0.1h-0.1c-0.1,0-0.2,0-0.4,0l0,0.5
			c0,0.2,0,0.5-0.1,0.7l0,0.6c0,0.5-0.1,1-0.1,1.4c0,0.5-0.1,0.8-0.1,1v1c0,0.4,0,0.8,0,1.2c0,0.4,0,0.8,0.1,1.1
			c0,0.3,0.1,0.6,0.1,0.8c0,0.1,0,0.2,0,0.3c0,0.3-0.2,0.6-0.4,0.9C66,59.3,65.8,59.4,65.4,59.4L65.4,59.4z"/>
		<path class="st3" d="M66.8,46.8c0.8,0,1.2,0.4,1.2,1.4c0,0.1,0,0.2,0,0.3c0,0,0,0,0,0l0,0.1c0,0,0,0.1-0.1,0.2l0,0.2
			c0,0.2-0.2,0.5-0.4,0.5c0,0,0,0-0.1,0c-0.1,0-0.2-0.1-0.2-0.1h-0.1c-0.2,0-0.3,0-0.5,0c0,0,0,0,0,0.1l0,0.6c0,0.2,0,0.5-0.1,0.8
			l0,0.5c0,0.5-0.1,1-0.1,1.4c0,0.5-0.1,0.9-0.1,1v1c0,0.4,0,0.8,0,1.2c0,0.4,0,0.8,0.1,1.1c0,0.3,0.1,0.6,0.2,0.8
			c0,0.1,0,0.1,0,0.2c0,0.3-0.1,0.6-0.4,0.8c-0.1,0.1-0.4,0.2-0.7,0.2c-0.1,0-0.2-0.1-0.4-0.2c0,0-0.1-0.1-0.2-0.1
			c0,0-0.1,0-0.1-0.1l-0.1-0.1l-0.2-0.1c0,0-0.1-0.1-0.1-0.1l-0.1-0.2c0-0.1-0.1-0.1-0.1-0.1c-0.1,0-0.2-0.1-0.2-0.4
			c0-0.2,0-0.3,0.1-0.4l0,0c0,0,0-0.1,0-0.3c0-0.5,0-1.1,0-1.6v-0.1c0-0.6,0-1.2,0.1-1.8v-0.1c0-0.4,0-0.7,0-1c0-0.2,0-0.3,0-0.4
			c0-0.2,0-0.3,0-0.4c0-0.2,0-0.3,0-0.4c0-1,0-1.3,0.1-1.4c0-0.1,0-0.2,0-0.2h-0.4l-0.5,0c0,0-0.1,0-0.1,0c-0.1,0-0.2,0.1-0.3,0.1
			c-0.2,0-0.4-0.2-0.4-0.4v-0.3c0-0.2,0-0.4-0.1-0.5c-0.1-0.2-0.2-0.5-0.2-0.7c0-0.1,0.1-0.3,0.2-0.5C62.8,47,62.9,47,63,47l0.6,0.1
			c0,0,0.1,0,0.4-0.1c0.3-0.1,0.6-0.1,0.8-0.1h1.1c0.2,0,0.4,0,0.5,0S66.7,46.8,66.8,46.8 M66.8,46.5c-0.1,0-0.3,0-0.5,0
			c-0.1,0-0.2,0-0.3,0h-0.1h-1.1c-0.2,0-0.5,0-0.8,0.1c-0.1,0-0.2,0-0.3,0.1c0,0,0,0,0,0L63,46.6l0,0c-0.3,0-0.4,0.2-0.6,0.3
			c-0.1,0.2-0.3,0.4-0.3,0.7c0,0.4,0.1,0.7,0.2,0.9c0,0.1,0,0.2,0,0.3v0.3c0,0.3,0.2,0.7,0.7,0.7c0.1,0,0.3,0,0.4-0.1c0,0,0,0,0.1,0
			l0.5,0h0c0,0.2,0,0.6-0.1,1.3c0,0.1,0,0.2,0,0.4V52l0,0.4v0.1c0,0.3,0,0.6,0,0.9v0.1v0.1c0,0.6,0,1.2-0.1,1.7v0.1
			c0,0.6,0,1.1,0,1.6c0,0.1,0,0.1,0,0.2c-0.1,0.2-0.1,0.3-0.1,0.5c0,0.3,0.1,0.6,0.3,0.7c0,0,0,0,0,0l0.1,0.2
			c0.1,0.1,0.1,0.2,0.2,0.2l0.2,0.1l0.1,0.1c0.1,0.1,0.2,0.1,0.3,0.2c0.2,0.2,0.4,0.2,0.6,0.2c0.4,0,0.6-0.1,0.8-0.2
			c0.3-0.2,0.5-0.6,0.5-1c0-0.1,0-0.3,0-0.4c-0.1-0.2-0.1-0.4-0.1-0.7c0-0.3-0.1-0.7-0.1-1.1c0-0.4,0-0.8,0-1.2v-1
			c0-0.2,0-0.5,0.1-1c0-0.5,0.1-0.9,0.1-1.4l0-0.5c0-0.3,0-0.6,0.1-0.8l0-0.4c0.1,0,0.1,0,0.2,0h0.1c0,0,0.1,0,0.1,0
			c0,0,0.1,0,0.1,0c0.2,0,0.3-0.1,0.5-0.2c0.2-0.2,0.2-0.4,0.2-0.6v-0.1c0,0,0-0.1,0-0.1l0-0.1c0,0,0-0.1,0-0.1c0-0.2,0-0.3,0-0.3
			C68.3,47.1,67.9,46.5,66.8,46.5L66.8,46.5L66.8,46.5z"/>
	</g>
	<g>
		<path class="st0" d="M36.8,35.7c-0.2-0.1-0.3-0.2-0.4-0.3v-0.2l-0.1,0.1l-0.1-0.1c-0.2-0.3-0.4-0.8-0.3-1.2c0-0.1,0.1-0.2,0.2-0.3
			c0,0,0.1-0.2,0.1-0.2l0.1-0.1c0,0,0-0.1,0-0.2c0-0.1,0.1-0.2,0.1-0.4l0.1-0.3c0-0.1,0.1-0.3,0.2-0.4l0.2-0.7l0.2-0.5l0.2-0.7
			l0.3-0.5c0.1-0.1,0.1-0.3,0.2-0.4l0.1-0.2c0-0.2,0.1-0.3,0.1-0.4c0,0,0-0.1,0.1-0.1c0,0,0,0-0.1,0c-0.1-0.1-0.2-0.1-0.3-0.2
			c0,0-0.1,0-0.2-0.1c-0.1,0-0.2,0-0.3-0.1l0,0.1c-0.2,0.4-0.5,1-0.5,1.2c-0.1,0.3-0.2,0.6-0.3,0.8c-0.1,0.2-0.2,0.5-0.3,0.7
			l-0.3,0.9c0,0,0,0.1-0.1,0.2c-0.1,0.3-0.1,0.6-0.2,0.8c0,0.1,0,0.2,0,0.2c0,0.2-0.1,0.4-0.1,0.5c0,0.1-0.1,0.2-0.1,0.2
			c-0.1,0.2-0.3,0.3-0.5,0.3h0c-0.1,0-0.2,0-0.3-0.1l-0.3-0.1c-0.4-0.2-0.5-0.2-0.5-0.3c-0.1-0.1-0.2-0.2-0.3-0.3
			c-0.1-0.2-0.1-0.5,0.1-0.9c0.1-0.2,0.2-0.4,0.3-0.8l0.4-1.1l0.4-1l0.2-0.5l0.2-0.6l0.3-0.7c0.1-0.1,0.1-0.2,0.1-0.4
			c0-0.1,0-0.1,0.1-0.2c0,0-0.1,0-0.1,0c-0.1,0-0.2-0.1-0.2-0.2C35,27.2,35,27,35,26.8c0-0.1,0-0.1,0.1-0.2c0-0.2,0-0.4,0.1-0.6
			l0.1-0.3c0.1-0.2,0.1-0.3,0.2-0.3c0.1-0.1,0.2-0.2,0.4-0.2c0.1,0,0.1,0,0.2,0c0.1,0.1,0.3,0.2,0.4,0.2c0,0,0.1,0.1,0.2,0.1
			c0.1,0,0.2,0.1,0.3,0.1L37,26l0-0.2c0.2,0.1,0.4,0.2,0.6,0.2l0.7,0.3c0.1,0.1,0.2,0.1,0.3,0.1c0.1,0,0.1,0.1,0.2,0.1
			c0.3,0.1,0.4,0.2,0.5,0.3c0,0,0,0,0,0c0,0,0.1,0,0.1,0c0.1,0,0.1,0.1,0.2,0.1c0.2,0.1,0.3,0.2,0.4,0.2c0.2,0.1,0.3,0.4,0.4,0.5
			c0.1,0.3,0,0.4,0,0.5l-0.1,0.4c0,0.2-0.1,0.2-0.3,0.4c0,0,0,0.1-0.1,0.2c-0.1,0.2-0.2,0.3-0.2,0.5l-0.2,0.5
			c-0.1,0.2-0.1,0.2-0.1,0.3L39.3,31c-0.1,0.2-0.1,0.4-0.2,0.6c-0.1,0.2-0.2,0.3-0.2,0.5l-0.1,0.3c-0.1,0.2-0.2,0.4-0.2,0.5
			c0,0,0,0.1-0.1,0.3l-0.1,0.2l-0.1,0.3l-0.2,0.1l0.1,0.1l-0.1,0.3c0,0,0,0.1,0,0.1c0,0.2-0.1,0.4-0.1,0.6l0,0.3
			c-0.1,0.3-0.3,0.4-0.5,0.5c-0.1,0.1-0.2,0.1-0.2,0.1L36.8,35.7L36.8,35.7z"/>
		<path class="st3" d="M35.8,25.4c0,0,0.1,0,0.2,0c0.1,0.1,0.2,0.1,0.3,0.2c0,0.1,0.1,0.1,0.2,0.1c0.1,0.1,0.3,0.1,0.4,0.2l0.1,0
			c0.2,0.1,0.4,0.2,0.6,0.2l0.1,0c0.2,0.1,0.3,0.1,0.4,0.1c0.1,0,0.2,0.1,0.2,0.1c0,0,0,0,0,0c0,0,0.1,0,0.2,0.1
			c0.1,0,0.1,0.1,0.2,0.1c0.2,0.1,0.4,0.2,0.5,0.3c0.1,0,0.1,0,0.2,0h0c0,0,0,0.1,0.1,0.1l0.1,0.1c0.2,0.1,0.3,0.1,0.3,0.2
			c0.2,0.1,0.2,0.3,0.3,0.4c0,0,0,0,0,0.1c0,0,0,0.1,0,0.1c0,0.1,0,0.1,0,0.2l-0.1,0.4c0,0.1-0.1,0.2-0.2,0.3c0,0,0,0,0,0l0,0l0,0
			l0,0c0,0,0,0-0.1,0.2c-0.1,0.2-0.2,0.3-0.2,0.5l-0.2,0.5c-0.1,0.2-0.1,0.3-0.1,0.3l-0.1,0.5c-0.1,0.2-0.1,0.3-0.2,0.5
			c-0.1,0.2-0.2,0.4-0.2,0.5c0,0,0,0.2-0.1,0.3l0,0.1c-0.1,0.2-0.1,0.3-0.2,0.5c0,0,0,0.1-0.1,0.3c0,0.1,0,0.2-0.1,0.2l0,0.1
			l-0.1,0.2v0.1c0,0,0,0,0,0.1L38,34.1l0,0l0,0l0,0c0,0,0,0,0,0.1v0.1c0,0.2-0.1,0.4-0.1,0.6l0,0.2c0,0,0,0,0,0
			c0,0.1-0.2,0.2-0.4,0.3l-0.1,0c0,0-0.1,0-0.1,0c0,0,0,0,0,0l-0.4,0c0,0,0,0-0.1,0c-0.1,0-0.1-0.1-0.2-0.2c0,0-0.1-0.1-0.1-0.1
			c0,0,0,0,0-0.1L36.3,35c-0.1-0.2-0.4-0.7-0.3-1c0-0.1,0.1-0.2,0.2-0.2c0,0,0,0,0,0l0-0.1c0,0,0-0.1,0-0.1l0.1-0.1
			c0,0,0-0.1,0.1-0.2c0-0.1,0.1-0.2,0.1-0.4l0.1-0.3c0-0.1,0.1-0.2,0.2-0.4l0.2-0.7l0.2-0.5l0.2-0.7l0.3-0.5
			c0.1-0.2,0.1-0.3,0.2-0.4l0.1-0.2c0-0.1,0.1-0.2,0.1-0.3c0-0.1,0.1-0.2,0.1-0.3c0,0-0.1,0-0.2-0.1c-0.1-0.1-0.2-0.1-0.3-0.2
			c0,0-0.1,0-0.3-0.1c-0.1,0-0.2,0-0.4-0.1c0,0.1-0.1,0.1-0.1,0.2c-0.2,0.4-0.5,1-0.6,1.2c-0.1,0.3-0.2,0.5-0.3,0.8
			c-0.1,0.2-0.2,0.5-0.3,0.8L35.6,32c0,0,0,0.1-0.1,0.2l0,0.1c-0.1,0.2-0.1,0.5-0.2,0.7c0,0.1,0,0.2,0,0.2l0,0.1
			c0,0.1,0,0.2-0.1,0.3c0,0.1-0.1,0.1-0.1,0.2c-0.1,0.2-0.2,0.2-0.4,0.2c0,0,0,0-0.1,0c-0.1,0-0.1,0-0.2-0.1L34.1,34
			c-0.3-0.2-0.4-0.2-0.5-0.3c-0.1-0.1-0.2-0.2-0.2-0.3c-0.1-0.2-0.1-0.4,0.1-0.7c0.1-0.2,0.2-0.4,0.3-0.8c0.1-0.3,0.3-0.7,0.4-1.1
			l0.4-1l0.2-0.5l0.2-0.6l0.3-0.7c0.1-0.1,0.1-0.3,0.1-0.4c0-0.1,0.1-0.2,0.1-0.3l0-0.1h0c-0.1,0-0.1-0.1-0.2-0.1
			c-0.1,0-0.1-0.1-0.2-0.1c-0.1-0.1-0.1-0.2-0.1-0.3c0-0.1,0-0.1,0.1-0.1l0-0.1c0,0,0,0,0-0.1c0-0.1,0-0.2,0-0.4l0.1-0.2
			c0.1-0.2,0.1-0.3,0.2-0.3C35.6,25.4,35.7,25.4,35.8,25.4 M35.8,25.1c-0.2,0-0.4,0.1-0.5,0.2c0,0.1-0.1,0.2-0.2,0.4L35,26
			C35,26.2,35,26.3,35,26.5v0c0,0-0.1,0.1-0.1,0.2c-0.1,0.2,0,0.5,0.1,0.7c0.1,0.1,0.1,0.1,0.2,0.2l0,0c0,0.1-0.1,0.2-0.1,0.4
			l-0.3,0.7l-0.2,0.6l-0.2,0.5l-0.4,1c-0.2,0.4-0.3,0.8-0.4,1.1c-0.1,0.3-0.2,0.6-0.3,0.8c-0.1,0.3-0.2,0.7,0,1
			c0.1,0.2,0.2,0.3,0.3,0.4c0.1,0.1,0.2,0.2,0.6,0.3l0.3,0.1c0.1,0.1,0.2,0.1,0.3,0.1c0,0,0.1,0,0.1,0c0.2,0,0.4-0.1,0.5-0.4
			c0.1-0.1,0.1-0.2,0.2-0.3c0-0.1,0.1-0.3,0.1-0.4v-0.1c0,0,0-0.1,0.1-0.2c0-0.3,0.1-0.5,0.2-0.7l0-0.1c0-0.1,0-0.2,0-0.2l0.3-0.9
			c0.1-0.3,0.2-0.5,0.3-0.7c0.1-0.3,0.2-0.6,0.3-0.9c0.1-0.2,0.3-0.8,0.5-1.2c0.1,0,0.1,0,0.2,0c0.2,0,0.2,0,0.2,0
			c0.1,0,0.1,0.1,0.2,0.1c0,0.1-0.1,0.2-0.1,0.3l-0.1,0.2c0,0.1-0.1,0.3-0.2,0.4l-0.3,0.5L37,30.9l-0.2,0.4L36.6,32
			c-0.1,0.2-0.1,0.3-0.2,0.4l-0.1,0.3c-0.1,0.2-0.1,0.3-0.1,0.5c0,0,0,0.1,0,0.1l-0.1,0.1c0,0,0,0.1-0.1,0.2v0
			c-0.1,0.1-0.2,0.2-0.2,0.3c-0.1,0.4,0.1,1,0.3,1.3l0.1,0.1c0,0,0.1,0.1,0.1,0.1c0.1,0.2,0.2,0.3,0.4,0.3c0,0,0.1,0,0.2,0l0.4,0
			c0,0,0,0,0,0c0.1,0,0.2,0,0.2,0l0.1,0c0.2-0.1,0.4-0.2,0.5-0.5c0,0,0-0.1,0-0.1l0-0.2c0-0.3,0.1-0.5,0.1-0.6c0,0,0-0.1,0-0.1
			c0,0,0-0.1,0-0.1l0.1-0.2c0,0,0-0.1,0-0.2v-0.1l0.1-0.2c0,0,0-0.1,0-0.1l0.1-0.2c0-0.2,0.1-0.2,0.1-0.3c0-0.1,0.1-0.3,0.2-0.4
			c0.1-0.2,0.1-0.3,0.2-0.4c0.1-0.2,0.1-0.3,0.2-0.5c0.1-0.2,0.2-0.4,0.2-0.6l0.2-0.5c0,0,0-0.1,0.1-0.3l0.2-0.5
			c0.1-0.2,0.2-0.3,0.2-0.5c0-0.1,0-0.1,0.1-0.1c0,0,0,0,0,0c0.2-0.2,0.3-0.3,0.3-0.5l0.1-0.4c0,0,0.1-0.2,0-0.4c0,0,0-0.1,0-0.1
			c0-0.1-0.2-0.5-0.5-0.6c-0.1,0-0.2-0.1-0.3-0.2l0,0c-0.1-0.1-0.1-0.1-0.2-0.1c-0.1,0-0.1-0.1-0.2-0.1c-0.1-0.1-0.3-0.2-0.5-0.2
			c-0.1,0-0.1-0.1-0.2-0.1c-0.1-0.1-0.2-0.1-0.2-0.1l-0.1,0c0,0-0.1,0-0.2-0.1c-0.1,0-0.3-0.1-0.4-0.1l-0.2-0.1
			c-0.2-0.1-0.4-0.1-0.6-0.2l-0.1,0c-0.2-0.1-0.3-0.1-0.4-0.2c-0.1,0-0.1-0.1-0.1-0.1c-0.1-0.1-0.3-0.2-0.4-0.3
			C36,25.1,36,25.1,35.8,25.1L35.8,25.1L35.8,25.1z"/>
	</g>
	<g>
		<path class="st0" d="M39.9,42.1c-0.3,0-0.5,0-0.7-0.1l-0.1-0.2l-0.1,0.2c-0.2-0.1-0.4-0.3-0.5-0.6c-0.2-0.5-0.2-1.2,0-2.1
			c0.1-0.4,0.2-0.8,0.3-1.2c0.1-0.2,0.1-0.4,0.3-0.6c-0.5,0.5-0.9,0.9-1.4,1.3c-0.5,0.4-0.9,0.7-1.2,1c-0.1,0.1-0.3,0.1-0.4,0.1
			c-0.1,0-0.1,0-0.2,0c-0.2,0-0.4-0.1-0.6-0.2c-0.2-0.1-0.3-0.2-0.5-0.3c-0.3-0.2-0.4-0.4-0.5-0.6c-0.1-0.2-0.1-0.4-0.1-0.5
			c0,0,0-0.1,0-0.2c0-0.1,0.1-0.2,0.2-0.3c0,0,0,0,0,0c0,0,0-0.1,0-0.1c0-0.1,0-0.3,0-0.4c0-0.2,0.1-0.3,0.1-0.3
			c0.1-0.1,0.2-0.2,0.3-0.3c0,0,0.1,0,0.1,0c0.1,0,0.2,0,0.3,0.1c0,0,0.1,0.1,0.1,0.1c0.1,0.1,0.2,0.1,0.3,0.2
			c0.1,0.1,0.2,0.1,0.4,0.1c0,0,0.1,0,0.1,0c0.2,0,0.3,0,0.4-0.1c0.2-0.1,0.4-0.2,0.6-0.3c0.2-0.1,0.4-0.3,0.8-0.6
			c0.4-0.3,0.8-0.7,1.1-1c0.4-0.4,0.8-0.7,1.1-1.1c0.4-0.4,0.6-0.7,0.7-1l0.2-0.3l0-0.2c0,0,0-0.1,0.1-0.2c0.1-0.1,0.2-0.2,0.3-0.3
			c0.1,0,0.2-0.1,0.4-0.1l0.4-0.1h0.1l0.1,0l0.3,0.1c0.1,0,0.2,0.1,0.2,0.1c0.1,0.1,0.2,0.2,0.3,0.3c0.1,0.1,0.1,0.3,0.2,0.4
			c0.1,0.2,0.1,0.3,0.1,0.4c0,0.2,0,0.3,0,0.3s0,0.2-0.1,0.3c0,0-0.1,0.1-0.1,0.1l-0.1,0.1c-0.1,0.2-0.3,0.4-0.5,0.7
			c-0.2,0.2-0.4,0.5-0.5,0.8c-0.2,0.3-0.3,0.4-0.3,0.5c-0.2,0.4-0.4,0.8-0.6,1.2c-0.2,0.4-0.4,0.9-0.6,1.4c-0.2,0.4-0.3,0.8-0.4,1.1
			c0,0,0,0,0,0l0.2,0c0.2,0,0.3,0.1,0.4,0.2c0.1,0.1,0.2,0.2,0.2,0.4c0,0,0,0.2,0,0.2c0,0.2,0,0.2,0,0.2c0.1,0.2,0.2,0.4,0.1,0.5
			l-0.2,0.4c-0.1,0.2-0.3,0.3-0.4,0.4c-0.2,0.1-0.3,0.1-0.5,0.2C40.2,42.1,40.1,42.1,39.9,42.1L39.9,42.1z"/>
		<path class="st3" d="M42.5,31.8C42.5,31.8,42.5,31.8,42.5,31.8l0.2,0l0.3,0.1C43,31.9,43,32,43,32c0.1,0.1,0.2,0.2,0.2,0.3
			c0.1,0.1,0.1,0.2,0.2,0.4c0.1,0.2,0.1,0.3,0.1,0.4c0,0.1,0,0.2,0,0.3c0,0.1,0,0.1,0,0.2c0,0,0,0.1-0.1,0.1c0,0-0.1,0.1-0.1,0.2
			c-0.1,0.2-0.3,0.4-0.5,0.7c-0.2,0.2-0.4,0.5-0.5,0.8c-0.2,0.3-0.3,0.4-0.4,0.5c-0.2,0.4-0.4,0.8-0.6,1.2c-0.2,0.4-0.4,0.9-0.6,1.4
			c-0.2,0.4-0.3,0.8-0.4,1.2c0,0.1,0,0.2,0,0.3l0.4,0c0,0,0,0,0,0c0.1,0,0.2,0.1,0.2,0.1c0,0,0,0.1,0,0.1c0.1,0,0.1,0.1,0.2,0.3
			c0,0,0,0.1,0,0.1c0,0.2,0,0.3,0,0.3c0,0,0,0,0.1,0.1c0.1,0.1,0.1,0.2,0,0.3l-0.2,0.4c0,0,0,0,0,0.1c-0.1,0.1-0.2,0.2-0.3,0.3
			c-0.2,0.1-0.3,0.1-0.5,0.1c-0.1,0-0.3,0.1-0.4,0.1c-0.2,0-0.4,0-0.6-0.1c0,0,0,0,0,0l-0.1-0.1c-0.2-0.1-0.3-0.3-0.4-0.6
			c-0.2-0.5-0.2-1.1,0-2c0.1-0.4,0.2-0.8,0.3-1.2c0.1-0.2,0.2-0.5,0.3-0.8c0.1-0.2,0.2-0.5,0.4-0.8c-0.7,0.7-1.4,1.4-2,2
			c-0.5,0.4-0.9,0.7-1.2,1c-0.1,0.1-0.2,0.1-0.4,0.1c0,0-0.1,0-0.2,0c-0.2,0-0.4-0.1-0.6-0.2c-0.1-0.1-0.3-0.2-0.5-0.3L34.9,39
			c-0.2-0.1-0.3-0.3-0.4-0.5c-0.1-0.2-0.1-0.3-0.1-0.4c0,0,0-0.1,0-0.1c0-0.1,0.1-0.2,0.1-0.2c0,0,0.1-0.1,0.2-0.1c0,0,0,0,0,0
			c0-0.1,0-0.2-0.1-0.3c0-0.1,0-0.2,0-0.3c0-0.1,0-0.2,0.1-0.2c0-0.1,0.1-0.2,0.2-0.2c0,0,0.1,0,0.1,0c0.1,0,0.1,0,0.2,0.1
			c0,0,0.1,0.1,0.1,0.1c0.1,0.1,0.2,0.1,0.3,0.2c0.1,0.1,0.3,0.1,0.5,0.2c0,0,0.1,0,0.1,0c0.1,0,0.3,0,0.4-0.1
			c0.2-0.1,0.4-0.2,0.7-0.3c0.2-0.1,0.4-0.3,0.8-0.6c0.4-0.3,0.8-0.7,1.1-1c0.4-0.4,0.8-0.7,1.1-1.1c0.4-0.4,0.6-0.7,0.7-1l0.2-0.3
			l0.1-0.2c0,0,0-0.1,0-0.2c0.1-0.1,0.1-0.2,0.2-0.2c0.1,0,0.2-0.1,0.4-0.1L42.5,31.8C42.4,31.8,42.5,31.8,42.5,31.8 M42.5,31.5
			C42.5,31.5,42.4,31.5,42.5,31.5L42,31.5c-0.2,0.1-0.4,0.1-0.4,0.2c-0.1,0.1-0.3,0.2-0.4,0.3c0,0.1-0.1,0.2-0.1,0.3l0,0.1l-0.1,0.2
			c-0.1,0.2-0.4,0.5-0.7,0.9c-0.4,0.4-0.7,0.8-1.1,1.1c-0.4,0.4-0.7,0.7-1.1,1c-0.4,0.3-0.6,0.5-0.8,0.6c-0.2,0.1-0.4,0.2-0.6,0.3
			c-0.1,0-0.2,0.1-0.4,0.1c0,0-0.1,0-0.1,0c-0.2,0-0.3-0.1-0.4-0.1c-0.1-0.1-0.2-0.1-0.3-0.2c0,0-0.1-0.1-0.1-0.1
			c-0.1-0.1-0.2-0.2-0.4-0.2c-0.1,0-0.1,0-0.2,0c-0.2,0.1-0.3,0.2-0.4,0.3c0,0.1-0.1,0.2-0.1,0.4c0,0.2,0,0.3,0,0.4v0
			c-0.1,0.1-0.2,0.2-0.2,0.3c0,0,0,0.1,0,0.2c0,0.2,0,0.4,0.1,0.6c0.1,0.2,0.2,0.5,0.5,0.6l0.1,0.1c0.2,0.1,0.3,0.2,0.5,0.3
			c0.2,0.1,0.4,0.2,0.6,0.2c0.1,0,0.2,0,0.2,0c0.2,0,0.4-0.1,0.5-0.2c0.4-0.2,0.7-0.6,1.2-1c0.3-0.2,0.5-0.5,0.8-0.8
			c-0.1,0.4-0.2,0.8-0.3,1.2c-0.2,0.9-0.2,1.7,0,2.2c0.1,0.3,0.3,0.6,0.5,0.7l0.1,0c0,0,0.1,0,0.1,0c0.2,0.1,0.4,0.2,0.7,0.2
			c0.2,0,0.3,0,0.5-0.1c0.2,0,0.4-0.1,0.5-0.2c0.2-0.1,0.3-0.2,0.5-0.4c0,0,0-0.1,0-0.1l0.2-0.4c0.1-0.2,0.1-0.5-0.1-0.6l0,0
			c0,0,0-0.1,0-0.1c0-0.1,0-0.2,0-0.3c0-0.2-0.1-0.3-0.2-0.4c-0.1-0.2-0.3-0.3-0.5-0.3h0c0.1-0.3,0.2-0.6,0.3-0.9
			c0.2-0.5,0.4-0.9,0.6-1.3c0.2-0.4,0.4-0.8,0.6-1.2c0-0.1,0.2-0.3,0.3-0.5c0.2-0.3,0.3-0.5,0.5-0.8c0.2-0.3,0.3-0.5,0.5-0.7
			c0-0.1,0.1-0.1,0.1-0.1c0,0,0.1-0.1,0.1-0.2c0.1-0.1,0.1-0.3,0.1-0.4c0-0.1,0-0.2,0-0.3c0-0.2-0.1-0.3-0.1-0.5
			c-0.1-0.2-0.1-0.3-0.2-0.5c-0.1-0.1-0.2-0.3-0.3-0.4c0,0-0.1-0.1-0.3-0.1l-0.2-0.1l-0.2,0C42.6,31.4,42.5,31.4,42.5,31.5
			L42.5,31.5L42.5,31.5z"/>
	</g>
	<g>
		<path class="st0" d="M46.4,50.9c-0.3,0-0.9-0.2-0.9-0.2c0,0,0,0,0,0c-0.2,0-0.4-0.1-0.6-0.3c-0.2-0.2-0.3-0.3-0.3-0.6
			c0-0.1,0-0.2,0-0.4v-0.6l0-0.7c0-0.2-0.1-0.4-0.1-0.5c0,0-1.2,0.1-1.2,0.1c-0.1,0-0.1,0-0.2,0s-0.1,0-0.2,0c-0.2,0-0.3,0-0.3-0.1
			c0,0-0.1,0.2-0.2,0.6c-0.2,1-0.5,1.4-0.9,2c-0.1,0.2-0.2,0.3-0.3,0.4c-0.1,0.1-0.3,0.2-0.5,0.2c-0.1,0-0.2,0-0.5-0.2
			c-0.1-0.1-0.2-0.1-0.2-0.1c-0.1,0.1-0.2,0.1-0.3,0.1c-0.5,0-0.7-0.3-0.7-0.7c0-0.2,0-0.4,0.4-1.1c0.2-0.4,0.5-1,0.7-1.8
			c0-0.1,0.2-0.6,0.2-0.9c0.1-0.4,0.2-0.8,0.3-1.2l0.1-0.7c0.1-0.7,0.3-1.3,0.4-1.8s0.2-0.9,0.2-1c0.1-0.7,0.2-1.3,0.3-1.7
			c0.1-0.4,0.2-0.7,0.3-0.9l0.1-0.2c0-0.1,0.1-0.2,0.1-0.4c0.2-0.4,0.5-0.6,0.9-0.6c0.1,0,0.2,0,0.2,0.1l0.2,0.1l0,0
			c0,0,0.1,0,0.1,0c0.2-0.1,0.3-0.1,0.4-0.1c0.2,0,0.5,0.1,0.9,0.3c0.4,0.2,0.7,0.4,1.1,0.8c0.3,0,0.5,0.2,0.6,0.4
			c0.1,0.2,0.2,0.5,0.2,0.7v0.2c0,0.2,0,0.3,0,0.5c-0.1,0.5-0.1,1.2-0.1,2.2c0,0.2,0,0.4,0,0.6l0.1,0.7c0,0.3,0.1,0.6,0.1,0.9
			c0,0,0,0,0,0c0.1,0,0.2,0.1,0.3,0.2c0,0,0.1,0.1,0.1,0.3c0.1,0.3,0.2,0.4,0.2,0.5c0,0.2-0.1,0.4-0.4,0.6c0,0-0.1,0.1-0.1,0.1
			c0,0.1,0,0.2,0.1,0.3c0.1,0.3,0.1,0.6,0.2,0.9c0.1,0.3,0.1,0.6,0.2,0.8c0,0.2,0.1,0.2,0.1,0.2c0,0,0,0,0,0c0.1,0,0.3,0.2,0.3,0.4
			l0.1,0.2c0,0,0,0.2,0,0.2c0,0.3-0.1,0.4-0.3,0.5c-0.1,0.1-0.3,0.1-0.4,0.1c0,0-0.1,0-0.2,0.1C46.8,50.9,46.6,51,46.4,50.9
			L46.4,50.9z M43.9,40.2c-0.1,0.3-0.1,0.5-0.1,0.7c0,0-0.3,1.8-0.4,2l-0.1,0.5c-0.1,0.5-0.1,0.8-0.1,1c0,0.1,0,0.2,0,0.3
			c0.1,0,0.1,0,0.2,0h0.7v-0.3l0-0.4c0-0.2,0-0.3,0-0.4c0-0.1,0-0.1,0-0.2l0.1-1.3c0-0.1,0-0.2,0-0.3c0-0.1,0-0.2,0-0.2
			c0-0.2-0.1-0.3-0.1-0.5V41c0-0.1,0-0.2,0-0.4v-0.2l0-0.3l-0.1,0.2L43.9,40.2L43.9,40.2L43.9,40.2z"/>
		<path class="st3" d="M43,37.9c0.1,0,0.1,0,0.2,0.1l0.1,0.1c0,0,0,0,0,0c0.1,0,0.1,0.1,0.1,0.1c0,0,0.1,0,0.2-0.1
			c0.1,0,0.2-0.1,0.3-0.1c0.2,0,0.5,0.1,0.9,0.3c0.4,0.2,0.7,0.4,1.1,0.8c0.3,0.1,0.5,0.2,0.6,0.3c0,0,0,0,0,0
			c0.1,0.2,0.1,0.3,0.1,0.6v0.2c0,0.2,0,0.3,0,0.5c-0.1,0.5-0.1,1.3-0.1,2.2c0,0.2,0,0.5,0,0.6l0.1,0.7c0,0.3,0.1,0.6,0.1,0.9
			c0,0.1,0,0.2,0,0.2h0c0,0,0,0,0,0c0.1,0,0.2,0,0.2,0.1c0,0,0,0.1,0.1,0.3c0.1,0.3,0.1,0.4,0.1,0.5c0,0.2-0.1,0.3-0.3,0.5
			c-0.1,0.1-0.1,0.1-0.1,0.2c0,0,0,0.2,0.1,0.4v0.1c0.1,0.3,0.1,0.5,0.2,0.8c0.1,0.3,0.1,0.6,0.2,0.9c0.1,0.2,0.1,0.3,0.1,0.3
			c0,0,0,0,0,0c0.1,0,0.2,0.1,0.2,0.3c0,0,0,0,0,0.1l0.1,0.2c0,0,0,0.1,0,0.1c0,0,0,0.1,0,0.1c0,0.2-0.1,0.2-0.2,0.3
			c-0.2,0.1-0.2,0.1-0.3,0.1s-0.2,0-0.3,0.2c-0.2,0.2-0.4,0.2-0.6,0.2c-0.2,0-0.6-0.2-0.8-0.2h-0.1c-0.1,0-0.3-0.1-0.5-0.3
			c-0.2-0.2-0.3-0.3-0.3-0.5c0,0,0,0,0,0v0c0-0.1,0-0.2,0-0.4v-0.6l0-0.7c-0.1-0.4-0.1-0.6-0.1-0.6c0,0-0.1,0-0.2,0
			c-0.1,0-0.3,0-0.5,0.1c-0.2,0-0.3,0-0.5,0.1h-0.1c-0.1,0-0.1,0-0.2,0c0,0-0.1,0-0.2,0h-0.1c-0.1,0-0.2-0.1-0.3-0.1
			c0,0-0.1,0.1-0.3,0.7c-0.2,1-0.5,1.4-0.9,1.9c-0.1,0.2-0.2,0.3-0.3,0.3c-0.1,0.1-0.2,0.2-0.4,0.2c0,0-0.1,0-0.4-0.2
			c-0.1-0.1-0.2-0.1-0.3-0.1h0c-0.1,0.1-0.2,0.1-0.3,0.1c-0.4,0-0.6-0.3-0.6-0.5c0-0.1,0-0.4,0.4-1c0.2-0.4,0.5-1,0.7-1.8
			c0-0.1,0.2-0.6,0.2-1c0.1-0.4,0.2-0.8,0.3-1.2l0.1-0.6c0.1-0.7,0.3-1.3,0.4-1.8c0.1-0.6,0.2-0.9,0.2-1c0.1-0.7,0.2-1.3,0.3-1.7
			c0.1-0.4,0.2-0.7,0.2-0.8v-0.1c0,0,0-0.1,0.1-0.2c0-0.1,0.1-0.2,0.1-0.3C42.4,38.1,42.6,37.9,43,37.9 M43,45C43,45,43.1,45,43,45
			c0.1-0.1,0.3-0.1,0.4-0.1h0.7c0.1,0,0.1,0,0.1,0s0,0,0-0.1v-0.4c0,0,0-0.1,0-0.2c0-0.1,0-0.1,0-0.2c0-0.2,0-0.3,0-0.4
			c0-0.1,0-0.1,0-0.2l0.1-1.3c0-0.1,0-0.2,0-0.3c0-0.1,0-0.2,0-0.2c0-0.2-0.1-0.3-0.1-0.4V41c0-0.1,0-0.2,0-0.4v-0.3
			c0-0.1,0-0.2,0-0.2c0,0,0-0.1-0.1-0.1c0,0-0.1,0-0.1,0c0,0-0.1,0-0.1-0.1c0,0,0,0,0,0.1l0,0.2c0,0.2-0.1,0.4-0.1,0.7l-0.1,0.4
			c0,0.3-0.1,0.5-0.1,0.8c-0.1,0.3-0.1,0.6-0.2,0.9l-0.1,0.4c-0.1,0.5-0.1,0.8-0.1,1C43,44.8,43,45,43,45C43,45,43,45,43,45
			 M43,37.6c-0.5,0-0.8,0.2-1,0.7c-0.1,0.1-0.1,0.3-0.2,0.4l0,0.1l0,0.1c-0.1,0.2-0.2,0.6-0.2,0.9c-0.1,0.4-0.2,1-0.3,1.7
			c0,0.1-0.1,0.4-0.2,1c-0.1,0.6-0.3,1.2-0.4,1.8l-0.1,0.6c-0.1,0.4-0.2,0.9-0.3,1.2c-0.1,0.3-0.2,0.8-0.2,0.9
			c-0.3,0.8-0.5,1.4-0.7,1.7c-0.4,0.7-0.5,1-0.5,1.2c0,0.4,0.3,0.9,0.9,0.9c0.1,0,0.2,0,0.3-0.1c0,0,0.1,0,0.1,0.1
			c0.3,0.2,0.4,0.2,0.5,0.2c0.3,0,0.5-0.1,0.6-0.2c0.1-0.1,0.2-0.2,0.3-0.4c0.4-0.6,0.7-1,0.9-2c0.1-0.2,0.1-0.4,0.2-0.5
			c0,0,0,0,0.1,0l0.1,0c0.1,0,0.1,0,0.2,0c0,0,0.1,0,0.2,0h0.1c0.2,0,0.3-0.1,0.5-0.1l0.4,0h0.1c0,0,0,0.2,0,0.3l0,0.7v0.6
			c0,0.2,0,0.3,0,0.4c0,0,0,0,0,0.1c0,0.3,0.2,0.6,0.4,0.7c0.2,0.2,0.4,0.4,0.7,0.4h0c0.2,0.1,0.6,0.2,0.9,0.2
			c0.2,0,0.5-0.1,0.7-0.3c0.1-0.1,0.2-0.1,0.2-0.1l0,0c0.1,0,0.2-0.1,0.4-0.2c0.2-0.1,0.3-0.3,0.3-0.6c0-0.1,0-0.1,0-0.2
			c0,0,0-0.1-0.1-0.2l0-0.1c0-0.3-0.2-0.5-0.4-0.6c0,0,0,0,0-0.1c-0.1-0.3-0.2-0.5-0.2-0.8c-0.1-0.3-0.1-0.5-0.2-0.8v-0.1
			c0-0.1,0-0.2,0-0.2c0.3-0.2,0.4-0.5,0.4-0.8c0-0.1,0-0.3-0.2-0.6c-0.1-0.2-0.2-0.3-0.2-0.3c-0.1-0.1-0.2-0.2-0.3-0.2
			c0-0.2,0-0.5-0.1-0.8l-0.1-0.7c0-0.2,0-0.4,0-0.6c0-1,0.1-1.7,0.1-2.2c0-0.2,0-0.3,0-0.5V40c0-0.3,0-0.5-0.1-0.7c0,0,0-0.1,0-0.1
			c-0.2-0.2-0.4-0.4-0.7-0.5c-0.4-0.3-0.7-0.6-1.1-0.8c-0.4-0.2-0.7-0.3-1-0.3c0,0-0.1,0-0.4,0.1c0,0,0,0,0,0c0,0,0,0,0,0l-0.1-0.1
			C43.3,37.7,43.2,37.6,43,37.6L43,37.6L43,37.6z M43.4,44.6C43.4,44.6,43.4,44.5,43.4,44.6c0-0.3,0.1-0.6,0.1-1.1l0.1-0.4V43
			c0.1-0.3,0.1-0.5,0.2-0.8c0-0.3,0.1-0.6,0.1-0.8l0-0.2v0.1c0,0.1,0,0.3,0.1,0.5c0,0,0,0.1,0,0.2c0,0.1,0,0.2,0,0.3l-0.1,1.3
			c0,0,0,0.1,0,0.2c0,0,0,0.2,0,0.4c0,0.1,0,0.1,0,0.2c0,0.1,0,0.1,0,0.2v0.1L43.4,44.6L43.4,44.6C43.4,44.6,43.4,44.6,43.4,44.6
			L43.4,44.6L43.4,44.6z"/>
	</g>
	<g>
		<path class="st0" d="M74.5,58.6c-0.3,0-0.7-0.3-0.8-0.4c-0.2,0-0.4-0.2-0.6-0.4c-0.1-0.2-0.3-0.4-0.2-0.6c0-0.1,0-0.2,0-0.4
			l0.1-0.6l0-0.7c0-0.3,0-0.4,0-0.5c0,0-1.3-0.1-1.3-0.1c0,0-0.1,0-0.2-0.1l-0.1-0.2l0,0.2c0,0-0.1,0-0.1-0.1c0,0.1-0.2,0.2-0.3,0.6
			c-0.4,1-0.7,1.3-1.1,1.8c-0.1,0.2-0.3,0.3-0.3,0.3c-0.1,0.1-0.2,0.1-0.4,0.1c0,0-0.1,0-0.1,0c-0.1,0-0.2-0.1-0.4-0.3
			c-0.1-0.1-0.1-0.1-0.2-0.1c0,0-0.1,0-0.2,0c-0.4-0.1-0.5-0.2-0.6-0.3c-0.1-0.1-0.1-0.3-0.1-0.5c0-0.2,0.1-0.4,0.6-1
			c0.3-0.4,0.6-0.9,0.9-1.7c0-0.1,0.2-0.6,0.4-0.9c0.1-0.3,0.2-0.6,0.4-1L70,51c0.2-0.6,0.4-1.3,0.6-1.8c0.2-0.5,0.3-0.9,0.3-1
			c0.2-0.7,0.4-1.2,0.5-1.6c0.1-0.4,0.3-0.7,0.4-0.8l0.2-0.1l-0.1-0.1c0-0.1,0.1-0.2,0.2-0.4c0.2-0.3,0.4-0.5,0.7-0.5
			c0.1,0,0.1,0,0.2,0c0.1,0,0.2,0.1,0.2,0.1c0,0,0.1,0.1,0.1,0.1c0,0,0.1,0,0.1,0c0.1,0,0.2,0,0.3,0c0.3,0,0.6,0.2,1,0.5
			c0.3,0.2,0.7,0.6,1,1c0.2,0.1,0.4,0.2,0.6,0.5c0.1,0.3,0.1,0.5,0.1,0.7l0,0.2c0,0.2-0.1,0.3-0.1,0.5c-0.1,0.6-0.3,1.3-0.4,2.2
			c0,0.2-0.1,0.5-0.1,0.6l0,0.7c0,0.4,0,0.7,0,0.9c0,0,0,0,0,0c0.1,0,0.2,0.1,0.2,0.2c0,0,0,0.1,0.1,0.3C76,53.8,76,53.9,76,54
			c0,0.2-0.2,0.4-0.4,0.6c-0.1,0.1-0.1,0.1-0.1,0.1c0,0,0,0.2,0,0.3c0,0.3,0,0.6,0,0.9c0,0.3,0.1,0.6,0.1,0.9c0,0.2,0.1,0.2,0.1,0.2
			s0,0,0,0c0.1,0,0.3,0.2,0.3,0.4l0,0.2c0,0,0,0.2,0,0.2c-0.1,0.3-0.2,0.4-0.3,0.5c-0.1,0.1-0.2,0.1-0.3,0.1c0,0,0,0,0,0
			c0,0-0.1,0-0.2,0.1c-0.2,0.1-0.4,0.2-0.6,0.2C74.6,58.7,74.5,58.7,74.5,58.6L74.5,58.6z M72.5,51.9l0.7,0.1v-0.3l0-0.4
			c0-0.2,0-0.3,0-0.4c0-0.1,0-0.1,0-0.2l0.2-1.3c0-0.1,0-0.2,0-0.3c0-0.1,0-0.2,0-0.2c0-0.2,0-0.4,0-0.5l0-0.3c0-0.1,0-0.3,0.1-0.4
			l0-0.2c0-0.1,0-0.1,0-0.1l-0.1-0.1c0,0-0.2,0.5-0.2,0.8l-0.7,2.5c-0.1,0.4-0.2,0.7-0.3,1c0,0.1-0.1,0.2-0.1,0.3c0,0,0,0,0.1,0
			C72.4,51.9,72.4,51.9,72.5,51.9L72.5,51.9z"/>
		<path class="st3" d="M72.9,44.9c0,0,0.1,0,0.2,0c0.1,0,0.1,0.1,0.2,0.1l0.1,0.1c0,0,0,0,0,0c0,0,0,0.1,0.1,0.1l0,0l0,0
			c0,0,0.1,0,0.1,0c0.1,0,0.2,0,0.3,0c0,0,0,0,0.1,0c0.2,0,0.4,0.2,0.8,0.4c0.3,0.2,0.6,0.6,0.9,1c0.3,0.1,0.4,0.2,0.5,0.5
			c0,0,0,0,0,0c0,0.2,0.1,0.4,0,0.6l0,0.2c0,0.2-0.1,0.3-0.1,0.5c-0.1,0.5-0.3,1.2-0.4,2.2c0,0.2-0.1,0.5-0.1,0.6l0,0.7
			c0,0.3,0,0.6,0,0.9c0,0.1,0,0.2,0,0.2h0h0c0.1,0,0.2,0.1,0.2,0.2c0,0,0,0.1,0.1,0.3c0.1,0.3,0.1,0.4,0.1,0.5
			c0,0.2-0.1,0.3-0.4,0.5c-0.1,0.1-0.1,0.1-0.2,0.1c0,0,0,0.2,0,0.5v0.1c0,0.3,0,0.6,0,0.8c0,0.3,0.1,0.6,0.1,0.9
			c0,0.2,0.1,0.3,0.1,0.3c0,0,0,0,0,0c0.1,0,0.2,0.2,0.2,0.3c0,0,0,0,0,0.1l0.1,0.2c0,0,0,0.1,0,0.1c0,0,0,0.1,0,0.1
			c0,0.1-0.1,0.2-0.2,0.2c-0.1,0.1-0.2,0.1-0.2,0.1c0,0,0,0,0,0l0,0c0,0-0.1,0-0.3,0.1c-0.2,0.1-0.4,0.2-0.5,0.2c0,0-0.1,0-0.1,0
			c-0.2,0-0.6-0.3-0.7-0.4h-0.1c-0.1,0-0.3-0.2-0.4-0.4c-0.1-0.2-0.2-0.4-0.2-0.5l0-0.1c0-0.1,0-0.2,0-0.4l0.1-0.6l0-0.7
			c0-0.4,0-0.6,0-0.7c0,0-0.1,0-0.2,0h-0.1c-0.1,0-0.3,0-0.4,0c-0.2,0-0.3,0-0.5,0h-0.1c-0.1,0-0.1,0-0.2,0c0,0-0.1,0-0.2,0l-0.1,0
			c-0.1,0-0.2-0.1-0.3-0.1c0,0-0.1,0.1-0.4,0.7c-0.4,0.9-0.6,1.3-1.1,1.8c-0.1,0.2-0.2,0.2-0.3,0.3c-0.1,0.1-0.2,0.1-0.3,0.1
			c0,0-0.1,0-0.1,0c-0.1,0-0.2,0-0.4-0.2c-0.1-0.1-0.2-0.1-0.2-0.1h0c-0.1,0-0.2,0-0.2,0c0,0,0,0,0,0c-0.4-0.1-0.5-0.4-0.5-0.6
			c0-0.1,0.1-0.4,0.5-0.9c0.3-0.4,0.6-1,1-1.7c0-0.1,0.2-0.6,0.4-0.9c0.1-0.4,0.3-0.8,0.4-1.2l0.2-0.6c0.2-0.6,0.4-1.3,0.6-1.8
			c0.2-0.5,0.3-0.9,0.3-1c0.2-0.7,0.4-1.2,0.5-1.6c0.1-0.4,0.2-0.6,0.3-0.8l0-0.1c0,0,0-0.1,0.1-0.2c0-0.1,0.1-0.2,0.2-0.3
			C72.4,45.1,72.6,45,72.9,44.9 M72.1,52.1C72.1,52.1,72.1,52.1,72.1,52.1c0.1,0,0.2,0,0.3,0c0,0,0.1,0,0.1,0l0.7,0.1c0,0,0,0,0,0
			c0,0,0.1,0,0.1,0l0,0c0,0,0,0,0-0.1l0-0.4c0,0,0-0.1,0-0.2c0-0.1,0-0.1,0-0.2c0-0.2,0-0.3,0-0.4c0-0.1,0-0.2,0-0.2l0.2-1.3
			c0-0.1,0-0.2,0.1-0.3c0-0.1,0-0.2,0-0.3c0-0.2,0-0.3,0-0.4l0-0.3c0-0.1,0-0.2,0.1-0.4l0-0.3c0-0.2,0-0.2,0-0.2c0,0,0-0.1-0.1-0.1
			s-0.1,0-0.1-0.1c0,0-0.1,0-0.1-0.1c0,0,0,0,0,0l-0.1,0.2c-0.1,0.2-0.1,0.4-0.2,0.7l-0.1,0.4c-0.1,0.2-0.2,0.5-0.2,0.8
			c-0.1,0.3-0.2,0.6-0.3,0.9l-0.1,0.4c-0.1,0.5-0.2,0.8-0.3,1C72.1,51.9,72.1,52,72.1,52.1C72.1,52.1,72.1,52.1,72.1,52.1
			 M72.9,44.6L72.9,44.6c-0.4,0-0.7,0.2-0.9,0.6c-0.1,0.1-0.2,0.3-0.2,0.4l0,0.1c0,0,0,0.1,0,0.1c-0.1,0.2-0.3,0.6-0.4,0.8
			c-0.1,0.4-0.3,1-0.5,1.7c0,0.1-0.1,0.4-0.3,0.9c-0.2,0.5-0.4,1.1-0.6,1.8l-0.2,0.6l0,0.1c-0.1,0.4-0.3,0.8-0.4,1.1
			C69.2,53,69,53.5,69,53.6c-0.4,0.7-0.7,1.3-0.9,1.6c-0.5,0.6-0.6,0.9-0.6,1.1c-0.1,0.4,0.2,0.9,0.7,1c0,0,0.1,0,0.1,0
			c0.1,0,0.1,0,0.2,0c0,0,0,0,0.1,0.1c0.2,0.2,0.4,0.3,0.5,0.3c0,0,0.1,0,0.2,0c0.2,0,0.3-0.1,0.5-0.2c0.1-0.1,0.2-0.2,0.3-0.3
			c0.5-0.5,0.8-0.9,1.2-1.9c0.1-0.2,0.2-0.4,0.2-0.5c0,0,0,0,0,0l0.1,0c0.1,0,0.1,0.1,0.2,0.1c0,0,0.1,0,0.2,0h0.1
			c0.1,0,0.3,0,0.5,0h0.4l0.1,0c0,0.1,0,0.2,0,0.3l0,0.7l-0.1,0.6c0,0.2,0,0.3,0,0.4l0,0c0,0.4,0.1,0.6,0.3,0.9
			c0.1,0.2,0.3,0.4,0.6,0.5h0c0.2,0.1,0.6,0.3,0.8,0.4c0,0,0.1,0,0.1,0c0.2,0,0.4-0.1,0.6-0.2c0.1,0,0.1-0.1,0.1-0.1c0,0,0,0,0.1,0
			c0.1,0,0.2,0,0.4-0.1c0.2-0.1,0.3-0.3,0.4-0.5c0-0.1,0-0.1,0-0.2c0,0,0-0.1,0-0.2l0-0.1c0-0.3-0.1-0.5-0.3-0.6c0,0,0,0,0-0.1
			c-0.1-0.3-0.1-0.6-0.1-0.9c0-0.3,0-0.6,0-0.8v-0.1c0-0.1,0-0.2,0-0.3l0,0c0.3-0.2,0.5-0.4,0.5-0.7c0-0.1,0-0.3-0.1-0.6
			C76.1,53.1,76,53,76,53c0-0.1-0.1-0.2-0.2-0.3c0-0.3,0-0.6,0-0.9l0-0.7c0-0.2,0-0.4,0.1-0.6c0.1-1,0.3-1.7,0.4-2.2
			c0-0.2,0.1-0.4,0.1-0.5l0-0.2c0-0.3,0-0.5,0-0.7c0,0,0-0.1,0-0.1c-0.1-0.3-0.3-0.5-0.6-0.6c-0.3-0.4-0.6-0.7-0.9-1
			c-0.4-0.3-0.7-0.4-0.9-0.5c0,0-0.1,0-0.1,0c-0.1,0-0.1,0-0.3,0c0,0,0,0,0,0c0,0,0,0,0,0l-0.1-0.1c-0.1-0.1-0.2-0.1-0.3-0.2
			C73.1,44.5,73,44.5,72.9,44.6L72.9,44.6L72.9,44.6z M72.5,51.7C72.5,51.7,72.5,51.7,72.5,51.7c0.1-0.4,0.2-0.7,0.3-1.1l0.1-0.4
			c0.1-0.3,0.2-0.6,0.3-0.9c0.1-0.3,0.2-0.5,0.2-0.8l0,0c0,0.1,0,0.2,0,0.4c0,0,0,0.1,0,0.2c0,0.1,0,0.2,0,0.3l-0.2,1.3
			c0,0,0,0.1,0,0.2c0,0,0,0.2,0,0.4c0,0.1,0,0.1,0,0.2c0,0.1,0,0.2,0,0.2v0.1L72.5,51.7C72.5,51.8,72.5,51.8,72.5,51.7L72.5,51.7
			L72.5,51.7z"/>
	</g>
	<g>
		<path class="st0" d="M52.3,58c-0.3-0.1-0.5-0.3-0.8-0.6c-0.2-0.3-0.4-0.6-0.4-1c0-0.3-0.1-0.9,0.3-2.6l0.1-0.4
			c0-0.1,0-0.2,0.1-0.3c0,0,0-0.2,0-0.3c-0.1,0-0.3,0-0.5-0.1l-0.2,0c-0.2,0-0.3,0-0.5-0.1h0c0,0.1,0,0.2-0.1,0.3l-0.4,1.2
			c-0.3,1.1-0.5,1.6-0.6,1.8c0,0.1-0.1,0.2-0.2,0.4c-0.3,0.4-0.5,0.6-0.8,0.8c-0.1,0.1-0.3,0.1-0.4,0.1c-0.1,0-0.2,0-0.2,0
			c-0.2-0.1-0.4-0.2-0.6-0.3c-0.2-0.2-0.3-0.5-0.3-0.8c-0.2-0.2-0.3-0.4-0.2-0.7c0.1-0.3,0.3-0.4,0.5-0.5c0.1-0.2,0.1-0.3,0.2-0.5
			c0-0.1,0.2-0.5,0.2-0.5l0-0.2c0-0.1,0.1-0.2,0.1-0.3l0.1-0.4l0.2-0.9c0-0.1,0.1-0.2,0.1-0.3c0,0-0.1-0.1-0.1-0.1
			c-0.2-0.3-0.2-0.6-0.1-1c0.1-0.4,0.1-0.6,0.2-0.8c0.1-0.3,0.3-0.4,0.4-0.4l0.2,0.1c0.1-0.2,0.2-0.7,0.5-1.9l0-0.2
			c0-0.1,0-0.2,0-0.3l0.1-0.4c0-0.2,0.1-0.4,0.2-0.6l0-0.1c0,0-0.1-0.1-0.1-0.2c-0.1-0.1-0.1-0.3,0-0.5c0.1-0.4,0.3-0.7,0.7-1
			c0.3-0.2,0.6-0.3,0.9-0.3c0.1,0,0.2,0,0.2,0c0.1,0,0.2,0.1,0.4,0.2l0.1,0.1c0,0,0.1,0.1,0.1,0.1l0,0.3l0.1-0.1
			c0,0,0.1,0.1,0.2,0.2c0.1,0.2,0.2,0.3,0.2,0.4c0.1,0.3,0.1,0.5,0.1,0.7c0,0.1,0,0.2-0.2,0.4c-0.1,0-0.1,0.1-0.2,0.1
			c0,0.1-0.1,0.2-0.1,0.3c-0.1,0.4-0.3,0.9-0.4,1.4c-0.1,0.5-0.3,1-0.3,1.4L51,50h0.2c0,0,0.1,0,0.1,0l0.2,0c0.1,0,0.3,0.1,0.5,0.1
			c0.3,0,0.3-0.1,0.3-0.1c0-0.3,0.1-0.5,0.2-0.8c0.1-0.2,0.1-0.3,0.2-0.4l0.2-0.1l-0.1-0.1l0.1-0.2c0-0.1,0-0.2,0.1-0.5
			c0-0.1,0.1-0.3,0.2-0.5c0,0,0,0,0,0c0-0.1,0-0.1,0.1-0.2l0.1-0.7c0-0.2,0.1-0.3,0.1-0.4c-0.1-0.2-0.1-0.3-0.1-0.5
			c0.1-0.3,0.4-0.8,0.7-0.8c0.2,0,0.3,0.1,0.4,0.2c0.2,0,0.3,0,0.4,0c0.3,0,0.4,0,0.4,0c0.1-0.1,0.3-0.1,0.4-0.1c0.1,0,0.1,0,0.2,0
			c0.1,0,0.2,0.1,0.2,0.1c0.2,0.1,0.3,0.3,0.3,0.5c0,0.2,0,0.3,0,0.4c0,0.1,0,0.2,0,0.3c0,0.1-0.1,0.2-0.2,0.3l-0.1,0.2
			c-0.1,0.1-0.2,0.3-0.3,0.6l-0.1,0.5c0,0,0,0.1-0.1,0.1l-0.1,0.4c-0.1,0.2-0.1,0.4-0.2,0.6c-0.1,0.2-0.2,0.4-0.2,0.6l-0.2,0.1
			l0.1,0.1c-0.1,0.3-0.1,0.5-0.2,0.5c0,0.1,0,0.2,0,0.2c0.2,0.1,0.3,0.1,0.4,0.3c0.2,0.2,0.2,0.5,0.2,0.7c0,0.1,0,0.2-0.1,0.3
			L55,52.1l0.1-0.1c0.1,0.2,0.1,0.5,0.1,0.8c0,0.2-0.1,0.3-0.2,0.4c-0.1,0.1-0.2,0.2-0.4,0.2c-0.1,0-0.2,0-0.2-0.1l-0.2-0.1L54,53.2
			l0,0.1c-0.1,0.1-0.1,0.3-0.1,0.4c0,0.1,0,0.2,0,0.3l0,0.4c0,0.2,0,0.4-0.1,0.6c0,0.1-0.1,0.5,0,0.6l0.1-0.1l0.1,0l0.4-0.1h0.2
			c0.2,0,0.3,0.2,0.4,0.3c0.1,0.2,0.1,0.3,0.1,0.5c0,0.1,0,0.2-0.2,0.4l0,0.2c-0.1,0.2-0.1,0.3-0.2,0.4c-0.1,0.1-0.2,0.2-0.3,0.2
			c-0.1,0-0.2,0.1-0.3,0.2l-0.4,0.2c0,0-0.1,0-0.1,0l-0.5,0.1c-0.1,0-0.1,0-0.2,0c-0.1,0-0.1,0-0.2,0C52.5,58,52.3,57.9,52.3,58
			L52.3,58z"/>
		<path class="st3" d="M50.8,44.4c0.1,0,0.1,0,0.2,0c0.1,0,0.2,0.1,0.3,0.2l0.1,0.1c0,0,0.1,0.1,0.1,0.1c0,0,0,0,0,0l0.1,0.1
			c0,0,0.1,0.1,0.2,0.2c0.1,0.1,0.2,0.3,0.2,0.4c0.1,0.2,0.1,0.4,0.1,0.6c0,0.1,0,0.2-0.1,0.2c-0.1,0-0.1,0.1-0.2,0.1
			c0,0.1-0.1,0.2-0.2,0.5c-0.1,0.4-0.3,0.9-0.4,1.4c-0.1,0.5-0.3,1-0.3,1.4c-0.1,0.3-0.1,0.5-0.1,0.6c0.1,0,0.2,0,0.4,0c0,0,0,0,0,0
			c0,0,0.1,0,0.2,0l0.1,0c0.1,0,0.3,0.1,0.5,0.1c0.4,0,0.4-0.1,0.4-0.1c0.1-0.3,0.1-0.6,0.2-0.9c0.1-0.2,0.1-0.3,0.1-0.4l0-0.1
			c0,0,0-0.1,0-0.1c0,0,0-0.1,0-0.1l0-0.1c0-0.1,0-0.3,0.1-0.5c0-0.1,0.1-0.2,0.2-0.4c0,0,0,0,0-0.1c0-0.1,0-0.1,0-0.1l0,0l0.1-0.7
			c0-0.2,0.1-0.3,0.1-0.4c0,0,0,0,0-0.1c-0.1-0.1-0.1-0.3-0.1-0.4c0.1-0.3,0.3-0.7,0.6-0.7c0,0,0,0,0.1,0c0.1,0,0.1,0.1,0.3,0.2h0.1
			c0.2,0,0.3,0,0.4,0c0.3,0,0.4,0,0.4,0c0.1,0,0.3-0.1,0.4-0.1c0,0,0.1,0,0.1,0h0.1c0,0,0.1,0,0.1,0.1c0.1,0.1,0.2,0.2,0.3,0.4
			c0,0.1,0,0.3,0,0.4c0,0.2,0,0.2,0,0.3c0,0.1,0,0.1-0.2,0.3l-0.1,0.1c-0.1,0.2-0.2,0.4-0.3,0.6l-0.1,0.5c0,0,0,0,0,0.1
			c0,0,0,0.1-0.1,0.3l-0.1,0.2c-0.1,0.2-0.1,0.4-0.2,0.6c-0.1,0.2-0.2,0.5-0.3,0.7l0,0.1c-0.1,0.4-0.1,0.5-0.2,0.5
			c0,0.2,0,0.3-0.1,0.4c0,0,0,0,0,0c0.1,0.1,0.3,0.1,0.5,0.3c0,0,0,0,0,0c0.1,0.1,0.1,0.3,0.1,0.5c0,0.1,0,0.1-0.1,0.2
			c0,0.1-0.1,0.1-0.1,0.2c0,0,0,0.1,0.1,0.2c0.1,0.2,0.1,0.4,0.1,0.6c0,0.1-0.1,0.2-0.2,0.3c0,0.1-0.1,0.1-0.3,0.1c0,0,0,0-0.1,0
			c0,0-0.1,0-0.1,0l-0.2-0.1L53.8,53c0,0,0,0.1-0.1,0.2c-0.1,0.1-0.1,0.3-0.1,0.4c0,0.1,0,0.2,0,0.3l0,0.4c0,0.2,0,0.4-0.1,0.6
			c0,0.2-0.1,0.6,0,0.7c0,0,0,0,0.1,0.1h0c0,0,0.1,0,0.1,0l0.1,0c0,0,0.1,0,0.1,0c0,0,0.1,0,0.1,0c0,0,0,0,0,0c0.1,0,0.1,0,0.1,0
			c0,0,0,0,0,0s0,0,0,0c0.1,0,0.2,0.1,0.3,0.2s0.1,0.3,0,0.4c0,0,0,0.1-0.2,0.3l0,0.3c0,0,0,0,0,0.1c0,0.1-0.1,0.2-0.1,0.2
			c-0.1,0.1-0.2,0.2-0.2,0.2c-0.1,0-0.2,0.1-0.3,0.2l-0.4,0.2c0,0,0,0-0.1,0l-0.5,0.1c-0.1,0-0.1,0-0.2,0c-0.1,0-0.1,0-0.2,0
			c0,0-0.1,0-0.1,0c-0.3-0.1-0.5-0.2-0.7-0.5c-0.2-0.3-0.3-0.6-0.4-0.9c0-0.3-0.1-0.8,0.3-2.5l0.1-0.4c0-0.1,0-0.2,0.1-0.3l0-0.2
			c0-0.2,0-0.3,0-0.3c0,0,0,0,0,0c-0.1,0-0.4-0.1-0.7-0.1l-0.2,0c-0.2,0-0.3,0-0.5-0.1c0,0-0.1,0-0.2,0c0,0.1-0.1,0.2-0.1,0.5
			c-0.1,0.4-0.2,0.8-0.3,1.2c-0.3,1.1-0.5,1.6-0.6,1.8c0,0.1-0.1,0.2-0.2,0.4c-0.2,0.4-0.5,0.6-0.8,0.7c-0.1,0.1-0.3,0.1-0.4,0.1
			c-0.1,0-0.1,0-0.2,0c-0.2-0.1-0.4-0.2-0.5-0.3c-0.2-0.1-0.3-0.4-0.2-0.6c0,0,0-0.1,0-0.1l0,0c-0.2-0.1-0.3-0.3-0.2-0.6
			c0-0.2,0.2-0.3,0.4-0.4c0,0,0,0,0.1-0.2c0-0.1,0.1-0.2,0.2-0.4c0-0.1,0.1-0.2,0.1-0.3c0-0.1,0.1-0.2,0.1-0.2c0-0.1,0-0.1,0.1-0.2
			c0-0.1,0-0.2,0.1-0.2l0.1-0.4l0.2-0.9c0-0.2,0.1-0.3,0.1-0.4c0,0,0,0,0,0c0,0,0,0,0,0c-0.1,0-0.1-0.1-0.2-0.1
			c-0.1-0.2-0.2-0.5-0.1-0.9v-0.1c0.1-0.3,0.1-0.5,0.2-0.8c0-0.2,0.2-0.3,0.3-0.3c0,0,0.1,0,0.1,0l0.2,0.1c0.1-0.1,0.3-0.6,0.6-2.1
			l0-0.2c0-0.1,0-0.2,0-0.3l0.1-0.4c0-0.2,0.1-0.4,0.2-0.6l0-0.1c0,0,0-0.1,0-0.2c-0.1,0-0.1-0.1-0.2-0.2c-0.1-0.1-0.1-0.2,0-0.4
			c0.1-0.3,0.3-0.6,0.6-0.9C50.2,44.6,50.5,44.5,50.8,44.4 M50.8,44.1c-0.4,0-0.7,0.1-1,0.3c-0.4,0.3-0.6,0.7-0.7,1.1
			c-0.1,0.3,0,0.5,0.1,0.7c0,0,0,0.1,0.1,0.1c-0.1,0.2-0.1,0.4-0.2,0.6L49,47.2c0,0.1,0,0.2,0,0.3l0,0.1c-0.2,1-0.3,1.5-0.4,1.7
			c0,0-0.1,0-0.1,0c-0.2,0-0.5,0.2-0.6,0.6c0,0.2-0.1,0.5-0.2,0.7l0,0.1c-0.1,0.4,0,0.8,0.2,1.1c0,0,0,0.1,0.1,0.1
			c0,0.1,0,0.1-0.1,0.2l-0.2,0.9l-0.1,0.4c0,0,0,0.2-0.1,0.3c0,0.1,0,0.1,0,0.2c0,0.1,0,0.1-0.1,0.2c0,0.1-0.1,0.2-0.1,0.3
			c0,0.2-0.1,0.3-0.1,0.4c0,0,0,0,0,0c-0.2,0.1-0.5,0.2-0.5,0.6c-0.1,0.3,0,0.6,0.2,0.8c0,0.4,0.1,0.7,0.4,0.9
			c0.2,0.2,0.4,0.3,0.6,0.3c0.1,0,0.2,0,0.3,0c0.2,0,0.3,0,0.5-0.1c0.3-0.2,0.6-0.4,0.9-0.8c0.1-0.2,0.2-0.3,0.2-0.5
			c0.1-0.2,0.3-0.8,0.6-1.8c0.1-0.4,0.2-0.8,0.3-1.2c0-0.1,0-0.2,0-0.2c0.1,0,0.3,0,0.4,0l0.2,0c0.1,0,0.3,0,0.4,0l0,0.1
			c0,0,0,0.2-0.1,0.3l-0.1,0.5c-0.4,1.8-0.4,2.3-0.3,2.7c0.1,0.4,0.2,0.8,0.5,1.1c0.2,0.3,0.5,0.6,0.8,0.6c0.1,0,0.1,0,0.2,0
			c0.1,0,0.1,0,0.2,0c0,0,0.1,0,0.1,0l0.5-0.1c0,0,0.1,0,0.2-0.1l0.4-0.2c0.1-0.1,0.2-0.1,0.3-0.2c0.1-0.1,0.3-0.2,0.4-0.3
			c0.1-0.1,0.2-0.2,0.2-0.3c0,0,0-0.1,0-0.1l0-0.2c0.1-0.2,0.1-0.2,0.2-0.4c0-0.2,0-0.5-0.1-0.7c-0.1-0.2-0.3-0.3-0.5-0.4
			c0,0-0.1,0-0.1,0c0,0-0.1,0-0.1,0h-0.1c0,0-0.1,0-0.1,0c0,0,0,0-0.1,0c-0.1,0-0.1,0-0.2,0h0c0-0.1,0-0.2,0-0.3
			c0-0.2,0.1-0.4,0.1-0.6l0-0.4c0-0.1,0-0.2,0-0.3c0-0.1,0-0.2,0.1-0.3l0.2,0l0.1,0.1c0,0,0.1,0.1,0.2,0.1c0,0,0.1,0,0.1,0
			c0.2,0,0.3-0.1,0.5-0.2c0.1-0.1,0.2-0.3,0.3-0.5c0.1-0.3,0-0.6-0.1-0.9c0.1-0.1,0.1-0.2,0.1-0.3c0.1-0.3,0-0.6-0.2-0.8
			c0,0-0.1-0.1-0.1-0.1c-0.1-0.1-0.2-0.2-0.4-0.2c0,0,0-0.1,0-0.1c0-0.1,0-0.2,0.1-0.5l0-0.1c0.1-0.2,0.2-0.5,0.3-0.7
			c0.1-0.2,0.1-0.4,0.2-0.6l0.1-0.2l0.1-0.2c0,0,0-0.1,0-0.1l0.1-0.5c0-0.2,0.1-0.4,0.2-0.5l0.1-0.1c0.2-0.2,0.2-0.3,0.3-0.5
			c0,0,0-0.1,0-0.3c0-0.1,0-0.3,0-0.5c-0.1-0.2-0.2-0.4-0.4-0.6c-0.1,0-0.1-0.1-0.2-0.1h-0.1c-0.1,0-0.1,0-0.2,0
			c-0.1,0-0.3,0-0.4,0.1l0,0c0,0-0.1,0-0.3,0c-0.1,0-0.2,0-0.3,0c-0.1-0.1-0.2-0.2-0.3-0.2c0,0-0.1,0-0.1,0c-0.4,0-0.8,0.6-0.9,1
			c0,0.2,0,0.4,0,0.5c-0.1,0.1-0.1,0.2-0.1,0.4L53,47.4c0,0.1,0,0.1-0.1,0.2v0c-0.1,0.2-0.2,0.4-0.2,0.5c0,0.3-0.1,0.4-0.1,0.5v0
			c0,0,0,0.1,0,0.1l0,0.1c0,0.1-0.1,0.2-0.2,0.4c-0.1,0.2-0.1,0.5-0.2,0.7c0,0-0.1,0-0.2,0c-0.2,0-0.4,0-0.5-0.1l-0.1,0
			c-0.1,0-0.1,0-0.2,0l0,0c0,0,0-0.1,0-0.1c0.1-0.4,0.2-0.9,0.3-1.4c0.1-0.5,0.2-0.9,0.4-1.3c0-0.1,0.1-0.2,0.1-0.3
			c0,0,0.1,0,0.1-0.1c0.2-0.2,0.3-0.4,0.3-0.5c0.1-0.3,0-0.6-0.1-0.8c-0.1-0.2-0.1-0.3-0.3-0.4c-0.1-0.1-0.1-0.2-0.2-0.2l-0.1-0.1
			c0,0-0.1-0.1-0.1-0.1c0,0-0.1-0.1-0.1-0.1l-0.1-0.1c-0.1-0.1-0.2-0.2-0.4-0.3C51,44.1,50.9,44.1,50.8,44.1L50.8,44.1L50.8,44.1z"
			/>
	</g>
</g>
</svg>
