<?xml version="1.0" encoding="UTF-8"?>
<svg id="Layer_1" data-name="Layer 1" xmlns="http://www.w3.org/2000/svg" xmlns:xlink="http://www.w3.org/1999/xlink" viewBox="0 0 76.54 59.53">
  <defs>
    <style>
      .cls-1 {
        fill: url(#linear-gradient);
      }

      .cls-2 {
        fill: #b50828;
      }

      .cls-3 {
        fill: #FFC531;
      }

      .cls-4 {
        fill: #181716;
      }

      .cls-5 {
        fill: #FFC531;
      }
    </style>
    <linearGradient id="linear-gradient" x1="34.74" y1="43.21" x2="39.06" y2="23.89" gradientUnits="userSpaceOnUse">
      <stop offset="0" stop-color="#fff" stop-opacity="0"/>
      <stop offset="1" stop-color="#fff"/>
    </linearGradient>
  </defs>
  <g>
    <polygon class="cls-3" points="15.44 18.15 15.44 18.15 15.44 18.14 15.44 18.15"/>
    <path class="cls-2" d="M62.31,28.67c-.08-.36-.38-.83-.87-1.31-.49-.48-1.17-.99-1.99-1.49-.83-.5-1.79-1-2.87-1.51-2.16-1-4.76-2-7.59-2.92-1.41-.46-2.89-.89-4.4-1.32-1.51-.42-3.04-.81-4.59-1.18-1.54-.37-3.1-.71-4.63-1-1.54-.29-3.05-.57-4.52-.79-1.47-.22-2.9-.4-4.26-.54-1.36-.13-2.64-.22-3.83-.25-1.19-.03-2.28-.01-3.24.06-.96.08-1.79.23-2.45.44-.65.21-1.13.5-1.37.78-.11.15-.19.26-.22.36-.04.09-.05.13-.05.13,0,0,0,0,0,0-.43,1.83,3.57,4.47,9.94,6.94l-3.04,3.36c-.45-.13-.95,0-1.28.37-.47.52-.43,1.32.09,1.79.52.47,1.32.43,1.79-.09.33-.37.4-.88.23-1.31l3.33-3.69c1.29.47,2.66.94,4.1,1.39l2.4-3.2h.01c.27-.6,2.9-.54,6,.14,3.1.68,5.51,1.74,5.5,2.4h.01s.87,4.12.87,4.12c1.41.22,2.76.4,4.05.54l1.36,4.4c-.34.32-.49.81-.34,1.29.21.67.92,1.04,1.58.83.67-.21,1.04-.92.83-1.58-.15-.47-.55-.79-1.01-.87l-1.22-3.95c6.63.6,11.24.02,11.67-1.78,0,0,0-.05.01-.15.02-.1,0-.24-.03-.42Z"/>
    <path class="cls-3" d="M18.36,18.42s.12-.06.23-.07c.1-.01.23-.01.38,0,.15,0,.32.03.5.06.18.03.38.07.58.12.07.02.13.03.2.05.07.02.13.04.2.05.07.02.14.04.2.06.07.02.14.04.21.07.28.09.53.19.75.29.21.1.39.19.52.28.13.09.22.17.26.24.04.07.02.13-.05.17-.05.03-.14.05-.24.06-.11,0-.23,0-.38,0-.14-.01-.31-.03-.48-.06-.18-.03-.36-.07-.56-.11-.06-.01-.13-.03-.19-.05-.06-.02-.13-.03-.19-.05-.06-.02-.13-.04-.2-.06-.07-.02-.13-.04-.2-.06-.27-.09-.51-.18-.73-.27-.21-.09-.39-.19-.53-.27-.14-.09-.24-.17-.29-.24-.05-.07-.05-.14.01-.18Z"/>
    <path class="cls-3" d="M19.63,20.95c-.23-.08-.45-.16-.65-.24-.19-.08-.36-.16-.5-.24-.13-.08-.23-.15-.27-.22-.05-.07-.04-.12.01-.15.05-.03.16-.06.3-.06.14,0,.32,0,.53.04.21.03.45.07.71.14.26.06.52.14.76.21.24.08.47.16.66.25.2.08.36.17.49.25.13.08.21.15.25.22.04.06.02.11-.04.14-.06.03-.17.05-.31.05-.14,0-.32-.01-.52-.04-.2-.03-.44-.07-.69-.13-.25-.06-.5-.13-.73-.21Z"/>
    <path class="cls-3" d="M24.15,23.22c-.06.03-.16.04-.3.04-.14,0-.31-.02-.51-.05-.05,0-.1-.02-.15-.03-.05,0-.1-.02-.16-.03-.05-.01-.11-.02-.16-.03-.05-.01-.11-.02-.16-.04-.17-.04-.33-.08-.5-.13-.16-.05-.32-.1-.47-.15-.15-.05-.29-.11-.42-.16-.13-.06-.24-.11-.33-.17-.12-.07-.2-.14-.23-.19-.03-.05-.02-.09.03-.12.05-.03.15-.04.28-.04.13,0,.31.01.52.05.05,0,.1.02.16.03.05,0,.11.02.16.03.05.01.11.02.17.03.06.01.11.03.17.04.17.04.35.09.52.14.17.05.33.1.49.16.15.06.3.11.42.17.13.06.24.11.33.17.12.07.19.13.21.19.02.05,0,.09-.06.11Z"/>
    <path class="cls-3" d="M26.12,18.98c-.08.05-.21.07-.4.08-.09,0-.2,0-.31,0-.11,0-.23-.02-.35-.03-.12-.02-.25-.04-.38-.06-.13-.02-.27-.05-.4-.09-.14-.03-.27-.07-.41-.11-.14-.04-.27-.08-.41-.13-.13-.04-.27-.09-.4-.14-.13-.05-.25-.1-.37-.16-.24-.11-.43-.21-.57-.31-.14-.1-.23-.19-.27-.27-.04-.08-.03-.15.04-.2.07-.05.2-.08.38-.09.09,0,.2,0,.31,0,.11,0,.23.02.36.03.13.02.26.04.4.06.14.03.28.06.42.09.14.03.29.07.43.11.14.04.29.09.43.13.14.05.28.1.41.15.13.05.26.11.38.16.24.11.42.22.56.32.13.1.21.19.24.26.03.08,0,.14-.08.18Z"/>
    <path class="cls-3" d="M33.12,19.41c-.11.04-.26.07-.46.08-.2,0-.45,0-.73-.04-.07,0-.14-.02-.21-.03-.07-.01-.14-.02-.21-.04-.07-.01-.14-.03-.21-.04-.07-.02-.14-.03-.21-.05-.22-.05-.44-.11-.65-.18-.21-.07-.41-.14-.6-.21-.19-.08-.36-.16-.52-.24-.15-.08-.29-.16-.39-.25-.14-.11-.22-.21-.23-.29-.02-.08.02-.15.12-.2.1-.05.25-.08.45-.09.2-.01.45,0,.74.04.07,0,.14.02.22.03.07.01.15.02.22.04.07.01.15.03.22.04.08.02.15.03.23.05.23.06.46.12.68.19.22.07.43.15.63.23.19.08.37.16.52.25.15.08.28.17.38.25.13.11.19.21.19.29,0,.08-.05.14-.16.19Z"/>
    <path class="cls-3" d="M42.35,20.89c-.03.08-.12.14-.26.18-.14.04-.33.06-.55.06-.22,0-.48-.01-.76-.05-.28-.04-.59-.09-.9-.17-.32-.07-.61-.16-.88-.26-.27-.09-.51-.2-.71-.3-.2-.1-.36-.21-.47-.31-.11-.1-.16-.2-.15-.28.01-.08.09-.15.21-.2.13-.05.31-.07.54-.08.23,0,.49,0,.78.04.29.04.61.09.95.17.33.08.65.17.92.27.28.1.52.21.72.31.2.11.35.21.45.31.1.1.14.19.11.28Z"/>
    <path class="cls-3" d="M51.13,23.45c-.05.07-.16.12-.33.16-.13.03-.28.04-.46.05-.17,0-.36,0-.57-.02-.2-.02-.42-.04-.63-.08-.22-.04-.44-.08-.66-.13-.07-.02-.14-.03-.21-.05-.07-.02-.14-.04-.21-.06-.07-.02-.14-.04-.21-.06-.07-.02-.14-.04-.2-.07-.27-.1-.5-.19-.67-.29-.18-.1-.31-.19-.39-.28-.08-.09-.1-.17-.06-.24.04-.07.13-.13.29-.17.12-.03.27-.05.45-.06.17,0,.37,0,.58.01.21.02.43.04.66.08.23.04.46.08.69.14.08.02.15.04.22.06.07.02.15.04.22.06.07.02.15.04.22.07.07.02.14.05.21.07.28.1.51.2.68.3.18.1.3.2.36.29.07.09.07.17.02.24Z"/>
    <path class="cls-3" d="M53.08,25.19c.06-.06.17-.1.33-.13.16-.03.38-.04.64-.03.13,0,.27.01.41.02.14.01.29.03.43.05.15.02.29.05.44.07.15.03.29.06.44.09.14.03.28.07.42.11.13.04.26.08.39.12.12.04.24.09.34.13.1.05.2.09.28.14.16.09.26.18.31.26.04.08.03.14-.04.2-.07.05-.19.09-.36.12-.17.02-.38.03-.64.02-.13,0-.26-.01-.4-.03-.14-.01-.28-.03-.42-.05-.14-.02-.28-.04-.42-.07-.14-.03-.28-.06-.42-.09-.14-.03-.27-.07-.4-.1-.13-.04-.25-.08-.37-.12-.12-.04-.23-.08-.33-.13-.1-.04-.2-.09-.28-.13-.17-.09-.28-.18-.33-.25-.05-.08-.05-.15,0-.2Z"/>
    <path class="cls-3" d="M56.54,30.79c-.05.03-.15.05-.29.06-.11,0-.23,0-.37,0-.14,0-.29-.02-.45-.04-.16-.02-.32-.05-.49-.08-.17-.03-.34-.07-.5-.11-.05-.01-.11-.03-.16-.04-.05-.01-.11-.03-.16-.04-.05-.01-.1-.03-.15-.04-.05-.01-.1-.03-.15-.05-.2-.06-.36-.13-.48-.19-.12-.06-.21-.12-.25-.17-.04-.05-.05-.09,0-.13.04-.03.13-.06.27-.07.1,0,.23,0,.37,0,.14,0,.29.02.45.04.16.02.33.05.51.08.17.03.35.07.52.11.06.01.11.03.17.04.06.01.11.03.16.04.05.02.11.03.16.05.05.02.1.03.15.05.2.07.37.13.49.19.12.06.2.12.24.17.04.05.03.09-.02.12Z"/>
    <path class="cls-3" d="M59.69,30.11c-.07.04-.19.06-.34.07-.15.01-.34,0-.55,0-.21-.01-.44-.04-.68-.08-.24-.04-.5-.09-.75-.15-.25-.06-.48-.13-.68-.19-.2-.07-.36-.13-.49-.2-.13-.07-.22-.13-.26-.19-.04-.06-.04-.11.02-.15.06-.04.17-.07.32-.08.15-.01.33-.01.55,0,.21.01.45.04.7.08.25.04.52.09.78.15.26.06.5.13.7.2.2.07.37.14.5.21.12.07.21.13.24.19.03.06.02.11-.05.15Z"/>
    <path class="cls-3" d="M60.25,28.56c-.07.04-.2.07-.36.09-.16.02-.36.02-.6,0-.23-.01-.49-.04-.77-.08-.07-.01-.14-.02-.2-.03-.07-.01-.14-.02-.2-.04-.07-.01-.13-.03-.2-.04-.06-.01-.13-.03-.19-.04-.19-.05-.38-.1-.55-.15-.17-.05-.33-.11-.46-.16-.14-.06-.25-.11-.34-.17-.09-.06-.16-.11-.19-.16-.05-.07-.03-.13.03-.17.06-.05.18-.08.34-.1.16-.02.36-.02.59-.01.23.01.5.04.79.08.07.01.14.02.21.03.07.01.14.03.21.04.07.01.14.03.21.04.07.01.14.03.2.04.2.05.4.1.57.16.18.06.34.11.47.17.14.06.25.12.34.18.09.06.15.11.17.17.04.07.01.13-.06.17Z"/>
    <polygon class="cls-3" points="51.53 18.52 51.53 18.52 51.53 18.52 51.53 18.52"/>
    <path class="cls-2" d="M51.53,18.52s0,0,0,0c0,0-.34-.12-.92-.33-.29-.11-.64-.24-1.05-.39-.4-.16-.87-.28-1.38-.45-.5-.16-1.05-.34-1.63-.52-.58-.16-1.2-.33-1.84-.51-.32-.09-.64-.19-.97-.27-.33-.08-.67-.16-1.01-.24-.68-.16-1.37-.33-2.05-.48-.69-.14-1.39-.28-2.07-.41-.34-.07-.68-.14-1.01-.2-.34-.05-.67-.11-1-.16-.65-.11-1.29-.21-1.88-.31-.6-.07-1.17-.15-1.7-.21-.53-.06-1.01-.14-1.44-.17-.43-.04-.81-.07-1.12-.1-.62-.06-.97-.1-.97-.1,0,0,.36,0,.98-.01.31,0,.69,0,1.12,0,.43-.01.92.03,1.45.06.53.04,1.11.08,1.72.12.61.07,1.25.15,1.91.24.33.04.67.09,1.01.13.34.05.68.12,1.02.19.69.13,1.39.26,2.09.4.71.16,1.38.34,2.06.51.34.09.67.17,1.01.25.33.09.65.2.97.3.64.2,1.25.4,1.84.59.58.21,1.11.43,1.61.62.5.2.96.36,1.34.56.39.19.73.35,1.01.48.56.27.87.42.88.43-1.03-3.43-4.74-6.55-9.67-7.71-5.11-1.21-10,.05-12.37,2.87-8.78-.14-13.56,2.4-14.05,4.47,0-.01.02-.06.04-.13.02-.1.09-.22.19-.38.22-.31.69-.66,1.35-.91,1.32-.52,3.34-.81,5.75-.84,1.2-.02,2.51.01,3.88.11,1.37.09,2.82.23,4.31.43,1.49.2,3.02.43,4.57.72,1.55.29,3.11.62,4.68.98,1.55.37,3.11.78,4.62,1.21,1.52.43,2.99.91,4.41,1.4,1.42.49,2.77,1.01,4.04,1.55,1.27.53,2.45,1.09,3.52,1.64,2.13,1.11,3.81,2.27,4.76,3.33.48.52.74,1.04.8,1.42.02.19.03.33,0,.43-.02.1-.02.14-.02.14.5-2.11-2.43-6.91-10.81-10.72Z"/>
  </g>
  <path class="cls-1" d="M44.53,26.24h-.01c0-.66-2.4-1.72-5.5-2.4-3.1-.69-5.73-.74-6-.14h-.01s-12.2,16.24-12.2,16.24l27.94,6.17-4.22-19.86Z"/>
  <g>
    <g>
      <path class="cls-5" d="M11.25,50.61c-.08,0-.17-.03-.25-.08-.05-.03-.12-.04-.21-.04l-.27-.13-.21-.05-.23-.21c-.11-.11-.14-.14-.16-.15,0,0-.02,0-.03,0-.07,0-.15-.04-.18-.21-.02-.11,0-.22.06-.3h0s.03-.07-.01-.33c-.07-.44-.14-.91-.21-1.4l-.02-.16c-.07-.54-.14-1.12-.21-1.71-.04-.32-.08-.61-.1-.86l-.04-.38-.05-.38c-.02-.15-.04-.27-.05-.37-.17-1.15-.12-1.21-.08-1.27-.02-.07-.02-.19-.04-.31l-.49.07-.56.06s-.05.03-.12.05c-.1.05-.2.08-.29.1h-.02c-.16,0-.24-.07-.26-.17l-.04-.24c-.04-.21-.11-.38-.21-.49-.14-.14-.23-.33-.27-.57-.01-.08.03-.2.13-.35.12-.15.21-.21.29-.23l.6-.05s.15-.04.38-.13c.26-.09.5-.17.74-.2l1.12-.19c.19-.03.36-.06.52-.1.15-.04.29-.07.42-.09.14-.02.26-.04.37-.04.59,0,.77.39.87.97,0,.05,0,.12,0,.23-.03.15-.04.23-.07.31l.07.15c.02.12-.09.35-.22.37h0s-.17-.02-.25-.02l-.19.03c-.19.03-.37.08-.5.12-.05.02-.11.06-.08.23l.03.48c0,.22.02.45.04.71l.03.44c.03.43.05.86.09,1.29.03.43.06.73.09.93l.15.9c.06.33.13.67.2,1,.08.39.16.74.26,1.04.08.29.18.55.29.74.02.03.02.07,0,.11.02.18,0,.43-.23.67-.11.11-.29.18-.57.23h-.06Z"/>
      <path class="cls-4" d="M11.28,39.81c.43,0,.64.22.75.87,0,.05,0,.12,0,.2-.02.08-.03.18-.06.28l.07.22s-.08.2-.12.21c0,0-.14-.02-.23-.02-.02,0-.04,0-.05,0l-.15.03c-.2.03-.38.08-.51.12-.15.06-.2.18-.17.37l.03.46c0,.33.04.71.07,1.15.03.43.05.87.09,1.3.03.43.06.74.1.94l.15.9c.06.35.14.71.21,1.06.07.35.15.69.25,1.01.08.31.19.58.3.76h-.02s0,.02,0,.02v.05c.03.14,0,.36-.19.57-.09.09-.27.15-.5.19-.01,0-.02,0-.04,0-.06,0-.12-.02-.19-.06-.08-.04-.17-.06-.27-.06,0,0-.02,0-.02,0l-.17-.11-.25-.07-.17-.17c-.11-.11-.18-.18-.23-.18,0,0,0,0,0,0h-.02s-.02,0-.02,0c0,0,0,0,0,0-.03,0-.05-.04-.06-.11-.01-.08,0-.16.04-.21.04-.05.05-.2,0-.42-.08-.49-.15-1.01-.23-1.56-.07-.53-.14-1.12-.21-1.72-.07-.49-.11-.9-.15-1.24-.04-.34-.08-.58-.1-.75-.11-.75-.14-1.13-.11-1.19,0-.14,0-.27-.02-.4-.01-.08-.07-.11-.16-.11h0l-.47.08-.57.06s-.04.02-.13.05c-.1.05-.19.08-.27.09-.01,0-.03,0-.04,0-.05,0-.09-.02-.1-.07v-.05s-.04-.2-.04-.2c-.04-.23-.12-.42-.23-.55-.13-.13-.21-.31-.24-.51,0-.05.03-.13.11-.25.09-.11.16-.17.2-.18l.59-.05s.16-.04.42-.13c.25-.09.49-.16.72-.2l1.12-.19c.2-.03.36-.06.53-.1.15-.04.29-.06.41-.08.13-.02.24-.03.35-.03M11.28,39.56c-.11,0-.24.01-.39.04-.13.02-.27.05-.43.09-.15.04-.31.07-.5.1l-1.13.19c-.22.04-.46.1-.76.21-.22.08-.35.12-.38.12l-.56.05c-.13.02-.24.1-.38.26-.14.2-.19.33-.17.46.04.26.15.48.31.64.07.09.13.24.17.42l.03.2c.04.22.18.33.35.33.01,0,.07,0,.08,0,.1-.02.21-.05.33-.11.04-.01.07-.02.09-.04l.53-.06.37-.06c0,.06,0,.12,0,.19-.03.12-.03.38.11,1.28,0,.09.02.21.05.37.01.11.03.23.05.37l.04.38c.03.26.06.54.1.86v.08c.08.57.14,1.12.21,1.63l.02.12c.07.51.14.99.22,1.45.03.2.02.27.02.27-.06.08-.09.22-.07.36.05.29.23.32.3.32.02.02.05.05.09.1l.17.18s.07.05.11.07l.21.06.14.09s.09.04.13.04c0,0,0,0,0,0h0c.08,0,.13,0,.16.03.11.06.21.09.31.09.01,0,.06,0,.08,0,.3-.05.5-.13.63-.26.21-.22.31-.51.27-.77,0-.05,0-.11-.03-.16-.1-.17-.2-.42-.27-.7-.1-.31-.17-.66-.24-.99-.07-.34-.15-.7-.21-1.05l-.15-.9c-.03-.16-.06-.45-.09-.91-.04-.43-.07-.84-.09-1.26l-.03-.46c-.02-.26-.03-.5-.04-.72l-.03-.47c-.01-.09,0-.12,0-.12.12-.04.29-.08.48-.11l.15-.03c.09,0,.21.02.21.02.01,0,.02,0,.03,0,.01,0,.03,0,.04,0,.21-.03.35-.33.33-.5l-.06-.18c.01-.05.02-.11.03-.16v-.06c.02-.14.02-.24.01-.3-.09-.53-.28-1.07-.99-1.07h0Z"/>
    </g>
    <g>
      <path class="cls-5" d="M28.53,44.72c-.06,0-.13-.02-.2-.05-.03-.02-.07-.02-.12-.02,0,0-.02,0-.03,0-.04,0-.08,0-.1-.01l-.15-.08-.17-.03-.21-.16c-.09-.08-.12-.1-.13-.11,0,0-.02,0-.03,0-.07,0-.14-.04-.17-.18-.02-.09-.01-.19.03-.27h0s.01-.06-.04-.26c-.09-.36-.18-.74-.27-1.15l-.03-.13c-.09-.39-.17-.82-.26-1.25l-.03-.16c-.06-.25-.1-.48-.14-.69l-.07-.33-.07-.3c-.03-.13-.05-.23-.06-.31-.22-.94-.19-1-.15-1.06-.02-.04-.03-.14-.06-.24l-.37.1-.46.09s-.04.03-.09.05c-.08.05-.16.08-.23.1-.01,0-.03,0-.04,0-.14,0-.21-.05-.23-.14l-.05-.2c-.04-.17-.11-.3-.2-.38-.13-.11-.22-.26-.27-.46-.02-.08,0-.17.09-.31.09-.14.16-.2.23-.22l.49-.08s.12-.04.31-.13c.21-.09.41-.17.6-.22l.92-.24c.16-.04.29-.07.42-.12.12-.04.24-.08.34-.1.16-.04.28-.06.39-.06.46,0,.62.37.72.76.01.05.02.11.02.19-.01.14-.02.2-.04.26l.07.11c.03.1-.05.32-.17.35,0,0-.12,0-.13,0-.09,0-.11,0-.11,0l-.12.03c-.16.04-.3.09-.4.13-.03.01-.07.04-.04.17l.06.39c.02.17.05.36.08.57l.06.38c.05.35.1.71.17,1.06.05.35.1.6.14.76l.19.73c.07.28.16.56.24.83.1.31.18.58.28.83.08.24.19.44.29.58.02.03.03.07.02.11.03.14.03.36-.15.58-.08.1-.24.18-.46.24h-.08Z"/>
      <path class="cls-4" d="M27.9,35.76c.31,0,.48.18.6.67,0,.04.01.1.02.17,0,.07-.01.15-.03.23l.07.18s-.05.17-.09.18c0,0-.04,0-.09,0s-.11,0-.14,0l-.12.03c-.16.04-.31.09-.42.13-.12.06-.16.16-.12.32l.06.38c.03.27.08.59.14.94.05.36.1.71.17,1.07.05.36.1.61.14.77l.19.73c.07.29.16.58.25.86.09.28.17.56.27.81.09.25.2.46.3.61h-.02s0,.02,0,.02v.04c.04.11.03.3-.12.48-.07.08-.21.15-.4.2-.01,0-.03,0-.05,0-.04,0-.09-.01-.15-.03-.05-.02-.11-.03-.17-.03-.02,0-.05,0-.07,0l-.15-.08-.21-.04-.15-.13c-.09-.08-.16-.13-.2-.13,0,0,0,0,0,0h-.01s-.01,0-.01,0c0,0,0,0,0,0-.02,0-.04-.03-.06-.09-.02-.06,0-.13.02-.18.03-.05.02-.16-.02-.35-.1-.4-.2-.82-.3-1.27-.1-.44-.19-.91-.29-1.4-.09-.4-.15-.74-.21-1.02-.06-.28-.11-.47-.13-.61-.14-.61-.2-.93-.17-.97,0-.12-.02-.22-.05-.33-.01-.06-.05-.08-.12-.08,0,0-.01,0-.02,0l-.38.1-.46.09s-.03.02-.1.05c-.08.05-.15.08-.21.09-.02,0-.03,0-.04,0-.04,0-.07-.02-.07-.06v-.04s-.05-.16-.05-.16c-.05-.19-.13-.34-.23-.44-.12-.1-.19-.24-.24-.4,0-.04.01-.11.08-.22.07-.1.12-.15.16-.16l.48-.08s.13-.05.33-.14c.2-.09.39-.17.58-.21l.92-.24c.16-.04.3-.08.43-.12.12-.04.23-.07.33-.1.14-.04.26-.06.36-.06M27.9,35.51c-.12,0-.25.02-.42.06-.11.03-.23.06-.35.11-.12.04-.25.08-.41.12l-.92.24c-.18.05-.37.12-.62.23-.17.08-.28.12-.31.13l-.45.08c-.12.03-.21.1-.32.26-.11.19-.14.31-.11.42.06.22.16.4.31.53.06.06.12.17.15.32l.04.16c.05.18.17.28.33.28.02,0,.09,0,.11-.01.09-.02.18-.06.28-.12.03-.01.05-.02.07-.03l.43-.09.26-.07s0,.06,0,.1c-.02.11,0,.34.18,1.07.01.07.03.17.06.3.02.09.04.19.07.31l.06.32c.04.21.09.44.14.7l.02.08c.09.46.18.91.28,1.33.11.48.2.89.3,1.28.03.11.03.17.03.19-.05.1-.06.22-.03.33.06.25.23.28.3.28.02.01.04.03.07.06l.16.14s.07.05.12.06l.17.03.12.06s.08.03.12.03c0,0,.02,0,.03,0,.01,0,.03,0,.04,0,.05,0,.07,0,.08,0,.09.04.17.06.25.06.02,0,.09,0,.11-.01.26-.07.43-.15.53-.28.24-.29.21-.57.18-.69,0-.05,0-.11-.04-.15-.09-.13-.19-.33-.27-.55-.1-.25-.19-.53-.27-.8-.08-.28-.17-.57-.24-.85l-.19-.73c-.03-.13-.08-.36-.14-.74-.06-.36-.12-.71-.17-1.07l-.05-.36c-.03-.21-.06-.4-.08-.58l-.06-.39c-.02-.06-.01-.08-.01-.08.07,0,.21-.05.36-.09l.12-.03s.04,0,.07,0h.09s0,0,.01,0c.02,0,.04,0,.06,0,.19-.05.3-.34.27-.48l-.06-.14s.01-.08.02-.12v-.06c0-.13,0-.21-.02-.26-.1-.4-.29-.86-.84-.86h0Z"/>
    </g>
    <g>
      <path class="cls-5" d="M15.56,49.74c-.14,0-.26-.03-.37-.09-.12-.08-.22-.17-.28-.28-.02-.04-.05-.07-.1-.1l-.21-.11c-.07-.04-.15-.08-.22-.15-.07-.04-.13-.13-.13-.24,0-.08.06-.13.13-.18.01-.06.02-.12,0-.17-.02-.08-.02-.15-.02-.21v-.41c0-.14.01-.28.02-.44.04-.52.07-.96.08-1.4,0,0,.04-1.06.05-1.3.01-.45.04-.93.08-1.43l.15-.15h-.12v-.18s-.03.02-.03.02c-.05.04-.11.07-.18.1-.12.07-.19.11-.26.14-.1.04-.18.07-.25.07-.02,0-.08,0-.22-.12-.08-.07-.16-.15-.25-.24-.09-.1-.17-.23-.24-.35-.08-.14-.12-.28-.12-.41s.14-.27.49-.46c.3-.15.65-.3,1.07-.46.4-.14.83-.27,1.26-.39.41-.11.79-.17,1.1-.17.42,0,.79.09,1.09.26.31.17.54.42.7.75q.07.16.15.25l.08.08c.06.06.11.14.19.27.16.38.29.91.29,1.15,0,.22-.04.47-.13.73-.1.3-.21.54-.33.76-.09.16-.22.33-.43.54-.19.18-.39.36-.63.53-.21.16-.44.29-.7.41-.26.11-.5.17-.72.17-.05,0-.1-.02-.17-.05-.05,0-.13-.04-.21-.09-.05-.02-.1-.04-.14-.07l-.02.07.03.61v1.14c0,.15.01.26.03.34.01.08.02.13.05.17.03.07.06.12.11.2.01.02.05.13.05.16,0,.15-.08.31-.23.46-.15.15-.31.23-.46.23ZM16.26,42.86c-.04.23-.06.5-.09.8-.04.32-.06.62-.08.88l-.02.4c0,.14.02.14.04.14.12,0,.28-.06.48-.17.21-.11.43-.26.64-.45.34-.31.56-.58.68-.83.14-.28.21-.57.21-.89,0-.24-.07-.41-.21-.54-.15-.11-.33-.16-.52-.16-.23,0-.73.17-1.17.32.08.08.15.17.15.25,0,.05-.03.09-.07.11,0,.03-.02.08-.03.14Z"/>
      <path class="cls-4" d="M17,40.77c.39,0,.73.08,1.03.24.3.17.5.4.64.7.09.22.06.17.26.36.05.05.1.13.17.24.14.35.27.86.27,1.09,0,.19-.04.42-.13.69-.09.27-.19.52-.32.73-.09.17-.23.33-.41.52-.19.19-.4.36-.62.51-.22.17-.45.3-.68.4-.24.1-.46.15-.67.15-.03,0-.06-.01-.13-.04-.06-.01-.13-.04-.19-.08-.12-.05-.24-.12-.24-.12-.03,0-.05.03-.08.08-.01.04-.03.06-.03.1v.05l.03.62v1.13c0,.15.01.27.03.36.01.09.03.15.06.22.03.06.06.13.12.21.01.01.03.05.03.09,0,.12-.06.24-.19.37-.13.13-.26.19-.37.19s-.22-.03-.31-.08c-.1-.06-.18-.14-.23-.23-.03-.05-.08-.1-.14-.14-.06-.04-.14-.08-.21-.12-.08-.04-.14-.08-.19-.13-.06-.04-.09-.09-.09-.15,0-.01.03-.04.08-.08.04-.04.06-.06.06-.1,0-.06,0-.13-.01-.19-.01-.06-.01-.13-.01-.18v-.41c0-.15.01-.32.03-.5.04-.45.06-.89.08-1.34.01-.41.04-.85.05-1.3.01-.45.04-.93.08-1.43.01-.05.01-.1.03-.15v-.15c0-.14-.04-.21-.1-.21,0,.01-.03.03-.06.06-.06.04-.13.09-.22.13-.09.05-.17.1-.26.14-.09.04-.15.06-.21.06-.01,0-.06-.03-.14-.09-.08-.06-.15-.14-.24-.23-.08-.09-.15-.21-.22-.32-.06-.12-.1-.23-.1-.35,0-.08.14-.19.42-.35.3-.14.64-.3,1.06-.45.4-.14.82-.27,1.25-.39.42-.12.79-.17,1.07-.17M16.23,42.61s-.01-.03-.03-.03-.04.09-.06.26c-.04.23-.06.5-.09.81-.04.32-.06.62-.08.89-.01.27-.03.42-.03.44,0,.15.05.23.17.23.14,0,.32-.06.54-.19.22-.12.44-.27.66-.46.32-.3.57-.58.71-.88.14-.28.22-.59.22-.94,0-.28-.09-.49-.26-.63-.18-.13-.39-.19-.6-.19-.23,0-.71.14-1.44.41.15.06.3.22.3.28M17,40.52c-.32,0-.71.06-1.13.18-.46.13-.89.26-1.27.39-.36.14-.72.29-1.08.46-.35.19-.57.35-.57.57,0,.15.04.31.13.47.05.1.14.24.25.36.11.11.19.19.27.26.18.15.26.15.3.15.1,0,.19-.04.3-.08.08-.03.15-.07.22-.12l.07-.04s-.01.07-.01.09c-.04.5-.06.99-.08,1.44,0,.24-.02.48-.03.71,0,.2-.02.4-.02.59-.01.44-.04.87-.08,1.32,0,0,0,.05,0,.05-.01.17-.02.32-.02.47v.41c0,.07,0,.15.02.23,0,.02,0,.05,0,.07-.06.05-.14.13-.14.25,0,.15.07.27.18.35.08.07.16.12.24.16.02.01.06.03.1.05l.09.05s.04.04.05.04c.08.14.18.24.32.33.14.08.28.12.44.12.13,0,.33-.05.55-.27.17-.17.27-.36.27-.55,0-.04,0-.17-.1-.27-.02-.04-.05-.08-.06-.12-.03-.06-.04-.09-.05-.16-.01-.08-.02-.19-.02-.32v-1.13l-.02-.5c.06.04.15.07.24.09.03.02.1.04.18.04.24,0,.49-.06.77-.17.28-.13.52-.27.74-.43.24-.17.45-.35.64-.54.22-.22.36-.4.46-.57.12-.21.24-.47.34-.77.09-.28.14-.54.14-.77,0-.29-.15-.85-.29-1.19-.09-.17-.16-.26-.22-.33l-.08-.08q-.07-.06-.11-.17c-.19-.39-.43-.65-.76-.84-.33-.18-.71-.28-1.15-.28h0ZM16.42,42.42c.49-.17.81-.25.96-.25.17,0,.32.05.46.15.06.05.15.16.15.43,0,.3-.06.57-.19.83-.12.25-.33.5-.65.8-.2.18-.4.32-.6.43-.16.09-.27.13-.34.15,0-.07.01-.2.02-.4.01-.27.04-.55.08-.87.03-.32.05-.58.09-.8,0-.03.01-.06.02-.09.05-.05.08-.11.08-.18,0-.07-.02-.13-.06-.19h0Z"/>
    </g>
    <g>
      <path class="cls-5" d="M23.11,48.43c-.07-.01-.12-.02-.17-.05,0,0-.12-.01-.13-.01-.07,0-.12,0-.19,0-.18,0-.31-.01-.42-.03-.04,0-.31-.08-.31-.08-.16-.04-.32-.1-.48-.16-.17-.06-.32-.11-.44-.16l-.18-.05c-.26-.07-.41-.12-.49-.15-.09-.03-.19-.09-.24-.17-.08-.11-.08-.31-.02-.63.04-.22.09-.49.17-.84.08-.35.17-.76.27-1.23l.26-1.13.16-.59.14-.66.2-.82c.04-.17.07-.3.09-.43.03-.15.05-.25.05-.34,0,0,.03-.27.03-.27,0,0-.15.02-.16.02-.06,0-.12-.01-.17-.02-.1-.02-.17-.05-.21-.11-.02-.03-.04-.11-.03-.14.01-.07.07-.14.15-.22h0s0-.06-.04-.21c-.04-.15-.06-.26-.04-.36l.06-.28c.04-.16.08-.26.1-.3.02-.04.15-.12.2-.12.19.03.3.07.39.13.06.04.14.07.25.09.27.05.77.11,1.23.14.45.03.83.06.86.07.02,0,.06.02.12.03.09.02.22.06.3.07.44.08.64.17.69.33,0,.12,0,.23-.03.35,0,.02,0,.06,0,.11,0,.08,0,.17-.01.21,0,0-.04.11-.04.12-.01.04-.03.07-.04.09,0,.01,0,.03.01.04.03.1.04.19.03.26-.02.08-.04.14-.07.18-.02.05-.08.1-.18.17l-.13.08s-.04.02-.07.02c-.04,0-.08-.02-.1-.05-.1-.13-.13-.16-.13-.16,0,0-.06-.03-.16-.05-.18-.04-.39-.1-.55-.13-.04,0-.07,0-.09,0-.09,0-.15,0-.22.02-.08,0-.16.01-.23.01-.07,0-.13,0-.2-.01-.04.11-.09.25-.14.44-.08.24-.14.48-.2.69-.04.15-.18.67-.18.67.16.04.41.06.7.08l.51.03c.22.02.34.04.44.05.12.02.32.12.24.51,0,.04-.04.12-.09.22-.08.15-.09.22-.1.24,0,.05,0,.15,0,.24,0,.13,0,.27-.01.39-.05.24-.21.27-.28.27-.09,0-.11-.01-.28-.14-.09-.05-.18-.09-.27-.1-.05,0-.11-.02-.17-.02-.07,0-.15,0-.23.03-.09.02-.17.03-.25.03-.06,0-.12,0-.18-.02l-.41-.11c.05.02-.03.19-.06.36l-.12.71-.1.52c-.03.12-.05.22-.07.31.02,0,.39.07.39.07.26.05.45.12.57.17.05.02.09.04.12.04.04,0,.11.01.18.01.04,0,.08,0,.12,0,.16,0,.32.02.49.05.13.03.21.11.2.24,0,.04,0,.1-.02.16,0,0-.02.1-.02.1-.02.08-.04.16-.07.25-.04.13-.08.26-.1.39.05.15.06.24.04.3-.02.09-.06.16-.15.21-.08.04-.15.06-.21.06,0,0-.06,0-.07,0Z"/>
      <path class="cls-4" d="M21.26,38.98s.03,0,.04,0c.1.02.19.05.28.11.08.05.17.09.29.11.29.05.8.11,1.24.14.44.03.81.06.84.07.04,0,.29.08.42.11.37.07.56.15.6.25,0,.07-.01.17-.03.29,0,.04,0,.25-.02.32,0,.04-.03.08-.05.13-.02.05-.05.07-.06.08,0,0,.02.03.04.1.03.09.04.15.03.21-.01.06-.03.11-.05.14-.02.04-.07.08-.15.13l-.13.08c-.08-.11-.13-.17-.16-.19-.03-.02-.1-.05-.21-.07-.03,0-.33-.09-.55-.13-.03,0-.07,0-.11,0-.07,0-.15,0-.25.02-.07,0-.14.01-.21.01-.09,0-.18,0-.27-.03-.06.12-.11.3-.18.54-.08.24-.15.48-.2.7-.06.22-.11.41-.15.55-.02.06-.03.11-.04.13,0,0,0-.01,0-.02h0s0,0,0,0v.04s0,0,0,0h0s0,0,0-.02c-.01.09.03.15.15.17.18.03.7.05,1.17.09.16.02.31.03.42.05.14.03.19.14.14.36,0,.01-.03.08-.08.19-.05.11-.1.21-.11.27-.03.14.02.43-.02.63-.02.11-.07.17-.16.17-.01,0-.03,0-.04,0-.01,0-.07-.04-.17-.11-.1-.06-.2-.1-.32-.13-.06-.01-.12-.02-.19-.02-.08,0-.16,0-.26.03-.08.02-.15.02-.22.02-.05,0-.11,0-.16-.01l-.09-.02-.32-.09s0,0,0,0c-.06,0-.17.24-.22.45l-.12.71-.1.52c-.04.17-.07.31-.09.42.03.02.09.03.18.05l.33.06c.38.07.59.19.68.21.05,0,.12.02.21.02.04,0,.09,0,.14,0,.14,0,.3.02.46.05.06.01.1.05.1.11,0,.04,0,.09-.02.14l-.02.09c-.05.19-.14.43-.18.65,0,.01.01.06.03.13.02.07.02.14.01.18-.01.06-.04.1-.09.13-.05.02-.09.04-.14.04-.01,0-.03,0-.04,0-.05-.01-.1-.02-.14-.04l-.14-.03s-.03,0-.06,0c-.04,0-.11,0-.19,0-.16,0-.29-.01-.38-.03-.05-.01-.15-.04-.3-.08-.16-.04-.32-.1-.47-.16-.17-.06-.31-.11-.44-.16-.14-.04-.21-.07-.22-.07-.24-.06-.39-.11-.46-.14-.07-.03-.13-.06-.16-.11-.06-.09-.06-.28,0-.55.04-.22.09-.49.17-.84.08-.35.16-.76.27-1.23l.26-1.13.15-.59.14-.67.2-.82c.04-.17.07-.31.09-.44.02-.13.05-.25.05-.35.02-.14.02-.22.03-.26h0c-.01-.06-.05-.09-.11-.1l-.14-.03h0c-.07,0-.13-.01-.18-.02-.1-.02-.15-.05-.14-.11.01-.06.15-.19.15-.2.01-.06,0-.16-.05-.29-.03-.11-.05-.21-.03-.3v-.03s.06-.24.06-.24c.04-.14.07-.24.09-.28.01-.03.04-.05.09-.05M21.26,38.73c-.14,0-.25.07-.31.19-.02.05-.06.16-.1.32l-.06.25c-.04.19,0,.34.03.46.02.06.03.1.03.12-.08.09-.13.16-.14.25-.02.12.02.23.12.31.06.04.13.07.21.09.06.01.13.02.21.03v.11c-.02.1-.04.21-.06.33-.02.13-.05.26-.09.42l-.2.82-.14.68-.15.57-.26,1.14c-.1.48-.19.89-.27,1.24-.08.35-.13.62-.17.84-.07.36-.05.58.05.73.04.08.14.15.28.21.08.03.23.09.49.15.05.02.12.04.21.07.1.04.25.1.42.16.16.06.32.12.49.16l.14.04c.08.02.13.04.17.05.11.02.26.03.43.04.1,0,.16,0,.2,0l.13.02c.06.02.11.03.16.04.02,0,.08,0,.09,0,.08,0,.16-.02.25-.06.14-.08.21-.18.23-.31.02-.09.01-.19-.02-.29l-.02-.06c.02-.11.06-.22.09-.33.03-.09.05-.18.07-.26l.02-.1c.01-.06.03-.13.02-.21,0-.16-.12-.3-.3-.34-.17-.03-.34-.05-.5-.05-.06,0-.1,0-.14,0-.07,0-.12,0-.16-.01-.02,0-.05-.02-.09-.03-.13-.05-.32-.12-.59-.17l-.27-.05c.01-.06.03-.11.04-.18l.1-.53.12-.72c.01-.08.04-.15.07-.21l.16.04.11.02c.07.01.13.02.2.02.09,0,.17,0,.27-.03.08-.02.15-.02.21-.02.05,0,.1,0,.14.01.08.01.15.04.24.1.16.12.2.13.25.14.02,0,.07,0,.09,0,.16,0,.35-.1.4-.37.02-.13.02-.28.02-.41,0-.08,0-.17,0-.21,0,0,.01-.06.09-.21.04-.08.09-.19.1-.25.03-.16.02-.29-.02-.4-.06-.14-.17-.23-.33-.26-.11-.02-.24-.03-.39-.05h-.05c-.18-.02-.36-.03-.52-.04-.22-.01-.42-.02-.55-.04l.04-.14c.03-.12.07-.25.11-.4.05-.22.12-.46.2-.69.03-.12.07-.24.1-.35.04,0,.07,0,.11,0,.08,0,.16,0,.24-.02.09-.01.16-.02.22-.02.02,0,.05,0,.06,0,.16.03.35.08.46.11.05.01.08.02.1.02.07.01.11.03.12.03,0,0,.03.04.1.13.05.07.12.1.2.1.05,0,.09-.01.14-.04l.13-.08c.11-.08.19-.14.24-.23.02-.03.05-.11.07-.2.02-.09,0-.19-.03-.31,0,0,0-.02.01-.03.03-.07.05-.12.06-.17,0-.04.01-.15.01-.23,0-.04,0-.08,0-.1.02-.12.03-.24.03-.32,0-.03,0-.06-.02-.09-.08-.23-.38-.33-.79-.41-.08-.02-.21-.05-.3-.07-.06-.02-.11-.03-.13-.03-.07-.01-.62-.05-.87-.07-.44-.03-.94-.09-1.21-.14-.09-.02-.15-.04-.19-.07-.12-.07-.24-.12-.38-.15-.02,0-.08,0-.09,0h0Z"/>
    </g>
    <g>
      <path class="cls-5" d="M30.31,38.7c-.27-.01-.53-.12-.81-.33l-.11-.08s-.1-.09-.1-.12c-.05-.11-.07-.17-.07-.24l-.03-.09c-.02-.07-.04-.13-.04-.19-.01-.1-.02-.27.1-.34.05,0,.24.06.26.11l.29.15c.22.12.3.16.34.19-.01-.03.03-.06.08-.08.17-.08.26-.23.3-.46.03-.24.04-.49.04-.75-.24-.02-.45-.1-.65-.24-.21-.13-.38-.36-.47-.67-.02-.08-.04-.15-.05-.21l-.04-.15c-.06-.27-.05-.54.03-.8.07-.28.25-.5.55-.66.11-.06.22-.11.32-.14.09-.03.17-.04.24-.04,0,0,.02,0,.03,0,.19,0,.3.02.4.05.11.04.22.09.35.17,0,0,0,0,0,0-.04-.28.02-.48.16-.63.13-.15.24-.24.34-.27l.12-.04.09-.05c.16-.05.26-.07.36-.07.06,0,.11,0,.17.01.17.03.29.15.34.32l.04.17c-.05.17-.07.26-.08.37-.03.23.02.6.17,1.25.06.32.16.72.28,1.19l.14.53c.02.1.03.17.04.24.02.16.04.25.07.34.03.28-.17.59-.23.68-.14.21-.28.37-.28.37-.12.05-.16.06-.2.06-.05,0-.11,0-.19-.02-.21-.03-.27-.03-.3-.11-.07-.22-.08-.36-.03-.47.01-.04.01-.11,0-.21l-.16-.62c-.06-.25-.1-.44-.11-.56-.02,0-.06,0-.1,0s-.08,0-.09-.01c.06.15.06.3.06.47,0,.19,0,.38-.02.59-.02.23-.09.45-.21.63-.13.2-.22.33-.29.4-.08.09-.18.16-.29.2-.04.03-.11.05-.18.07-.15.05-.3.07-.47.07,0,0-.08,0-.08,0ZM30.78,34.49c-.09.07-.14.14-.1.29.06.19.12.3.22.42.13.14.26.24.42.3.07.04.13.05.19.05.04,0,.08,0,.13-.02.06-.03.09-.05.06-.14-.16-.36-.44-.68-.73-.85-.07-.04-.12-.06-.16-.06v-.12l-.03.13Z"/>
      <path class="cls-4" d="M32.32,32.84c.05,0,.1,0,.15.01.12.02.21.11.25.23v.05s.04.12.04.12c-.04.1-.07.21-.08.34-.03.26.04.67.18,1.28.06.32.16.72.28,1.19l.14.53c.03.13.03.23.05.31.01.08.03.18.06.28.01.16-.09.39-.22.58-.14.2-.27.36-.27.36h-.02s-.05.02-.09.02c-.04,0-.1,0-.16-.02-.14-.02-.21-.02-.21-.03-.05-.17-.06-.29-.03-.37.03-.07.02-.17,0-.28l-.16-.62c-.06-.24-.1-.43-.11-.54v-.05c-.03-.06-.07-.09-.13-.09-.02,0-.04,0-.06,0l-.08.02s-.01,0-.02,0c-.01,0-.02,0-.03,0-.05.01-.07.06-.07.14,0,.11,0,.26,0,.43,0,.18,0,.37-.02.58-.02.22-.08.41-.19.58-.13.19-.21.31-.28.38-.07.07-.15.13-.24.18-.05.03-.12.05-.19.07-.12.04-.26.06-.41.06-.03,0-.05,0-.08,0-.25,0-.5-.12-.74-.3-.18-.13-.16-.1-.17-.15l-.02-.06c-.03-.05-.04-.1-.05-.15l-.04-.11c-.02-.07-.04-.11-.03-.15-.02-.13,0-.21.04-.23h.02s0,0,0,0c.02,0,.03.02.04.05v.02s.07.08.14.11l.22.09c.18.09.28.15.31.18,0,0,.02,0,.04,0,.01,0,.02,0,.04,0,.03-.01.09-.04.14-.07.2-.1.32-.29.36-.55.03-.25.05-.55.03-.89-.01,0-.03,0-.04,0-.22,0-.44-.08-.66-.23-.2-.12-.34-.33-.42-.6-.02-.06-.04-.12-.05-.2l-.04-.16c-.05-.24-.04-.5.03-.74.06-.24.22-.44.49-.59.11-.06.2-.1.29-.13.08-.02.15-.03.21-.04.02,0,.04,0,.06,0,.11,0,.22.01.32.05.11.04.22.09.32.16.11.08.22.14.34.21l-.15-.33c-.03-.23.01-.4.13-.53.12-.14.22-.22.29-.24l.12-.04.12-.06h.05c.08-.04.17-.05.25-.05M31.51,35.68c.06,0,.11,0,.17-.03.03-.01.06-.02.09-.04.07-.05.1-.13.06-.25l-.02-.07c-.15-.31-.44-.66-.76-.85-.09-.05-.16-.08-.23-.08-.02,0-.05,0-.07,0-.03.01-.05.03-.08.05-.11.1-.14.22-.1.39l.03.09c.04.14.12.26.22.38.13.14.28.26.46.34.08.04.16.06.24.06M32.32,32.59c-.11,0-.22.02-.33.05-.01,0-.07.02-.09.03l-.12.06-.08.02c-.07.02-.2.08-.4.31-.09.09-.19.25-.2.48-.06-.03-.11-.05-.17-.07-.11-.04-.24-.06-.4-.06h-.07c-.09,0-.18.02-.28.05-.11.03-.22.08-.34.15-.32.17-.53.43-.61.74-.08.27-.09.57-.03.85l.04.17c0,.06.03.14.05.21.11.34.28.59.53.75.19.13.39.22.59.25,0,.22-.01.43-.04.62-.04.24-.15.32-.23.36-.02.01-.04.02-.05.03-.05-.03-.13-.07-.23-.13l-.25-.11s0,0-.01,0c0,0,0,0,0,0-.06-.15-.18-.2-.27-.2-.02,0-.06,0-.08.01-.02,0-.06.02-.08.03-.2.12-.17.39-.16.48,0,.04.02.11.04.19l.03.09c0,.07.03.14.07.22h0c.03.12.09.17.15.21l.11.08c.3.23.59.34.88.35h.09c.18,0,.34-.02.49-.07.08-.03.17-.05.23-.09.1-.04.21-.12.31-.22.08-.09.17-.22.3-.41.13-.21.21-.44.23-.7.02-.15.02-.3.02-.45l.15.6c.02.1.01.13.01.13-.07.17-.02.38.02.54.06.16.19.18.35.2h.07c.07.02.13.03.2.03.06,0,.11,0,.16-.02.04-.01.1-.05.14-.08,0,0,.15-.17.3-.39.08-.12.28-.45.26-.73,0-.02,0-.04-.01-.05-.03-.09-.04-.17-.05-.24v-.08c-.02-.07-.03-.15-.05-.24l-.14-.54c-.13-.49-.22-.88-.28-1.17-.1-.43-.2-.94-.17-1.21,0-.1.03-.18.06-.27.02-.05.03-.1.02-.15l-.02-.12s-.02-.06-.02-.07c-.07-.21-.23-.36-.43-.4-.07-.01-.14-.02-.2-.02h0ZM31.51,35.43s-.08-.01-.12-.03c-.16-.07-.28-.16-.4-.29-.08-.09-.13-.19-.16-.28l-.03-.09c-.02-.08,0-.11.03-.13,0,0,.04.01.09.04.26.16.53.46.66.75v.02s-.04,0-.06,0h0Z"/>
    </g>
    <g>
      <path class="cls-5" d="M56.24,50.86c-.14,0-.28,0-.43-.01-.18,0-.34-.02-.48-.03h-.46c-.13,0-.2,0-.25,0-.16,0-.28-.05-.37-.13-.15-.1-.23-.31-.26-.66-.02-.19-.04-.42-.05-.73l-.06-1.06-.04-.98v-.52s-.04-.55-.04-.55l-.02-.72c0-.13,0-.24-.02-.33-.01-.12-.02-.21-.03-.28-.06,0-.16.02-.16.02-.35,0-.49-.17-.5-.34,0-.09.02-.17.05-.24-.1-.14-.17-.26-.19-.42v-.25c-.01-.21,0-.28,0-.33.02-.07.09-.28.4-.31.04,0,.08,0,.13,0,.1,0,.19.01.28.03.04,0,.07.01.12.01.37-.03.87-.1,1.31-.19.33-.06.81-.15.87-.16,0,0,.13,0,.14,0,.09,0,.22,0,.31-.01.14-.01.25-.02.35-.02.29,0,.46.06.57.18.01.01.06.1.06.12.01.04.04.15.06.3.06.2.07.25.07.26,0,.07,0,.12-.01.17.05.04.09.15.1.25,0,.1,0,.2-.03.27-.01.06-.07.14-.18.26l-.11.1c-.06.06-.14.09-.22.09-.06,0-.12-.02-.17-.05-.09-.06-.13-.08-.14-.08,0,0-.15.02-.15.02-.2,0-.37.01-.52.03,0,0-.08,0-.26.08-.1.04-.2.07-.3.09,0,.06,0,.12,0,.2-.01.21-.02.41-.01.6v.36c.11-.02.97-.19.97-.19.22-.03.35-.05.46-.06,0,0,0,0,0,0,.17,0,.53.05.57.55,0,.06,0,.14-.04.27-.03.11-.03.15-.03.15,0,.02.03.08.04.13.04.12.09.25.1.37.03.29-.15.5-.44.53,0,0,0,0,0,0-.08,0-.13-.01-.31-.06-.04,0-.1-.02-.16-.02-.17.01-.28.04-.4.09-.17.07-.32.11-.47.12h-.22s0,.06,0,.08l.11,1.1.2-.02c.12-.01.23-.01.32-.01.12,0,.23,0,.31.01h0c.14,0,.23-.01.35-.05.18-.04.35-.07.53-.09,0,0,0,0,0,0,.25,0,.4.11.46.29.02.04.03.11.03.18,0,.17,0,.25,0,.34,0,.09,0,.18,0,.27.07.06.12.17.12.28.01.15-.04.28-.16.39-.1.07-.21.14-.36.15-.04,0-.29.01-.29.01,0,0-.07.02-.18.05-.19.04-.34.07-.45.08-.04,0-.42,0-.42,0h0Z"/>
      <path class="cls-4" d="M56.84,42.77c.25,0,.39.04.47.14.02.02.03.05.04.07.01.04.04.14.05.28,0,0,.01.03.02.06.02.07.04.16.05.2,0,.05,0,.09,0,.13,0,.01,0,.03,0,.04.06.08.1.17.11.25,0,.08,0,.16-.02.21-.01.06-.07.13-.15.21l-.1.1s-.09.05-.14.05c-.04,0-.07-.01-.11-.03-.12-.08-.15-.09-.16-.09,0,0-.02,0-.05,0-.03,0-.07,0-.11,0,0,0-.04,0-.09,0-.11,0-.32.01-.48.02-.02,0-.11.01-.29.08-.13.05-.25.08-.38.1,0,.08-.01.18-.01.31-.01.21-.02.41-.01.6,0,.14,0,.26,0,.36v.12s0,.01,0,.02c.12-.01.36-.06.62-.11.16-.03.34-.07.51-.1h.07c.14-.03.27-.05.38-.06,0,0,.04,0,.04,0,.11,0,.37.04.4.44,0,.06-.02.16-.03.23-.03.14-.03.18-.03.18,0,.03.03.11.05.17.04.11.08.23.09.34.02.22-.11.37-.33.39,0,0-.01,0-.02,0-.04,0-.08,0-.25-.06-.07-.01-.13-.02-.2-.02-.02,0-.05,0-.07,0-.12.01-.24.04-.37.1-.15.06-.29.1-.43.11h-.09s-.24.01-.24.01c-.01.05-.02.13-.02.21l.1,1.05c0,.07,0,.13,0,.18l.33-.03c.11-.01.22-.01.3-.01.12,0,.22,0,.3.01.04,0,.08,0,.1,0,.05,0,.16-.02.31-.07.16-.04.33-.07.5-.08,0,0,.03,0,.04,0,.15,0,.26.08.29.21.02.04.02.1.03.16v.08c0,.08,0,.16,0,.24,0,.09,0,.19,0,.28,0,0,0,0,0,.01l.02.03c.05.07.09.16.09.24.01.11-.03.21-.12.29-.07.05-.16.11-.29.12-.04,0-.08,0-.11,0-.02,0-.04,0-.05,0h-.12s-.09.03-.21.07c-.17.04-.31.07-.42.07-.04,0-.09,0-.17,0h-.24c-.14,0-.28,0-.42-.01-.18,0-.34-.02-.48-.03h-.05c-.06,0-.11,0-.14,0-.11,0-.2,0-.28,0-.13,0-.2,0-.25,0-.13,0-.23-.04-.3-.1-.12-.09-.19-.27-.22-.57-.02-.19-.04-.42-.05-.72-.02-.3-.03-.65-.06-1.06l-.04-.98v-.52s-.04-.56-.04-.56l-.02-.72c0-.14-.01-.26-.02-.36,0-.1-.02-.19-.03-.27,0-.05-.02-.08-.02-.11h-.07c-.07.02-.14.03-.2.03-.02,0-.04,0-.06,0-.22,0-.3-.12-.31-.23,0-.08.03-.16.07-.23-.01-.02-.03-.04-.06-.08-.07-.09-.14-.2-.15-.34,0,0,0-.03,0-.03v-.21c0-.19,0-.26,0-.3.01-.06.07-.2.29-.22.04,0,.08,0,.12,0,.09,0,.17,0,.25.03.05.01.09.02.15.02.03,0,.07,0,.1,0,.28-.02.79-.1,1.23-.19.32-.06.8-.15.86-.15.02,0,.07,0,.13,0,.09,0,.23,0,.32-.01.13-.01.25-.02.34-.02M56.84,42.52h0c-.1,0-.22,0-.36.02-.08,0-.21,0-.3.01-.07,0-.12,0-.14,0-.1,0-.86.15-.89.16-.44.08-.93.16-1.21.18-.03,0-.06,0-.08,0-.03,0-.06,0-.08,0-.11-.03-.21-.04-.32-.04-.05,0-.09,0-.14,0-.31.03-.47.23-.51.41-.01.06-.02.14-.02.36v.22s.01.05.01.06c.01.16.09.3.17.41-.03.07-.04.15-.03.23.02.23.2.46.56.46.03,0,.05,0,.08,0,.01,0,.03,0,.04,0,0,.04,0,.08.01.12,0,.11.02.22.02.35l.02.72.04.57v.5s.04.99.04.99c.02.41.04.76.06,1.06.02.31.04.54.05.73.02.24.08.58.32.76.09.08.24.13.43.14.06,0,.13,0,.26,0,.07,0,.17,0,.28,0h.13s.06,0,.06,0c.11.01.28.02.46.03.14,0,.29.01.43.01h.25c.09,0,.15,0,.19,0,.12-.01.28-.04.46-.08.12-.04.19-.05.21-.06h.09s0,0,.03,0c.04,0,.08,0,.13,0,.18-.02.32-.1.41-.17.17-.15.24-.32.22-.51,0-.11-.05-.23-.12-.34,0-.06,0-.12,0-.17,0-.1,0-.18,0-.27v-.09c-.01-.07-.02-.16-.06-.24-.06-.2-.27-.35-.52-.35,0,0-.06,0-.07,0-.19.02-.37.05-.54.09-.15.05-.23.06-.26.06,0,0-.03,0-.07,0-.09,0-.19-.01-.32-.01-.1,0-.2,0-.33.01h-.07s-.09-.91-.09-.91h0s.1,0,.1,0c.17-.01.33-.06.51-.13.11-.05.2-.07.3-.08h.05c.05,0,.1,0,.15.01.15.05.23.06.3.06.4-.03.63-.31.59-.66-.01-.15-.07-.29-.11-.41-.01-.04-.03-.09-.04-.12,0,0,0,0,0,0,0,0,0-.04.02-.09.03-.14.05-.24.04-.31-.04-.49-.38-.67-.65-.67,0,0-.06,0-.07,0-.11,0-.24.03-.38.05h-.08c-.18.04-.35.08-.52.11-.11.02-.22.04-.32.06,0-.06,0-.13,0-.2,0-.19,0-.39.01-.59,0-.04,0-.09,0-.12.07-.02.15-.04.22-.07.16-.06.23-.07.23-.07.15-.01.33-.02.44-.02.08,0,.12,0,.13,0,.02,0,.05,0,.07,0,.02.01.05.03.08.05.07.05.16.07.24.07.12,0,.23-.04.31-.12l.1-.1c.1-.1.2-.21.23-.34.02-.05.04-.17.03-.28,0-.1-.04-.19-.1-.28,0-.04,0-.09,0-.14,0-.05-.03-.15-.06-.24,0-.02,0-.03-.01-.04-.02-.15-.04-.26-.06-.3-.02-.06-.05-.12-.09-.16-.17-.2-.43-.23-.66-.23h0Z"/>
    </g>
    <g>
      <path class="cls-5" d="M60.77,51.59c-.13,0-.26-.05-.38-.15-.13-.03-.19-.06-.24-.1l-.1-.09-.13-.05s-.09-.06-.13-.11l-.18-.25s0,0-.01,0c-.05,0-.21-.09-.21-.37,0-.13.04-.25.12-.35,0-.03,0-.08,0-.16,0-.37.01-.77.02-1.19v-.1c.01-.39.04-.81.06-1.24l.13-.16h-.12c0-.25.02-.47.03-.67l.03-.59c0-.2,0-.31.02-.39.01-.72.04-.94.09-1.05h-.16s-.45-.02-.45-.02c.01,0-.03.01-.08.02-.08.03-.18.04-.28.04-.28,0-.42-.2-.42-.4v-.2c0-.13-.02-.24-.07-.31-.11-.16-.17-.37-.17-.6,0-.13.07-.26.22-.42.15-.13.27-.21.42-.21l.49.04s.28-.05.28-.05c.26-.05.47-.07.66-.07h1.05c.1,0,.19,0,.29-.01.13-.01.26-.01.37-.01.77,0,1.09.33,1.09,1.14,0,.07-.01.14-.03.23h-.13s.1.1.1.1l-.05.13.03.06c0,.13-.06.27-.16.38-.09.09-.19.14-.29.14-.14-.03-.21-.05-.23-.05h-.11c-.1,0-.2,0-.3.01l-.03.37c-.02.16-.04.33-.06.51l-.04.42c-.04.36-.07.7-.1,1.04-.04.38-.05.61-.05.74v.74c0,.28.01.58.02.86.01.3.03.57.06.81.02.23.06.44.12.58.03.07.03.15,0,.23,0,.21-.14.46-.36.62-.15.1-.34.15-.62.15Z"/>
      <path class="cls-4" d="M61.92,42.5c.7,0,.96.27.96,1.01,0,.05-.01.12-.03.2,0,.01,0,.02,0,.03l-.02.05s-.03.08-.05.12l.02.13c0,.16-.16.37-.33.37-.02,0-.03,0-.05,0-.07-.02-.15-.04-.17-.04h-.12c-.13,0-.26,0-.4.02,0,0-.01.02-.01.08l-.04.4c-.03.18-.04.37-.07.58l-.04.35c-.04.36-.08.71-.1,1.05-.04.38-.05.62-.05.75v.74c0,.29.01.58.02.87.01.28.03.57.06.82.02.24.07.46.13.61.02.05.02.1,0,.14,0,.21-.12.42-.32.57-.12.09-.29.13-.54.13-.1,0-.2-.04-.3-.12-.03-.02-.07-.04-.13-.05-.04,0-.07-.02-.1-.05l-.1-.09-.16-.08s-.06-.04-.08-.07l-.11-.16c-.03-.05-.06-.08-.07-.1-.08-.02-.19-.08-.19-.29,0-.11.04-.22.12-.3h0s.01-.06.01-.2c0-.37.01-.77.02-1.18v-.1c.01-.41.04-.86.06-1.32v-.09c.01-.26.03-.49.04-.7,0-.11.01-.22.02-.31,0-.11,0-.21.01-.3,0-.13,0-.24.02-.32.01-.73.04-.94.09-1.03.01-.06.02-.11.02-.16h-.3s-.44-.02-.44-.02c-.02,0-.06.01-.1.02-.08.03-.18.04-.26.04-.2,0-.3-.14-.3-.27v-.2c0-.15-.03-.28-.09-.38-.1-.14-.15-.33-.15-.54,0-.1.06-.2.18-.33.14-.12.24-.17.33-.17l.49.04s.12-.02.3-.05c.25-.04.46-.07.64-.07h.93c.16,0,.29,0,.42-.01.13-.01.25-.01.36-.01M61.92,42.25c-.11,0-.24,0-.38.01-.09,0-.18,0-.28,0h-.12s-.92,0-.92,0c-.2,0-.41.02-.68.07-.11.02-.2.03-.25.04,0,0-.01,0-.02,0l-.46-.04h0c-.21,0-.37.11-.51.23-.12.12-.27.29-.27.52,0,.26.07.5.2.68.02.04.04.13.04.23v.2c0,.25.19.52.55.52.11,0,.22-.02.33-.05.01,0,.03,0,.05,0l.41.02h.01c-.03.16-.04.43-.05.94,0,.07-.01.18-.01.32v.3s-.03.28-.03.28c0,0,0,.07,0,.07-.01.2-.02.42-.03.67v.08s0,.06,0,.06c-.02.44-.04.87-.06,1.26v.1c-.01.43-.03.82-.03,1.19,0,.05,0,.08,0,.11-.08.11-.12.25-.12.39,0,.24.1.42.28.5,0,0,.01.02.02.03l.12.17c.05.07.11.12.18.15l.13.06.08.07c.07.06.15.1.23.11.15.11.31.17.47.17.3,0,.52-.05.69-.17.25-.18.4-.45.42-.72.02-.09.02-.19-.02-.27-.05-.13-.09-.32-.11-.54-.04-.25-.05-.53-.06-.8-.01-.29-.02-.58-.02-.86v-.74c0-.13,0-.35.05-.72.02-.35.06-.68.1-1.05l.04-.35c.02-.22.04-.4.06-.57l.03-.28c.06,0,.12,0,.18,0h.12s.05.02.1.03c.04.01.08.02.12.02.13,0,.27-.06.38-.17.13-.13.2-.3.2-.45v-.09s0-.05.01-.07l.02-.05s.02-.06.02-.07c.02-.11.03-.19.03-.25,0-.87-.37-1.26-1.21-1.26h0Z"/>
    </g>
    <g>
      <path class="cls-5" d="M37.07,34.44c-.17-.05-.25-.11-.32-.2v-.17s-.1.08-.1.08l-.06-.08c-.14-.21-.36-.59-.25-.86.04-.09.11-.16.16-.21,0,0,.06-.13.07-.14l.07-.1s.02-.07.03-.11c.02-.08.05-.17.11-.31l.08-.19c.03-.08.07-.19.14-.32l.2-.48.18-.34.19-.49.22-.39c.06-.1.11-.2.15-.31l.05-.12c.04-.11.08-.19.12-.26.02-.03.04-.06.05-.08-.02,0-.03-.02-.05-.03-.08-.04-.16-.07-.25-.11-.01,0-.07-.02-.2-.04-.08,0-.15-.02-.22-.04l-.03.05c-.2.31-.38.7-.45.88-.08.2-.17.4-.27.61-.08.16-.16.34-.24.54l-.24.63s-.03.09-.05.15c-.08.23-.12.42-.16.59-.02.08-.03.13-.04.17-.03.18-.06.28-.09.35-.02.06-.05.12-.1.18-.12.15-.25.22-.4.23h-.04c-.12,0-.18-.02-.26-.04l-.22-.09c-.29-.12-.38-.18-.43-.22-.06-.04-.16-.12-.21-.24-.08-.14-.06-.34.05-.62.06-.15.13-.32.23-.55l.34-.79.33-.73.19-.38.17-.41.25-.53c.05-.1.08-.18.11-.26.02-.06.04-.1.05-.14-.02,0-.05-.02-.07-.03-.08-.03-.14-.07-.19-.12-.1-.11-.13-.25-.08-.39.02-.05.04-.08.07-.12.02-.18.03-.29.07-.4l.08-.19c.08-.15.11-.21.14-.24.08-.09.18-.14.3-.14.06,0,.12.01.17.03.12.05.22.11.3.18.03.03.07.05.13.07.07.03.17.06.27.1l.11.17.04-.12c.17.06.35.11.52.16l.62.19c.1.04.16.06.24.1.06.03.11.05.15.07.22.09.34.14.42.2,0,0,0,0,.01,0,.02,0,.06.01.1.03.08.03.1.05.16.09.19.1.28.14.32.16.19.07.27.26.32.39.06.19.04.27.02.33l-.1.28c-.04.11-.11.17-.23.29-.02.01-.04.04-.09.13-.06.11-.13.23-.19.36l-.19.39c-.05.11-.08.17-.09.21l-.12.34c-.06.14-.12.27-.19.4-.08.13-.14.25-.19.38l-.11.25c-.08.16-.13.27-.16.36-.01.03-.03.09-.06.21l-.05.16-.1.24-.14.09.11.05-.08.19s0,.04,0,.06c-.04.16-.07.29-.11.45l-.04.21c-.08.21-.24.28-.39.34-.09.04-.14.05-.18.05,0,0-.38-.03-.38-.03Z"/>
      <path class="cls-4" d="M36.25,27.02s.08,0,.13.03c.1.04.19.09.27.16.04.04.09.06.17.09.09.04.21.08.34.12l.09.03c.17.06.35.11.52.16l.12.03c.13.04.24.07.34.1.09.03.15.05.18.06,0,0,.03,0,.03.01.03.01.08.03.16.08.06.03.12.06.17.08.2.08.32.13.39.19.05,0,.09.02.14.03h.03s.04.04.1.08l.07.05c.14.06.23.1.28.12.14.05.2.2.25.31,0,.01,0,.02,0,.04,0,.03,0,.05.01.06.02.05.02.09,0,.14l-.1.29c-.03.07-.08.12-.2.24,0,0-.02.02-.03.02h0s0,0,0,0c0,0,0,0,0,0,0,0-.02.03-.08.14-.06.11-.13.24-.19.37l-.19.39c-.06.12-.08.19-.1.22l-.12.34c-.05.13-.11.25-.18.38-.08.13-.14.26-.2.38-.01.03-.04.11-.11.25l-.02.04c-.06.12-.11.24-.15.33-.01.03-.04.1-.07.23-.03.09-.04.14-.05.16,0,0-.01.04-.01.04l-.07.16v.09s-.02.03-.03.05l-.08.19s0,0,0,0h0s0,0,0,0c0,0,0,.03-.02.08v.05c-.04.11-.08.26-.12.46l-.03.15s0,.02-.01.03c-.04.1-.14.15-.3.21l-.06.03s-.05.02-.08.02c0,0-.01,0-.02,0l-.35-.03s-.04,0-.06-.01c-.06-.02-.12-.07-.16-.14-.03-.03-.05-.05-.06-.06-.02-.01-.03-.02-.04-.04l-.06-.08c-.08-.12-.32-.51-.23-.74.03-.06.08-.11.13-.16,0,0,.01-.01.02-.02l.03-.08s.03-.05.04-.07l.07-.1s.04-.1.05-.15c.02-.07.05-.16.11-.29l.07-.19c.03-.08.07-.18.13-.31l.2-.49.17-.33.2-.5.21-.38c.06-.11.11-.21.16-.32l.05-.12c.04-.09.07-.17.11-.25.04-.07.08-.13.11-.2-.02,0-.08-.03-.17-.08-.08-.04-.17-.08-.26-.11-.02,0-.08-.03-.23-.04-.11-.01-.2-.03-.29-.06-.03.04-.06.09-.08.13-.2.31-.39.71-.46.9-.08.2-.17.39-.27.6-.08.16-.16.34-.25.55l-.24.63s-.03.1-.05.16l-.02.06c-.06.17-.11.36-.14.54-.02.08-.03.12-.04.17l-.02.07c-.02.09-.04.18-.07.25-.02.05-.05.1-.09.15-.1.12-.19.17-.31.18,0,0-.03,0-.06,0-.06,0-.12-.01-.19-.04l-.22-.09c-.27-.11-.36-.17-.4-.2-.06-.05-.13-.11-.17-.19-.06-.11-.05-.28.05-.52.06-.15.13-.32.23-.55.1-.22.21-.48.34-.79l.33-.72.19-.38.18-.42.25-.53c.05-.1.08-.19.12-.27.03-.08.06-.14.07-.21l.02-.06h-.02c-.06-.02-.11-.04-.16-.06-.07-.03-.11-.06-.15-.09-.07-.07-.09-.17-.05-.25.02-.04.04-.07.06-.1l.04-.06s.02-.03.02-.09c-.02-.1,0-.18.03-.27l.08-.18c.07-.14.1-.19.13-.22.05-.06.12-.09.2-.09M36.25,26.77c-.15,0-.29.06-.39.18-.04.05-.08.12-.16.27l-.09.19c-.05.12-.07.25-.05.37v.02s-.07.09-.09.15c-.07.18-.03.38.1.52.05.05.11.1.19.13,0,0,0,0,0,0-.04.09-.07.17-.11.26l-.25.53-.18.43-.18.36-.33.73c-.13.31-.25.57-.35.79-.1.23-.17.41-.23.55-.08.2-.17.49-.04.74.05.12.16.21.25.28.06.04.16.11.46.23l.22.09c.1.04.19.06.28.06.03,0,.07,0,.11-.01.15,0,.3-.1.44-.26.06-.09.1-.15.13-.22.03-.08.06-.19.08-.3v-.07s.03-.08.05-.15c.04-.19.08-.37.14-.53l.02-.07c.02-.07.03-.11.04-.14l.24-.64c.08-.2.16-.38.24-.53.11-.22.2-.42.28-.62.07-.17.24-.55.43-.84.05,0,.09.02.14.02.13.01.17.03.17.03.05.02.11.04.17.07-.04.09-.08.16-.11.25l-.05.12c-.04.1-.09.2-.14.29l-.21.38-.21.53-.16.31-.21.51c-.06.12-.1.23-.14.31l-.07.19c-.06.15-.1.25-.12.33,0,.03-.02.07-.03.1l-.05.07s-.04.06-.06.11v.03c-.08.06-.14.13-.18.23-.12.3.07.7.26.97l.07.1s.06.06.09.09c.09.11.19.19.29.23.04.02.09.03.14.03l.34.03s.01,0,.02,0c.09,0,.15-.01.2-.03l.06-.03c.16-.06.35-.15.43-.35,0-.01.02-.06.02-.07l.03-.16c.04-.2.07-.34.1-.44,0,0,.01-.06.02-.07,0-.02.01-.05.01-.07l.07-.15s.03-.08.03-.12v-.05s.07-.13.07-.13c0-.01.02-.07.03-.09l.05-.15c.03-.13.05-.18.06-.21.04-.09.09-.2.14-.31.08-.17.11-.25.13-.29.06-.12.11-.24.19-.37.08-.15.14-.28.2-.42l.13-.34s.04-.09.09-.2l.19-.39c.06-.13.13-.25.19-.35.02-.04.04-.07.05-.09,0,0,.01-.01.02-.02.13-.13.21-.2.26-.33l.11-.29s.07-.17,0-.32c0-.01-.01-.07-.02-.08-.04-.1-.13-.36-.39-.46-.05-.02-.13-.05-.26-.11l-.03-.03c-.07-.05-.1-.08-.16-.1-.07-.03-.12-.04-.17-.05-.09-.05-.21-.11-.39-.18-.05-.02-.09-.04-.14-.06-.09-.05-.15-.07-.19-.09,0,0-.05-.02-.05-.02-.04-.01-.1-.03-.18-.06-.1-.03-.22-.07-.35-.1l-.13-.04c-.17-.05-.34-.1-.51-.16l-.09-.03c-.15-.05-.25-.09-.33-.12-.06-.02-.08-.04-.09-.05-.1-.09-.21-.15-.34-.2-.07-.03-.14-.04-.22-.04h0Z"/>
    </g>
    <g>
      <path class="cls-5" d="M39.62,39.08c-.21,0-.39-.03-.54-.1l-.05-.17-.06.11c-.17-.09-.3-.25-.38-.47-.16-.36-.18-.88-.03-1.52.08-.31.17-.61.28-.9.05-.13.12-.28.23-.47-.39.34-.78.66-1.13.93-.4.29-.72.51-1.02.7-.09.06-.22.1-.37.1-.05,0-.1,0-.16-.01-.17-.03-.34-.08-.51-.15-.13-.04-.26-.11-.4-.2-.25-.16-.37-.3-.42-.45-.05-.14-.08-.27-.05-.39,0,0,.03-.1.04-.11.03-.07.09-.14.17-.19,0,0,.02-.02.03-.02,0-.03-.02-.07-.03-.1-.02-.09-.03-.19-.03-.27.01-.12.05-.19.07-.22.06-.09.15-.16.27-.2.01,0,.1-.02.11-.02.08,0,.16.03.21.08.03.03.06.04.09.07.08.05.15.09.23.12.1.05.2.08.36.1.02,0,.05,0,.07,0,.16,0,.25-.01.34-.04.16-.04.33-.11.52-.22.13-.08.36-.23.65-.46.32-.24.63-.49.95-.75.32-.26.63-.54.92-.83.29-.29.48-.5.6-.69l.13-.21.04-.15s.03-.09.06-.14c.06-.1.15-.17.26-.21.05-.03.16-.06.31-.09l.32-.05s.1,0,.1,0l.1.02.23.06c.07.01.13.05.17.07.09.06.16.13.22.23.06.08.11.19.16.31.05.11.08.21.11.31.03.12.04.19.04.25,0,.06,0,.14-.05.2,0,.01-.08.09-.1.1l-.07.09c-.11.13-.24.3-.39.49-.15.18-.29.36-.42.55-.15.19-.24.32-.28.39-.17.27-.33.55-.49.84-.18.31-.33.62-.49.98-.13.29-.23.57-.29.82,0,0,0,.02,0,.03,0,0,.16-.02.16-.02.14,0,.25.06.3.16.1.08.17.17.19.29,0,.02,0,.13,0,.15-.03.13-.03.17-.03.17.12.13.13.26.08.37l-.14.3c-.11.17-.22.23-.34.29-.15.06-.27.09-.45.11-.12.02-.26.04-.39.04Z"/>
      <path class="cls-4" d="M41.76,31.62s.02,0,.03,0l.1.02.22.06c.06.01.1.04.13.06.07.05.13.11.18.19.06.09.1.18.15.29.05.11.08.21.11.3.02.09.03.15.03.2,0,.05,0,.09-.03.13-.02.02-.04.05-.06.06-.02.02-.06.07-.11.13-.11.13-.24.3-.38.49-.15.18-.29.37-.43.56-.15.19-.24.32-.29.39-.17.27-.34.55-.49.85-.18.31-.34.63-.5.98-.14.3-.24.58-.3.84-.03.1-.03.16-.03.2l.31-.03s.01,0,.02,0c.07,0,.13.04.17.1.02.03.03.05.04.07.06.03.11.09.14.19,0,.03,0,.06,0,.09-.04.15-.04.2-.04.21,0,0,.01.03.07.1.05.06.06.14.02.21l-.14.3s-.02.03-.02.04c-.05.08-.14.14-.25.19-.13.05-.25.08-.41.1-.12.02-.25.04-.37.04-.19,0-.36-.03-.48-.09,0,0-.02,0-.03-.01l-.07-.04c-.14-.07-.25-.21-.32-.4-.15-.34-.17-.83-.03-1.45.07-.31.16-.6.27-.88.05-.15.15-.33.28-.55.09-.18.2-.37.32-.57-.58.54-1.16,1.04-1.69,1.44-.39.29-.71.51-1.01.69-.07.05-.17.08-.3.08-.04,0-.09,0-.14-.01-.15-.03-.32-.08-.48-.15-.12-.04-.25-.11-.38-.19l-.07-.04c-.16-.1-.26-.21-.3-.34-.05-.13-.07-.23-.05-.32,0-.03.02-.06.03-.08.03-.08.1-.12.12-.14.03-.03.08-.04.13-.05,0,0,0,0,0-.01-.02-.05-.04-.12-.06-.2-.02-.09-.03-.17-.03-.24,0-.08.04-.13.05-.16.04-.06.11-.11.2-.15.02,0,.05-.01.07-.01.05,0,.1.02.13.05.04.03.08.06.12.09.07.05.15.08.22.12.11.06.22.09.4.11.03,0,.07,0,.11,0,.11,0,.23-.01.34-.04.16-.04.35-.12.55-.24.14-.09.37-.24.66-.47.32-.24.63-.49.95-.75.32-.26.63-.54.93-.83.3-.29.5-.52.62-.71l.14-.21.05-.18s.02-.07.04-.11c.05-.07.11-.13.2-.16.05-.03.15-.06.3-.09l.31-.05s.02,0,.03,0M41.76,31.37s-.06,0-.08,0l-.31.05c-.18.04-.3.08-.37.12-.1.04-.22.13-.29.25-.04.07-.07.14-.08.21l-.03.1-.12.18c-.11.17-.3.38-.58.67-.29.29-.6.56-.91.82-.31.26-.62.5-.94.74-.29.22-.51.37-.65.45-.17.1-.34.17-.47.2-.09.02-.19.04-.29.04-.03,0-.06,0-.08,0-.14-.02-.22-.04-.3-.09-.09-.04-.15-.07-.21-.11-.04-.02-.07-.04-.09-.06-.08-.07-.19-.12-.3-.12-.05,0-.11,0-.16.03-.15.05-.26.14-.32.25-.02.04-.08.12-.09.26,0,.11,0,.22.03.32,0,0,0,.02,0,.02-.07.04-.15.13-.19.24-.01.02-.03.07-.04.12-.04.15,0,.31.06.45.06.18.19.34.4.47l.07.04c.14.09.28.16.43.21.17.07.35.12.52.15.08.01.14.02.19.02.18,0,.32-.04.44-.12.29-.18.62-.4,1.02-.7.22-.17.45-.36.69-.56-.1.27-.19.56-.26.86-.15.67-.13,1.22.04,1.61.09.23.24.42.44.52l.05.03s.05.03.06.03c.16.07.37.11.59.11.14,0,.28-.01.42-.04.18-.03.31-.06.45-.11.15-.07.28-.14.38-.29,0,0,.03-.05.04-.06l.14-.3c.07-.16.05-.34-.06-.47,0,0,0,0,0,0,0-.02.01-.05.02-.09.02-.07.02-.14,0-.2-.03-.13-.1-.24-.2-.32-.1-.15-.24-.23-.39-.23h-.02c.06-.2.14-.42.25-.65.16-.35.31-.66.49-.96.16-.3.32-.58.49-.84.04-.07.13-.19.27-.37.14-.19.27-.37.42-.55.15-.19.28-.36.38-.49.04-.05.07-.08.08-.1.04-.03.07-.07.1-.11.06-.09.08-.2.07-.31,0-.04,0-.11-.03-.23-.04-.12-.07-.23-.12-.35-.06-.13-.11-.24-.17-.33-.06-.1-.15-.19-.25-.26-.04-.03-.11-.07-.22-.09l-.19-.05-.13-.02s-.05,0-.07,0h0Z"/>
    </g>
    <g>
      <path class="cls-5" d="M45,45.49c-.23,0-.71-.17-.71-.18,0,0-.02,0-.03,0-.18,0-.31-.07-.48-.24-.14-.12-.28-.25-.28-.44-.01-.09-.01-.18-.01-.31v-.46l-.04-.52c-.03-.18-.05-.28-.07-.34-.02,0-.99.1-.99.1-.08,0-.12.01-.16.01-.04,0-.08,0-.15-.01-.15-.02-.23-.03-.28-.04,0,.02-.07.13-.15.45-.2.73-.42,1.02-.75,1.42-.1.13-.18.21-.23.26-.1.09-.23.14-.4.14-.07,0-.18-.01-.4-.13-.1-.04-.15-.05-.16-.05-.1.04-.16.05-.23.05-.41,0-.6-.25-.6-.5,0-.12.04-.31.36-.77.19-.28.4-.72.61-1.27.03-.07.13-.44.2-.68.06-.26.14-.55.22-.85l.12-.48c.12-.48.23-.93.33-1.33.1-.4.15-.64.16-.71.1-.5.18-.91.25-1.21.06-.27.14-.5.21-.64l.05-.14c.01-.07.06-.16.11-.26.14-.29.39-.44.74-.44.09,0,.15.03.2.06,0,0,.13.07.13.07h0s.05,0,.09-.02c.2-.06.26-.06.3-.06.19,0,.42.06.78.21.3.12.62.32.92.58.21.01.4.11.52.27.1.18.13.33.13.52v.12c-.01.13-.03.24-.04.37-.05.38-.12.9-.12,1.6,0,.16,0,.32.01.45l.05.54c.02.22.05.44.06.63,0,0,0,.02,0,.03.11.02.18.06.22.13,0,0,.05.07.12.22.12.22.13.32.13.38,0,.16-.1.32-.31.47-.03.02-.05.04-.06.05.01.08.03.16.05.25.05.25.09.43.14.62.06.23.12.42.2.61.04.12.07.16.07.16.01,0,.02,0,.04,0,.12,0,.25.13.25.3l.06.12s.04.12.04.14c0,.19-.08.29-.21.37-.12.07-.21.1-.29.1,0,0-.06,0-.18.09-.2.13-.37.2-.54.2ZM42.98,37.74c-.05.2-.08.34-.11.5,0,0-.25,1.27-.29,1.45l-.07.37c-.06.33-.1.55-.12.75-.02.09-.03.16-.04.22.06-.01.12-.02.19-.02h.58s0-.21,0-.21c0,0-.02-.26-.02-.26-.01-.12-.02-.22-.02-.29-.01-.05-.01-.09-.01-.11l.06-.92c.01-.09.01-.15.01-.2,0-.07,0-.13,0-.17-.03-.13-.05-.25-.05-.34v-.23c0-.08,0-.18.02-.29v-.17s.03-.22.03-.22l-.05.12-.09-.03-.02.08Z"/>
      <path class="cls-4" d="M42.24,36.06c.06,0,.1.02.15.05l.07.04s.02.01.03.02c.05.03.06.04.07.04,0,0,.06,0,.14-.04.09-.02.2-.05.25-.05.17,0,.4.06.73.2.29.12.59.31.89.55.23.04.4.12.5.25,0,0,.01.02.02.03.06.12.09.25.09.42v.12c-.01.12-.03.23-.04.36-.05.38-.12.91-.12,1.62,0,.16,0,.33.01.46l.05.54c.02.22.05.43.06.62,0,.06,0,.11.02.14h.02s.03,0,.04,0c.07,0,.13.03.17.09,0,0,.04.07.12.21.12.23.12.3.12.33,0,.12-.09.24-.26.37-.08.06-.11.1-.12.11,0,0,.01.12.05.31v.06c.05.19.09.38.15.57.05.23.12.43.2.62.06.17.1.2.11.2.03,0,.04,0,.04,0,.11,0,.2.09.2.2,0,0,0,.02,0,.05l.07.13s.02.06.02.09c0,.02,0,.04,0,.06-.01.12-.11.18-.15.2-.13.07-.19.08-.23.08-.04,0-.13.03-.25.11-.18.12-.33.18-.47.18-.17,0-.52-.11-.67-.17h-.09c-.11,0-.23-.06-.38-.21-.15-.13-.24-.23-.24-.35,0-.01,0-.02,0-.03v-.03c-.02-.06-.02-.13-.02-.26v-.46l-.04-.53c-.05-.31-.09-.42-.12-.45-.03,0-.09,0-.17.01-.12.01-.25.03-.39.04-.15.01-.27.03-.4.04h-.12c-.07.02-.11.03-.15.03-.04,0-.07,0-.13-.01h-.09c-.09-.03-.17-.04-.24-.04,0,0-.12.06-.25.54-.19.7-.4.99-.73,1.37-.1.12-.17.2-.22.25-.07.07-.18.11-.31.11-.03,0-.12,0-.34-.11-.11-.05-.18-.06-.21-.07h-.03c-.11.04-.16.05-.21.05-.35,0-.47-.2-.47-.38,0-.1.04-.26.34-.7.19-.29.41-.74.62-1.3.03-.07.13-.45.2-.7.06-.27.14-.57.22-.88l.12-.45c.12-.48.23-.93.33-1.34.1-.4.15-.64.16-.71.1-.5.18-.91.25-1.21.06-.26.13-.49.2-.61v-.04s.04-.07.06-.12c.01-.07.06-.16.11-.25.12-.24.33-.36.63-.36M42.21,41.19s.04-.01.06-.02c.06-.03.16-.05.26-.05h.61c.07.01.1,0,.1,0,0,0,0-.01,0-.05v-.29s0-.08-.01-.13c0-.05,0-.09-.01-.14-.01-.12-.02-.21-.02-.28-.01-.06-.01-.1-.01-.11l.06-.91c.01-.1.01-.17.01-.22,0-.07,0-.14,0-.18-.03-.13-.05-.23-.05-.31v-.23c0-.08,0-.17.02-.28v-.19c0-.1-.01-.14-.03-.15-.02-.02-.04-.04-.07-.06-.03-.01-.06-.02-.1-.03-.04-.01-.08-.02-.12-.04,0,.01,0,.02,0,.04l-.04.17c-.03.14-.07.31-.11.5l-.06.3c-.04.19-.08.39-.12.6-.05.22-.09.44-.13.65l-.05.27c-.06.33-.1.56-.12.75-.04.23-.05.35-.05.38,0,.01,0,.02,0,.03M42.24,35.81c-.39,0-.7.18-.85.51-.05.1-.11.21-.13.31l-.03.07s-.02.05-.02.05c-.09.16-.17.47-.2.63-.07.3-.15.72-.25,1.22-.01.06-.07.3-.16.7-.1.4-.21.85-.33,1.33l-.12.45c-.08.32-.16.62-.23.89-.05.2-.16.59-.19.66-.21.55-.42.98-.6,1.25-.33.48-.38.69-.38.84,0,.3.23.63.72.63.07,0,.14-.02.25-.04.02,0,.05.02.09.04.23.12.37.14.44.14.25,0,.4-.09.49-.17.05-.05.13-.14.24-.27.34-.4.57-.72.77-1.47.05-.18.09-.29.13-.35.02,0,.04,0,.06,0l.11.02c.07.01.11.02.17.02.04,0,.09,0,.18-.01h.12c.15-.03.26-.04.39-.05l.32-.03h.05s.03.12.04.23l.04.51v.44c0,.11,0,.19.02.27,0,.02,0,.03,0,.04,0,.25.17.41.33.54.14.13.31.27.54.27h.04c.13.05.5.17.71.17.19,0,.38-.07.6-.22.09-.06.13-.07.13-.07,0,0,0,0,0,0,.08,0,.19-.04.32-.11.17-.1.26-.24.27-.4,0-.05,0-.09,0-.13,0-.02-.01-.09-.05-.15l-.04-.08c-.01-.2-.15-.37-.34-.41,0-.01-.01-.03-.02-.05-.08-.19-.14-.38-.19-.59-.06-.2-.1-.39-.13-.57v-.06c-.03-.07-.04-.13-.04-.18.24-.17.36-.37.36-.57,0-.08-.02-.2-.15-.44-.08-.15-.13-.23-.13-.23-.05-.08-.13-.14-.21-.17-.01-.17-.03-.36-.05-.56l-.05-.54c-.01-.13-.01-.28-.01-.44,0-.69.07-1.21.12-1.59.02-.13.03-.24.04-.36v-.14c0-.2-.04-.38-.12-.53,0,0-.03-.05-.04-.06-.13-.17-.33-.29-.59-.34-.3-.24-.61-.43-.9-.55-.37-.15-.62-.21-.83-.21-.03,0-.1,0-.32.06-.01,0-.02,0-.03.01-.01,0-.03-.02-.03-.02l-.07-.04c-.06-.03-.14-.07-.26-.07h0ZM42.5,40.87s0-.03,0-.04c.03-.21.06-.43.12-.75l.05-.27v-.06c.05-.19.08-.38.13-.58.04-.21.08-.41.12-.6l.03-.14v.08c0,.1.02.22.05.37,0,.03,0,.08,0,.12,0,.05,0,.11-.01.19l-.06.93s0,.09.02.17c0,.03,0,.13.01.26,0,.05,0,.09.01.13,0,.05,0,.1.01.14v.08h-.46s0,0,0,0c-.01,0-.03,0-.04,0h0Z"/>
    </g>
    <g>
      <path class="cls-5" d="M68.31,51.07c-.21-.03-.58-.24-.66-.28-.18-.02-.31-.11-.46-.32-.11-.13-.23-.29-.2-.47,0-.09.01-.18.03-.31l.07-.47.04-.53c0-.19,0-.29-.02-.35-.02,0-1.07-.04-1.1-.05-.04,0-.09-.02-.15-.04l-.06-.15-.04.12s-.09-.03-.12-.04c-.04.05-.13.17-.24.43-.29.7-.55.97-.93,1.33-.12.12-.21.19-.26.23-.08.06-.19.09-.31.09,0,0-.1,0-.11,0-.07,0-.18-.04-.37-.19-.06-.04-.12-.07-.14-.07-.03.01-.11.02-.17.02-.29-.04-.41-.15-.47-.23-.08-.1-.11-.23-.09-.36.02-.12.09-.3.46-.71.22-.26.49-.67.78-1.2.04-.06.18-.4.29-.67.09-.22.19-.47.29-.73l.24-.57c.19-.47.36-.91.52-1.3.15-.39.24-.63.26-.69.17-.5.31-.9.42-1.19.1-.27.21-.49.29-.61l.18-.08-.12-.04c.03-.08.09-.17.16-.27.14-.22.36-.34.62-.34.05,0,.1,0,.16.01.09.01.15.06.2.1,0,0,.1.08.11.09.03,0,.07-.01.08-.01.11-.02.18-.02.23-.02.25.03.47.13.79.33.27.17.54.41.8.71.19.04.37.17.46.35.07.19.08.35.05.53l-.02.12c-.03.12-.06.23-.09.35-.11.4-.26.92-.36,1.62-.03.18-.05.33-.06.46l-.03.52c-.01.26-.02.48-.04.68,0,0,0,.02,0,.03.09.03.16.09.19.18,0,0,.03.08.08.24.08.24.08.33.07.39-.02.16-.15.3-.36.42-.06.04-.09.06-.09.06.02,0,.02.11.02.25,0,.25.02.45.04.65.02.24.05.44.1.64.02.13.05.17.05.17,0,0,.01,0,.02,0,.12,0,.23.16.21.32l.04.15s.01.12.01.14c-.05.24-.2.31-.25.33-.12.05-.2.07-.25.07-.01,0-.03,0-.04,0-.04,0-.1.01-.19.06-.18.09-.33.13-.47.13,0,0-.08,0-.09,0ZM66.64,46.18l.58.1v-.24s.01-.27.01-.27c0-.13.02-.23.03-.3,0-.06,0-.1,0-.12l.19-.91c.03-.09.04-.15.04-.21.01-.08.02-.14.02-.17,0-.14,0-.26,0-.35l.04-.24c.01-.09.03-.19.06-.29l.02-.18c.01-.08,0-.1,0-.1l-.07-.04s-.14.38-.2.55l-.62,1.79c-.11.32-.18.54-.23.74-.03.09-.05.17-.07.22.02,0,.03,0,.05,0,.04,0,.08,0,.12,0Z"/>
      <path class="cls-4" d="M66.96,41.14s.09,0,.14.01c.06,0,.09.04.14.07l.07.05s.02.02.03.03c.02.03.04.04.05.04,0,0,0,0,0,0,0,0,0,0,0,0,.03,0,.07,0,.12-.02.11-.02.17-.02.21-.02.02,0,.03,0,.05,0,.16.02.37.12.68.31.26.16.52.4.77.69.22.07.37.18.44.33,0,0,0,.02.01.03.04.12.05.27.02.43l-.02.12c-.03.12-.06.23-.09.35-.11.38-.25.9-.36,1.62-.02.15-.05.33-.06.47l-.03.52c-.01.24-.02.47-.04.67,0,.07,0,.11,0,.14h.01s.01,0,.01,0c.08,0,.15.05.18.12,0,0,.03.08.08.23.08.24.07.31.06.34-.02.12-.12.23-.3.33-.09.05-.12.09-.13.1,0,.01,0,.13,0,.33v.06c0,.2.02.4.04.6.02.24.05.45.1.66.03.18.07.22.07.22.02,0,.03,0,.03,0,.11.02.18.11.16.22,0,0,0,.03,0,.06l.05.14s.01.06,0,.09c0,.02,0,.04,0,.06-.02.1-.11.15-.17.18-.12.05-.17.06-.2.06-.02,0-.03,0-.04,0,0,0,0,0,0,0-.03,0-.11.01-.24.08-.16.08-.29.12-.41.12-.02,0-.05,0-.07,0-.16-.02-.48-.19-.62-.27h-.08c-.11-.03-.21-.11-.34-.28-.12-.15-.19-.26-.18-.38l.02-.06c-.01-.06,0-.14.02-.26l.07-.46.04-.54c0-.31-.02-.43-.04-.48-.03,0-.08,0-.16-.01h-.06c-.1,0-.21-.01-.32-.02-.15,0-.27-.01-.38-.02h-.12c-.07,0-.11,0-.14-.01-.03,0-.07-.02-.13-.03l-.08-.03c-.08-.02-.16-.05-.22-.06,0,0-.12.05-.32.52-.29.68-.53.94-.9,1.28-.12.11-.2.18-.25.22-.06.05-.15.07-.24.07-.03,0-.06,0-.09,0-.05,0-.14-.03-.31-.17-.08-.06-.14-.08-.18-.09h-.03c-.06.01-.13.02-.18.02-.01,0-.03,0-.04,0-.34-.05-.43-.27-.4-.45.01-.1.08-.26.42-.65.23-.26.5-.69.79-1.22.04-.06.18-.4.3-.68.1-.26.22-.55.35-.86l.18-.44c.19-.47.36-.91.52-1.3.15-.39.24-.63.26-.69.17-.5.31-.9.42-1.19.1-.26.2-.47.28-.58l.02-.04s.04-.07.06-.11c.02-.06.08-.15.14-.23.12-.19.29-.29.52-.29M66.31,46.33s.03,0,.05-.01c.04-.01.1-.02.16-.02.03,0,.07,0,.1,0l.58.1s.02,0,.03,0c.03,0,.05,0,.06,0h0s.01-.02.02-.05l.04-.29s0-.08,0-.14c0-.05,0-.09,0-.14,0-.12.02-.21.03-.28,0-.08,0-.11,0-.11l.19-.91c.03-.1.04-.16.05-.22.01-.07.02-.14.02-.19,0-.13,0-.24,0-.32l.04-.24c.01-.09.03-.18.06-.28l.03-.2c.02-.11,0-.15,0-.17-.01-.02-.03-.05-.06-.07-.03-.02-.06-.03-.09-.04-.03-.02-.07-.03-.1-.05,0,.01,0,.02-.01.03l-.06.15c-.06.14-.12.31-.19.5l-.1.3c-.06.18-.13.38-.2.58-.08.22-.15.43-.22.64l-.09.27c-.11.33-.18.55-.23.75-.08.23-.1.34-.11.38,0,.01,0,.02,0,.04M66.96,40.89h0c-.31,0-.56.14-.73.4-.07.09-.13.19-.17.29l-.04.07s-.02.05-.03.05c-.1.14-.23.44-.29.61-.11.3-.25.7-.42,1.2-.02.06-.11.3-.26.68-.15.39-.33.83-.51,1.3l-.18.44-.02.06c-.12.29-.23.56-.33.8-.09.22-.25.58-.28.64-.29.53-.55.93-.77,1.18-.39.44-.46.63-.48.78-.05.3.13.66.61.73.01,0,.06,0,.07,0,.05,0,.11,0,.17-.01.02,0,.04.02.07.04.16.12.29.19.42.21.04,0,.08,0,.13,0,.15,0,.28-.04.39-.12.06-.04.14-.12.27-.24.38-.36.66-.64.96-1.37.07-.17.13-.27.17-.33,0,0,.02,0,.03,0l.11.03c.07.02.12.04.16.04.04,0,.09,0,.17.01h.12c.12,0,.23.01.38.02h.29s.05.01.05.01c0,.06,0,.14,0,.24l-.04.52-.07.44c-.02.11-.03.19-.02.28h0c-.04.28.09.46.22.62.11.15.27.32.5.36h.03c.13.08.46.25.66.28.03,0,.07,0,.11,0,.16,0,.33-.05.52-.14.06-.03.1-.04.12-.05.02,0,.04,0,.06,0,.07,0,.16-.02.29-.08.18-.08.28-.2.32-.35.01-.04.01-.08.01-.13,0-.02,0-.09-.02-.16l-.03-.09c.01-.21-.09-.39-.26-.46,0-.02,0-.03-.01-.06-.05-.21-.08-.41-.09-.63-.03-.21-.04-.4-.04-.59v-.06c0-.08,0-.15,0-.2,0,0,0,0,0,0,.25-.14.4-.31.43-.51.01-.08.01-.19-.07-.45-.05-.16-.09-.24-.09-.24-.04-.09-.1-.16-.18-.21.02-.19.03-.4.04-.62l.03-.51c0-.13.03-.29.05-.43.11-.71.25-1.22.36-1.6.04-.15.07-.26.1-.37l.02-.14c.03-.2.02-.38-.03-.54,0-.01-.02-.05-.02-.06-.1-.19-.27-.34-.52-.43-.25-.29-.52-.52-.78-.69-.34-.21-.57-.31-.77-.34-.01,0-.07,0-.08,0-.05,0-.12,0-.25.02,0,0-.01,0-.02,0,0,0-.01-.01-.02-.01l-.06-.05c-.05-.04-.13-.1-.25-.12-.06,0-.12-.01-.17-.01h0ZM66.64,46.06s.01-.04.02-.06c.06-.2.12-.42.23-.74l.09-.26c.07-.2.14-.42.22-.63.07-.2.14-.39.2-.57h0c0,.08,0,.18,0,.3,0,.03,0,.08-.02.13,0,.06-.02.11-.04.19l-.2.93s-.01.08,0,.17c0,.03-.02.13-.03.27,0,.04,0,.09,0,.13,0,.05,0,.11,0,.14v.09s-.43-.07-.43-.07c0,0-.02,0-.03,0h0Z"/>
    </g>
    <g>
      <path class="cls-5" d="M49.91,50.57c-.24-.06-.45-.2-.63-.42-.18-.2-.3-.44-.35-.71-.04-.22-.05-.62.25-1.87l.08-.32c.02-.08.04-.16.07-.23,0,0,.04-.17.04-.2-.11-.02-.28-.03-.44-.05l-.2-.02c-.15,0-.28-.02-.41-.04h-.03c-.02.06-.04.14-.07.24l-.29.86c-.26.8-.39,1.19-.47,1.34-.02.08-.07.18-.14.28-.21.28-.43.47-.69.57-.12.05-.24.08-.36.08-.07,0-.13,0-.2-.02-.17-.04-.34-.12-.49-.24-.18-.12-.27-.34-.22-.58-.16-.13-.23-.32-.18-.51.05-.21.25-.31.43-.38.05-.12.1-.21.14-.33.02-.07.14-.38.14-.38l.04-.11c.03-.1.05-.16.07-.21l.11-.29.19-.62c.03-.09.05-.17.08-.23-.04-.02-.07-.05-.1-.09-.14-.21-.18-.45-.12-.72.08-.27.12-.44.16-.6.05-.21.22-.31.36-.31l.16.04c.07-.15.2-.52.41-1.37l.03-.11c0-.05.02-.13.03-.2l.06-.27c.03-.14.08-.28.15-.42l.02-.06s-.07-.07-.1-.11c-.06-.1-.08-.24-.04-.39.06-.27.25-.51.54-.71.23-.15.49-.23.76-.23.07,0,.13,0,.2.01.12.03.2.08.3.17l.07.06s.06.05.1.08l.03.19.08-.09s.09.09.14.14c.09.11.14.2.19.28.1.19.12.36.08.54-.01.06-.04.18-.17.26-.05.03-.1.04-.14.05-.02.05-.05.13-.09.25-.11.3-.22.63-.31.98-.11.37-.21.7-.27.99l-.07.25s.17,0,.17,0c.04,0,.07,0,.11,0l.15.02c.11.02.27.04.43.04.21,0,.27-.04.27-.04.02-.19.08-.39.15-.57.05-.13.1-.22.13-.29l.16-.05-.12-.04.05-.16c0-.06.03-.17.07-.34.01-.07.07-.22.15-.35,0,0,0,0,0-.01.02-.07.04-.1.06-.14l.09-.5c.03-.12.07-.21.12-.29-.06-.11-.08-.23-.05-.35.06-.25.31-.59.58-.59.16.03.24.09.33.18.16,0,.25,0,.33,0,.21,0,.3-.01.31-.02.12-.04.22-.05.31-.05.05,0,.09,0,.13.02.09.02.13.04.16.06.13.09.22.2.26.33.04.13.03.24.03.32,0,.1-.02.17-.03.22-.02.09-.06.13-.19.25l-.11.11c-.1.1-.17.24-.21.41l-.09.36s-.04.08-.05.1l-.12.3c-.05.13-.11.27-.17.42-.07.16-.13.31-.18.47l-.17.1.12.04c-.09.25-.12.34-.13.38-.02.07-.03.12-.03.17.13.05.26.1.37.19.16.17.2.34.16.5-.01.06-.04.11-.08.19l-.13.18.11-.06c.09.18.12.37.07.56-.03.13-.1.23-.2.32-.08.08-.18.12-.29.12-.1-.01-.16-.03-.19-.05l-.15-.08-.23-.05-.02.04c-.05.1-.08.19-.1.28-.02.07-.02.14-.03.21l-.03.31c-.02.15-.04.29-.07.44-.02.09-.08.35-.04.47l.07-.07s.1-.03.1-.03l.34-.07h.15c.13.03.25.11.32.23.07.11.09.25.06.38-.02.06-.04.11-.16.26l-.02.14c-.06.14-.1.21-.18.28-.08.07-.15.12-.24.16-.08.03-.17.07-.27.12l-.31.16s-.09.03-.1.03l-.43.06c-.06,0-.1.02-.14.03-.06.01-.11.02-.17.02,0,0-.11-.01-.12-.01Z"/>
      <path class="cls-4" d="M48.69,40.77c.06,0,.12,0,.18.01.09.02.15.06.23.14l.08.07s.06.05.12.09c.01,0,.02.02.03.03l.06.06s.09.08.13.13c.08.1.13.19.18.27.07.14.09.28.05.43-.01.05-.03.13-.12.18-.05.03-.1.04-.16.04-.02.05-.07.14-.13.33-.11.3-.22.63-.31.98-.11.37-.21.7-.28.99-.06.2-.09.33-.11.4.05,0,.15,0,.3.01,0,0,.02,0,.03,0,.04,0,.07,0,.13.02l.11.02c.12.02.28.04.45.04.29,0,.35-.06.35-.06.06-.25.12-.45.19-.62.05-.13.09-.21.12-.28l.02-.05s.02-.04.02-.06c0-.02.02-.05.03-.07l.02-.1c0-.08.03-.19.07-.36,0-.04.06-.18.14-.3,0,0,0-.02.01-.04.01-.04.03-.07.04-.1l.02-.03.09-.51c.03-.11.06-.2.12-.28,0-.01.02-.03.02-.04-.08-.1-.1-.21-.08-.32.05-.2.26-.5.46-.5.02,0,.03,0,.05,0,.07.02.12.06.22.17h.07c.13,0,.23,0,.32,0,.23,0,.32-.02.33-.02.12-.03.21-.05.29-.05.04,0,.07,0,.1.01h.05s.05.03.07.04c.11.08.18.16.21.27.03.1.03.2.02.28,0,.12-.02.17-.02.19-.01.06-.04.09-.16.21l-.1.1c-.12.12-.2.28-.24.46l-.09.36s0,.02-.01.04c0,0-.03.06-.09.19l-.06.15c-.05.13-.1.26-.17.41-.08.18-.15.36-.21.54l-.03.08c-.09.26-.12.36-.13.39-.04.15-.04.24-.05.28.01,0,.03,0,.03.01.12.04.28.1.4.19.01,0,.02.02.03.03.08.1.11.22.08.34,0,.04-.03.08-.07.15-.02.04-.05.09-.06.12,0,0,0,.04.05.12.08.15.1.31.06.47-.02.1-.08.18-.15.25-.04.04-.11.09-.21.09-.02,0-.04,0-.06,0-.02,0-.06-.02-.07-.02l-.16-.08-.36-.08s-.04.07-.06.13c-.05.1-.08.2-.11.3-.02.08-.03.17-.03.25l-.03.29c-.02.14-.04.28-.07.42-.04.18-.09.41-.03.54,0,.01.02.03.06.04h.04s.07-.02.11-.03l.09-.02s.08-.02.12-.02c.04,0,.08-.01.11-.02,0,0,.02,0,.03,0,.05,0,.08-.01.08-.01.01,0,.03,0,.04,0s.03,0,.04,0c.1.02.19.09.24.17.05.08.07.19.04.29,0,.03-.02.07-.13.21l-.04.19s0,.03-.02.05c-.03.07-.07.12-.12.17-.07.06-.13.11-.2.14-.08.03-.17.07-.28.13l-.31.16s-.04.02-.06.02l-.43.06c-.06.01-.11.02-.15.03-.05.01-.1.02-.14.02-.03,0-.06,0-.09-.01-.21-.05-.4-.18-.57-.38-.17-.19-.28-.41-.33-.66-.03-.19-.05-.57.25-1.81l.08-.32c.02-.07.03-.14.06-.21l.03-.12c.03-.12.04-.19.04-.22,0,0-.02,0-.04-.01-.07-.02-.32-.04-.55-.07l-.17-.02c-.14,0-.27-.02-.4-.04-.04,0-.09,0-.14,0-.02.06-.05.17-.1.33-.09.27-.19.55-.28.85-.26.79-.39,1.18-.46,1.32-.02.09-.07.17-.13.27-.2.26-.4.43-.63.53-.1.04-.21.07-.32.07-.06,0-.11,0-.17-.02-.15-.04-.3-.11-.44-.22-.15-.1-.22-.27-.17-.47,0-.02,0-.04.02-.06,0,0,0,0,0,0-.16-.09-.24-.25-.2-.43.04-.15.2-.23.35-.29,0,0,.03-.02.08-.11.04-.07.09-.18.13-.29.02-.07.05-.13.07-.19.02-.06.05-.12.07-.18.02-.05.03-.1.05-.15.02-.07.04-.12.06-.17l.11-.29.19-.63c.04-.14.08-.24.1-.3,0-.01,0-.02.01-.03,0,0-.02,0-.03,0-.05-.01-.1-.04-.13-.08-.12-.17-.15-.38-.1-.62v-.05c.08-.21.12-.39.16-.55.04-.15.15-.21.24-.21.02,0,.05,0,.06,0l.17.05c.06-.1.21-.43.46-1.49l.03-.11c0-.07.02-.14.03-.2l.06-.26c.03-.13.08-.27.14-.4l.02-.05s.03-.08.04-.12c-.06-.02-.11-.06-.15-.11-.05-.08-.05-.17-.03-.29.06-.24.22-.46.49-.64.21-.14.44-.21.69-.21M48.69,40.52c-.3,0-.57.08-.83.25-.32.22-.52.48-.6.79-.05.19-.03.35.06.48.02.03.04.05.06.08-.06.12-.11.27-.14.42l-.06.26c-.02.09-.04.17-.04.25l-.02.06c-.17.7-.28,1.06-.36,1.25-.03,0-.07,0-.09,0-.19,0-.42.12-.49.4-.04.17-.08.34-.14.54l-.02.07c-.07.31-.03.59.13.83.01.02.03.04.05.06-.02.04-.03.09-.05.14l-.19.63-.1.28s-.04.11-.06.19c-.01.05-.03.09-.04.14-.02.05-.04.1-.06.15-.04.09-.06.16-.09.23-.04.11-.08.2-.11.26,0,0,0,0,0,.01-.15.06-.38.18-.44.44-.05.22.01.44.17.59-.03.26.08.5.29.64.15.12.33.21.52.25.07.02.15.03.23.03.14,0,.28-.03.42-.09.27-.11.51-.31.73-.61.08-.12.13-.22.16-.33.08-.17.21-.55.47-1.34.1-.3.19-.58.28-.85.02-.06.03-.11.04-.15.1.01.22.02.34.03l.17.02c.11.01.23.02.32.03l-.02.09s-.04.12-.06.2l-.08.33c-.3,1.27-.29,1.69-.25,1.92.06.29.19.55.39.78.19.24.43.4.7.46.05.01.1.02.15.02.06,0,.12,0,.2-.03.03,0,.06-.01.11-.02l.45-.06s.1-.02.14-.04l.31-.16c.1-.05.18-.09.24-.11.12-.05.21-.11.3-.19.09-.08.14-.16.17-.24,0-.02.03-.08.04-.1l.03-.14c.1-.12.12-.18.14-.26.04-.17.01-.34-.07-.48-.09-.14-.23-.24-.39-.28-.02,0-.08-.01-.1-.01-.03,0-.07,0-.1.01h-.07s-.05.02-.07.03c-.02,0-.04.01-.07.01-.06.01-.1.02-.14.03h-.02c0-.05.02-.13.04-.23.03-.15.06-.3.07-.45l.03-.3c0-.08.01-.15.03-.22.02-.07.04-.13.07-.2l.13.03.12.07s.11.04.13.05c.03,0,.08.01.11.01.14,0,.27-.06.38-.16.11-.09.19-.22.23-.37.05-.21.03-.43-.08-.63.05-.1.09-.16.1-.23.05-.2,0-.41-.13-.56-.01-.02-.06-.06-.08-.07-.09-.07-.2-.12-.3-.16,0-.02,0-.04.01-.06,0-.04.04-.13.12-.37l.03-.08c.06-.17.13-.35.21-.53.06-.15.12-.29.17-.41l.06-.15.08-.18s.03-.07.03-.08l.09-.36c.03-.14.1-.26.18-.35l.1-.1c.14-.14.2-.2.23-.33,0-.01.02-.07.03-.23,0-.09,0-.22-.04-.37-.05-.16-.15-.29-.31-.4-.05-.03-.1-.06-.16-.07h-.05c-.05-.02-.1-.03-.16-.03-.1,0-.21.02-.36.06,0,0,0,0,0,0-.01,0-.09,0-.26,0-.08,0-.17,0-.28,0-.08-.08-.17-.14-.28-.17-.02,0-.08-.01-.1-.01-.35,0-.64.4-.71.69-.03.13-.02.26.03.38-.05.09-.08.17-.1.26l-.09.49c-.03.05-.04.09-.05.13,0,0,0,.02,0,.02-.08.13-.14.29-.15.36-.04.19-.07.3-.08.39v.03s-.03.04-.04.07l-.04.09c-.03.07-.08.16-.13.29-.06.16-.12.33-.17.52-.03,0-.08,0-.14,0-.15,0-.31-.02-.41-.04l-.12-.02c-.08-.01-.12-.02-.16-.02,0,0,0,0,0,0,0-.03.02-.06.03-.09.07-.3.16-.63.27-.99.1-.35.2-.67.31-.97.03-.08.05-.14.07-.19.04-.01.08-.03.12-.05.17-.11.21-.27.23-.34.05-.2.02-.41-.07-.6-.07-.11-.12-.2-.21-.31-.06-.07-.11-.12-.16-.16l-.06-.06s-.06-.05-.07-.06c-.04-.03-.07-.05-.09-.06l-.08-.07c-.07-.07-.17-.15-.33-.19-.09-.01-.17-.02-.24-.02h0Z"/>
    </g>
  </g>
</svg>