<?xml version="1.0" encoding="UTF-8"?>
<svg xmlns="http://www.w3.org/2000/svg" xmlns:xlink="http://www.w3.org/1999/xlink" viewBox="0 0 400 260">
  <defs>
    <style>
      .cls-1 {
        fill: #231f20;
      }

      .cls-2 {
        isolation: isolate;
      }

      .cls-3 {
        fill: url(#linear-gradient);
        mix-blend-mode: multiply;
      }
    </style>
    <linearGradient id="linear-gradient" x1="175.97" y1="224.87" x2="205.42" y2="93.31" gradientUnits="userSpaceOnUse">
      <stop offset="0" stop-color="#fff"/>
      <stop offset="1" stop-color="#939598"/>
    </linearGradient>
  </defs>
  <g class="cls-2">
    <g id="Layer_2" data-name="Layer 2">
      <g>
        <g>
          <g>
            <path class="cls-1" d="M44.47,54.17h0s0-.03.01-.04c0,.02-.01.04-.01.04Z"/>
            <path class="cls-1" d="M363.77,125.87c-.57-2.47-2.61-5.65-5.94-8.94-3.33-3.3-7.94-6.74-13.54-10.15-5.62-3.4-12.22-6.81-19.54-10.26-14.69-6.84-32.39-13.59-51.67-19.87-9.64-3.16-19.7-6.09-29.95-9-10.28-2.88-20.69-5.54-31.3-8.02-10.49-2.51-21.09-4.82-31.54-6.84-10.46-2-20.77-3.89-30.8-5.38-10.03-1.48-19.75-2.76-29-3.66-9.25-.88-18.01-1.5-26.1-1.72-8.09-.2-15.52-.1-22.07.43-6.54.54-12.2,1.55-16.66,3.01-4.45,1.45-7.7,3.38-9.31,5.34-.74.99-1.3,1.8-1.48,2.44-.24.59-.37.9-.37.92,0,0,0,0,0,0-2.95,12.48,24.29,30.47,67.7,47.27l-20.68,22.88c-3.05-.85-6.45-.02-8.72,2.49-3.19,3.53-2.92,8.98.62,12.18,3.53,3.19,8.98,2.91,12.17-.62,2.27-2.51,2.75-5.97,1.6-8.92l22.69-25.11c8.76,3.22,18.11,6.38,27.92,9.44l16.37-21.79.08.02c1.83-4.08,19.76-3.72,40.87.95,21.12,4.66,37.54,11.87,37.48,16.35l.08.02,5.96,28.01c9.58,1.51,18.81,2.75,27.58,3.69l9.28,29.99c-2.29,2.19-3.31,5.54-2.31,8.76,1.41,4.55,6.24,7.09,10.78,5.68,4.55-1.41,7.09-6.24,5.69-10.78-1-3.23-3.73-5.41-6.86-5.93l-8.33-26.91c45.14,4.08,76.57.13,79.47-12.14,0,0,.03-.34.08-1,.12-.65-.02-1.62-.23-2.85ZM64.42,56.04c.31-.24.83-.4,1.53-.48.7-.09,1.57-.09,2.57-.03,1.01.06,2.15.19,3.38.4,1.24.2,2.57.47,3.95.79.45.11.9.22,1.36.34.46.12.92.24,1.38.37.46.13.93.27,1.4.41.47.14.93.29,1.4.45,1.9.63,3.62,1.29,5.08,1.94,1.45.65,2.66,1.3,3.58,1.9.9.6,1.51,1.16,1.76,1.64.25.47.16.88-.32,1.16-.36.22-.92.35-1.64.42-.72.07-1.59.06-2.59-.01-.99-.07-2.1-.21-3.29-.41-1.19-.2-2.47-.46-3.79-.77-.43-.1-.86-.21-1.3-.32-.43-.12-.88-.23-1.33-.36-.44-.13-.89-.26-1.34-.39-.45-.14-.9-.28-1.35-.43-1.83-.6-3.5-1.23-4.95-1.86-1.45-.63-2.68-1.26-3.62-1.86-.96-.6-1.63-1.16-1.96-1.66-.33-.5-.32-.92.09-1.23ZM73.04,73.22c-1.6-.51-3.09-1.06-4.41-1.61-1.33-.55-2.48-1.12-3.39-1.65-.91-.54-1.56-1.05-1.87-1.5-.32-.45-.27-.8.1-1.04.37-.24,1.06-.38,2.01-.4.96-.03,2.19.06,3.62.26,1.44.2,3.08.51,4.86.93,1.79.42,3.54.92,5.2,1.46,1.64.53,3.18,1.1,4.52,1.68,1.33.57,2.47,1.14,3.34,1.68.86.54,1.46,1.04,1.7,1.48.25.43.12.76-.3.98-.42.22-1.15.33-2.12.34-.97.01-2.18-.09-3.57-.29-1.39-.2-2.98-.5-4.69-.9-1.71-.41-3.4-.88-5-1.4ZM103.8,88.74c-.41.18-1.09.26-2.03.25-.93-.01-2.1-.12-3.5-.33-.34-.05-.69-.11-1.04-.17-.35-.06-.71-.13-1.06-.2-.36-.07-.72-.15-1.09-.23-.37-.08-.73-.16-1.1-.25-1.13-.27-2.27-.57-3.38-.9-1.11-.33-2.2-.68-3.22-1.04-1.02-.36-1.99-.74-2.86-1.12-.87-.38-1.63-.76-2.27-1.13-.84-.5-1.37-.93-1.59-1.28-.22-.36-.15-.64.22-.83.37-.19,1.02-.3,1.94-.3.92,0,2.11.1,3.54.31.35.05.71.11,1.07.17.36.06.73.13,1.1.21.37.07.75.15,1.13.23.38.08.76.17,1.14.26,1.17.28,2.36.6,3.51.94,1.15.34,2.27.7,3.32,1.09,1.05.38,2.02.76,2.88,1.15.87.39,1.62.78,2.23,1.15.8.49,1.27.92,1.44,1.26.17.34.03.61-.38.78ZM117.25,59.87c-.55.31-1.46.5-2.75.54-.64.03-1.34.01-2.09-.04-.75-.04-1.55-.13-2.39-.24-.84-.12-1.71-.26-2.6-.43-.89-.16-1.81-.36-2.74-.59-.93-.22-1.87-.46-2.8-.73-.94-.27-1.87-.55-2.79-.86-.92-.31-1.82-.63-2.69-.97-.88-.34-1.73-.69-2.53-1.06-1.61-.74-2.91-1.45-3.87-2.12-.97-.67-1.59-1.29-1.86-1.83-.27-.54-.18-.99.3-1.34.48-.34,1.34-.57,2.61-.64.64-.04,1.35-.03,2.11,0,.77.04,1.59.12,2.45.23.87.11,1.77.25,2.71.43.94.18,1.9.38,2.87.61.97.23,1.96.49,2.94.77.98.28,1.95.59,2.91.9.96.32,1.89.66,2.79,1.02.89.36,1.76.73,2.57,1.11,1.62.76,2.89,1.49,3.8,2.17.9.67,1.45,1.28,1.62,1.8.18.52,0,.95-.56,1.26ZM164.95,62.75c-.73.31-1.79.49-3.16.54-1.37.04-3.03-.05-4.96-.3-.47-.06-.95-.13-1.43-.2-.48-.08-.97-.16-1.45-.25-.49-.09-.97-.19-1.46-.29-.49-.11-.98-.22-1.46-.33-1.5-.36-2.99-.77-4.43-1.22-1.44-.45-2.82-.94-4.11-1.46-1.29-.52-2.48-1.06-3.53-1.61-1.05-.56-1.95-1.12-2.67-1.68-.95-.74-1.47-1.41-1.58-1.98-.13-.57.16-1.04.81-1.38.66-.35,1.68-.57,3.04-.64,1.37-.07,3.07,0,5.07.25.49.06.98.13,1.48.21.5.08,1.01.16,1.52.26.51.09,1.02.19,1.53.3.51.11,1.03.22,1.54.34,1.57.38,3.14.81,4.64,1.29,1.5.47,2.94.99,4.26,1.54,1.32.54,2.52,1.11,3.57,1.68,1.03.57,1.9,1.14,2.56,1.71.87.75,1.29,1.4,1.31,1.95.02.54-.36.98-1.09,1.29ZM227.78,72.84c-.19.56-.79.97-1.75,1.25-.95.28-2.23.43-3.76.44-1.52.01-3.29-.1-5.21-.35-1.91-.25-3.99-.63-6.14-1.14-2.16-.51-4.18-1.11-6.01-1.75-1.83-.64-3.47-1.33-4.84-2.03-1.37-.71-2.46-1.42-3.2-2.09-.74-.68-1.12-1.33-1.05-1.91.07-.58.59-1.03,1.46-1.35.88-.32,2.13-.5,3.66-.54,1.53-.04,3.35.06,5.34.31,2,.24,4.18.63,6.45,1.17,2.27.53,4.4,1.17,6.3,1.85,1.9.68,3.57,1.41,4.94,2.14,1.36.73,2.41,1.45,3.07,2.14.66.68.93,1.32.75,1.87ZM287.6,90.28c-.35.45-1.09.82-2.26,1.06-.88.18-1.94.28-3.11.31-1.18.03-2.48-.02-3.86-.14-1.38-.11-2.83-.29-4.32-.54-1.48-.24-2.99-.54-4.5-.9-.48-.12-.97-.23-1.45-.36-.48-.13-.96-.26-1.44-.4-.48-.14-.95-.28-1.41-.43-.47-.15-.93-.3-1.38-.46-1.84-.65-3.38-1.32-4.59-1.98-1.22-.66-2.1-1.31-2.63-1.92-.52-.61-.69-1.17-.44-1.65.25-.48.9-.88,2-1.16.83-.21,1.86-.34,3.03-.38,1.18-.05,2.5-.01,3.92.1,1.42.1,2.93.29,4.49.54,1.56.25,3.15.56,4.73.94.51.12,1.02.25,1.53.38.51.13,1.01.27,1.51.42.5.15.99.3,1.48.46.48.16.96.32,1.43.49,1.9.68,3.47,1.38,4.67,2.07,1.2.68,2.03,1.34,2.47,1.95.44.6.5,1.15.15,1.61ZM300.9,102.11c.38-.39,1.13-.69,2.22-.89,1.1-.19,2.56-.28,4.34-.23.89.03,1.83.08,2.79.17.96.09,1.95.2,2.95.34.99.14,2,.31,3,.5,1,.19,2,.4,2.97.64.97.23,1.92.48,2.84.74.92.27,1.8.54,2.62.84.83.29,1.6.59,2.31.9.71.31,1.35.63,1.91.95,1.11.64,1.8,1.23,2.09,1.76.28.52.18.98-.29,1.35-.47.37-1.3.64-2.45.81-1.15.17-2.62.23-4.39.16-.88-.04-1.8-.1-2.73-.19-.93-.09-1.88-.21-2.84-.35-.96-.14-1.92-.3-2.88-.48-.96-.18-1.9-.39-2.83-.61-.93-.22-1.84-.45-2.72-.71-.88-.25-1.72-.52-2.52-.79-.8-.28-1.56-.57-2.26-.87-.7-.3-1.34-.6-1.91-.92-1.14-.62-1.89-1.21-2.25-1.73-.37-.53-.36-1,.02-1.39ZM324.45,140.3c-.35.22-1,.37-1.97.43-.73.05-1.58.05-2.52,0-.94-.05-1.97-.14-3.05-.28-1.08-.14-2.21-.31-3.35-.52-1.14-.21-2.3-.45-3.43-.72-.37-.09-.74-.18-1.1-.27-.36-.09-.72-.19-1.08-.29-.35-.1-.7-.2-1.05-.31-.34-.1-.68-.21-1.01-.32-1.35-.44-2.46-.88-3.3-1.29-.84-.41-1.42-.8-1.72-1.14-.3-.34-.31-.64-.02-.88.29-.23.9-.4,1.82-.48.71-.06,1.55-.07,2.49-.03.94.04,1.99.14,3.09.27,1.1.13,2.27.31,3.45.53,1.18.21,2.38.46,3.57.74.38.09.76.18,1.14.28.37.1.75.19,1.12.3.37.1.73.21,1.08.32.35.11.7.21,1.04.33,1.38.46,2.5.91,3.33,1.33.83.42,1.37.81,1.62,1.15.25.34.21.63-.15.85ZM345.91,135.63c-.47.26-1.28.43-2.32.5-1.04.07-2.32.06-3.75-.05-1.43-.1-3.01-.28-4.66-.55-1.65-.26-3.38-.59-5.1-1-1.72-.41-3.28-.85-4.62-1.3-1.34-.45-2.47-.92-3.34-1.36-.87-.45-1.48-.88-1.77-1.26-.29-.39-.27-.74.14-1.02.4-.28,1.15-.46,2.15-.56,1.01-.09,2.28-.09,3.72,0,1.45.09,3.08.27,4.79.53,1.71.27,3.51.62,5.3,1.04,1.79.42,3.41.89,4.79,1.36,1.38.47,2.52.95,3.37,1.41.85.45,1.42.89,1.65,1.27.23.39.13.73-.35.99ZM349.73,125.1c-.51.3-1.35.5-2.47.61-1.11.11-2.48.13-4.06.04-1.57-.09-3.34-.27-5.25-.56-.46-.07-.94-.15-1.39-.23-.47-.08-.92-.17-1.38-.26-.45-.09-.9-.18-1.35-.28-.44-.1-.88-.19-1.31-.29-1.33-.32-2.59-.66-3.74-1.02-1.16-.36-2.22-.74-3.15-1.12-.93-.39-1.72-.78-2.34-1.16-.62-.39-1.07-.77-1.31-1.12-.32-.48-.23-.88.2-1.19.43-.32,1.22-.54,2.28-.68,1.08-.13,2.44-.16,4.03-.09,1.59.07,3.42.25,5.4.55.48.07.97.15,1.45.23.48.08.96.17,1.43.26.47.09.94.19,1.4.29.46.1.92.2,1.37.31,1.38.33,2.7.69,3.89,1.07,1.2.38,2.29.77,3.23,1.17.93.4,1.72.8,2.31,1.2.59.39,1,.77,1.18,1.13.25.47.07.86-.44,1.15Z"/>
            <polygon class="cls-1" points="290.32 56.68 290.31 56.67 290.31 56.68 290.32 56.68"/>
            <path class="cls-1" d="M290.31,56.68s0,0,0,0c-.03-.01-2.32-.79-6.26-2.23-1.98-.73-4.38-1.62-7.14-2.63-2.73-1.09-5.95-1.93-9.37-3.08-3.44-1.1-7.16-2.3-11.1-3.56-3.98-1.1-8.17-2.26-12.51-3.45-2.17-.59-4.35-1.27-6.61-1.82-2.27-.53-4.57-1.07-6.88-1.61-4.61-1.08-9.37-2.27-13.98-3.3-4.72-.94-9.44-1.88-14.08-2.81-2.32-.47-4.62-.93-6.9-1.39-2.29-.37-4.55-.73-6.78-1.09-4.45-.74-8.76-1.45-12.84-2.12-4.1-.51-7.98-.99-11.55-1.44-3.59-.43-6.86-.98-9.81-1.17-2.93-.26-5.49-.48-7.6-.67-4.21-.39-6.62-.66-6.62-.66,0,0,2.42-.06,6.65-.08,2.12,0,4.68,0,7.63,0,2.95-.08,6.27.17,9.9.4,3.63.25,7.57.51,11.74.8,4.14.49,8.5,1.02,13.01,1.63,2.25.3,4.55.6,6.87.91,2.31.36,4.63.82,6.98,1.26,4.69.89,9.45,1.8,14.22,2.7,4.8,1.1,9.41,2.31,14.05,3.44,2.31.58,4.59,1.16,6.85,1.74,2.25.62,4.46,1.37,6.64,2.03,4.34,1.38,8.54,2.72,12.52,3.99,3.93,1.41,7.58,2.9,10.97,4.21,3.38,1.35,6.51,2.47,9.15,3.82,2.67,1.26,5,2.36,6.91,3.27,3.79,1.81,5.94,2.89,5.97,2.91-7.04-23.34-32.32-44.6-65.86-52.53-34.81-8.23-68.1.36-84.24,19.53-59.83-.95-92.34,16.36-95.72,30.46.03-.1.12-.39.29-.91.13-.65.62-1.5,1.31-2.62,1.5-2.12,4.67-4.48,9.17-6.21,9-3.56,22.76-5.51,39.14-5.75,8.2-.14,17.08.08,26.45.72,9.36.62,19.22,1.55,29.36,2.9,10.14,1.35,20.6,2.92,31.15,4.92,10.56,1.98,21.21,4.22,31.87,6.7,10.54,2.52,21.17,5.32,31.46,8.27,10.33,2.93,20.38,6.22,30.05,9.55,9.67,3.33,18.9,6.91,27.55,10.56,8.66,3.62,16.7,7.4,23.97,11.2,14.54,7.55,25.97,15.46,32.41,22.67,3.25,3.57,5.03,7.1,5.42,9.67.12,1.29.18,2.27,0,2.93-.11.65-.16.99-.16.99,3.4-14.37-16.54-47.06-73.61-73.03Z"/>
          </g>
          <path class="cls-3" d="M242.66,109.32l-.08-.02c.06-4.48-16.37-11.69-37.48-16.35-21.11-4.67-39.04-5.04-40.87-.95l-.08-.02-83.08,110.63,190.36,42.03-28.76-135.32Z"/>
        </g>
        <g>
          <g>
            <path class="cls-1" d="M11.68,200.48l-3.59.41s-.27.14-.83.34c-.64.31-1.2.5-1.68.58-.48.08-.8-.06-.87-.45l-.05-.29-.21-1.25c-.24-1.44-.74-2.64-1.48-3.5-.83-.85-1.32-1.96-1.53-3.2-.05-.29.16-.82.72-1.6.58-.69,1.01-1.06,1.29-1.11l3.7-.33c.1-.02,1.04-.27,2.62-.84,1.58-.56,3.09-1.01,4.53-1.26l7.1-1.2c1.25-.21,2.3-.39,3.35-.66.94-.26,1.81-.4,2.58-.53,4.22-.71,6.05.16,6.91,5.25.05.29.03.79.02,1.28-.11.51-.21,1.12-.4,1.75l.43,1.41c.05.29-.48,1.26-.77,1.31,0,0-1.31-.17-1.79-.09l-.96.16c-1.25.21-2.38.5-3.23.74-.93.35-1.29,1.11-1.08,2.35l.2,2.93c.05,2.07.26,4.5.43,7.23.17,2.74.33,5.48.59,8.2.16,2.74.39,4.67.6,5.92l.95,5.67c.37,2.21.86,4.5,1.32,6.69.47,2.19.94,4.38,1.56,6.35.53,1.99,1.21,3.65,1.9,4.82l-.11-.08.03.19.05.29c.15.86-.01,2.27-1.27,3.57-.59.59-1.71.98-3.15,1.22-.38.07-.9-.05-1.44-.35-.54-.3-1.15-.4-1.84-.38l-1.1-.7-1.55-.43-1.08-1.1c-.72-.76-1.19-1.18-1.48-1.13l-.1.02h-.1c-.19.05-.34-.22-.42-.7-.08-.48.03-.99.27-1.33.24-.34.29-1.23.04-2.67-.52-3.07-.97-6.35-1.46-9.83-.47-3.38-.89-7.06-1.33-10.83-.42-3.09-.67-5.71-.93-7.84-.26-2.13-.52-3.67-.6-4.74-.7-4.72-.91-7.16-.67-7.49.04-.89.01-1.68-.13-2.55-.08-.48-.42-.72-1.01-.72l-2.98.5Z"/>
            <path class="cls-1" d="M120.33,173.51l-2.94.59s-.22.14-.66.33c-.51.3-.96.5-1.35.6-.39.1-.67,0-.75-.31l-.06-.23-.26-1.02c-.3-1.17-.8-2.13-1.47-2.8-.75-.64-1.22-1.52-1.49-2.54-.06-.23.07-.68.48-1.38.43-.61.76-.94.99-1l3.03-.53c.08-.02.84-.3,2.11-.88,1.27-.58,2.48-1.06,3.66-1.36l5.79-1.48c1.02-.26,1.88-.48,2.72-.78.76-.28,1.47-.46,2.09-.62,3.45-.88,5.02-.28,6.08,3.86.06.24.08.65.1,1.06-.06.43-.09.94-.21,1.47l.46,1.13c.06.23-.31,1.08-.54,1.14,0,0-1.1-.05-1.49.05l-.78.2c-1.02.26-1.94.58-2.62.84-.74.36-1,1.01-.73,2.02l.37,2.41c.19,1.71.53,3.7.86,5.95.33,2.25.66,4.5,1.06,6.74.33,2.25.65,3.84.91,4.86l1.18,4.62c.46,1.8,1.02,3.66,1.56,5.44.54,1.78,1.08,3.56,1.73,5.14.58,1.61,1.25,2.93,1.9,3.85l-.1-.06.04.16.06.23c.18.71.15,1.88-.81,3.04-.45.53-1.35.93-2.52,1.23-.31.08-.75.02-1.22-.19-.47-.22-.98-.25-1.55-.19l-.96-.5-1.31-.25-.97-.84c-.65-.58-1.06-.89-1.3-.83l-.08.02-.08.02c-.16.04-.29-.17-.39-.56-.1-.39-.04-.82.13-1.12.17-.3.15-1.04-.15-2.21-.64-2.5-1.25-5.19-1.89-8.02-.63-2.76-1.23-5.78-1.86-8.87-.56-2.52-.95-4.68-1.31-6.42-.36-1.75-.68-3-.83-3.88-.91-3.86-1.25-5.86-1.08-6.15-.02-.75-.11-1.39-.29-2.09-.1-.39-.39-.57-.88-.53l-2.43.62Z"/>
            <path class="cls-1" d="M50.48,204.09c-.41.25-.81.57-1.38.81-.57.33-1.06.65-1.63.89-.57.24-.98.41-1.3.41-.08,0-.41-.16-.89-.57-.49-.41-.98-.89-1.54-1.46-.49-.57-.98-1.3-1.38-2.03-.41-.73-.65-1.46-.65-2.2,0-.49.89-1.22,2.68-2.2,1.87-.89,4.06-1.87,6.66-2.84,2.52-.89,5.2-1.71,7.89-2.44,2.68-.73,4.96-1.06,6.75-1.06,2.44,0,4.63.49,6.5,1.54,1.87,1.06,3.17,2.52,4.07,4.39.57,1.38.41,1.06,1.62,2.28.32.32.65.81,1.06,1.54.89,2.2,1.71,5.45,1.71,6.91,0,1.22-.24,2.68-.81,4.39-.57,1.71-1.22,3.25-2.03,4.63-.57,1.06-1.46,2.11-2.6,3.25-1.22,1.22-2.52,2.27-3.9,3.25-1.38,1.06-2.84,1.87-4.31,2.52-1.55.65-2.93.97-4.23.97-.16,0-.41-.08-.81-.24-.41-.08-.81-.25-1.22-.49-.73-.32-1.54-.73-1.54-.73-.16,0-.33.16-.49.49-.08.24-.16.4-.16.65v.33l.16,3.9v7.16c0,.97.08,1.71.16,2.28.08.57.16.97.41,1.38.16.41.41.81.73,1.3.08.08.16.33.16.57,0,.73-.41,1.55-1.22,2.36-.81.81-1.63,1.22-2.36,1.22s-1.38-.16-1.95-.49c-.65-.41-1.14-.89-1.46-1.46-.16-.33-.49-.65-.89-.9-.41-.24-.89-.49-1.3-.73-.49-.24-.9-.49-1.22-.81-.41-.24-.57-.57-.57-.97,0-.08.16-.24.49-.49.24-.24.41-.41.41-.65,0-.41,0-.81-.08-1.22-.08-.41-.08-.81-.08-1.14v-2.6c0-.98.08-2.03.16-3.17.25-2.84.41-5.61.49-8.45.08-2.6.24-5.36.33-8.21.08-2.84.24-5.85.49-9.02.08-.33.08-.65.16-.98v-.98c0-.9-.24-1.3-.65-1.3,0,.08-.16.16-.41.4ZM60.8,203.04c-.08-.08-.08-.16-.16-.16s-.25.57-.41,1.62c-.24,1.46-.41,3.17-.57,5.12-.24,2.03-.41,3.9-.49,5.61-.08,1.71-.16,2.68-.16,2.76,0,.98.32,1.46,1.06,1.46.89,0,2.03-.41,3.41-1.22,1.38-.73,2.76-1.71,4.14-2.93,2.03-1.87,3.58-3.66,4.47-5.53.89-1.79,1.38-3.74,1.38-5.93,0-1.79-.57-3.09-1.63-3.98-1.14-.81-2.44-1.22-3.82-1.22-1.46,0-4.47.89-9.1,2.6.97.41,1.87,1.38,1.87,1.79Z"/>
            <path class="cls-1" d="M101.18,195.32c-.49,1.51-.92,3.04-1.25,4.41-.4,1.36-.69,2.57-.93,3.46-.19.64-.25.96-.25.96l.05-.24c-.12.65.16,1.04.9,1.18,1.15.22,4.44.33,7.42.55,1.03.11,1.93.2,2.68.34.88.17,1.17.89.91,2.28-.02.08-.16.48-.5,1.17-.34.69-.6,1.32-.68,1.73-.17.9.12,2.73-.11,3.95-.15.81-.57,1.16-1.25,1.03-.07-.01-.44-.25-1.06-.71-.63-.37-1.28-.66-2.03-.8-.82-.15-1.73-.16-2.82.06-.88.17-1.66.19-2.4.05l-.54-.1-2.01-.55c-.34-.06-1.12,1.48-1.38,2.87l-.78,4.5-.61,3.26c-.27,1.05-.44,1.94-.57,2.68.19.12.6.19,1.14.3l2.11.4c2.38.44,3.71,1.2,4.32,1.32.47.09,1.24.15,2.16.07.91,0,1.88.1,2.9.29.41.08.65.29.64.71.02.26-.04.58-.1.91l-.11.57c-.3,1.21-.86,2.71-1.12,4.09-.02.08.07.35.2.8.13.45.12.87.07,1.11-.07.41-.26.63-.58.82-.38.18-.76.28-1.16.21-.34-.07-.61-.12-.86-.25l-.88-.17c-.07-.01-.63-.03-1.62.03-.98-.02-1.81-.09-2.42-.2-.34-.07-.94-.26-1.87-.52-1-.27-1.99-.62-2.98-.98-1.06-.37-1.97-.71-2.76-1.02-.87-.25-1.33-.42-1.4-.43-1.54-.37-2.47-.72-2.93-.89-.46-.17-.83-.41-.99-.69-.39-.58-.37-1.76-.05-3.47.26-1.38.58-3.1,1.06-5.29.48-2.19,1.04-4.79,1.67-7.79l1.62-7.12.98-3.7.86-4.23,1.25-5.17c.27-1.05.44-1.94.59-2.76.15-.82.29-1.55.34-2.21.1-.91.12-1.41.17-1.66v-.08c-.08-.27-.32-.48-.66-.55l-.88-.17c-.42,0-.83-.07-1.17-.14-.61-.11-.92-.34-.86-.67.08-.41.93-1.18.94-1.26.08-.41-.02-1.02-.29-1.83-.22-.72-.31-1.33-.21-1.89l.03-.17.36-1.54c.23-.88.43-1.52.54-1.76.12-.23.35-.36.82-.27.61.12,1.21.31,1.77.67.5.35,1.09.54,1.84.68,1.83.34,5.07.7,7.85.88,2.78.18,5.13.37,5.33.41.27.05,1.8.51,2.68.67,2.31.43,3.55.92,3.79,1.55,0,.42-.06,1.09-.2,1.82-.05.25-.02,1.6-.1,2.01-.05.25-.16.48-.29.79-.13.31-.29.45-.38.52,0,0,.1.19.23.64.18.54.24.97.18,1.3-.08.41-.2.72-.31.87-.11.23-.44.51-.93.84l-.8.53c-.5-.69-.85-1.09-1.04-1.21-.19-.12-.65-.29-1.33-.42-.2-.04-2.07-.56-3.5-.83-.48-.09-1.25-.06-2.27.08-1.08.13-2.06.12-3.08-.07-.36.78-.71,1.89-1.14,3.42Z"/>
            <path class="cls-1" d="M151.98,163.53c-1.47.06-2.95-.41-4.44-1.44-1.26-.78-2.13-2.08-2.66-3.79-.11-.36-.24-.78-.31-1.24l-.24-1.02c-.32-1.54-.27-3.13.19-4.68.39-1.53,1.4-2.79,3.08-3.7.67-.37,1.29-.64,1.86-.81.5-.15.95-.22,1.33-.26.85-.03,1.66.03,2.36.29.71.25,1.36.59,2.04,1.01.7.49,1.38.91,2.13,1.3l-.95-2.05c-.21-1.42.07-2.53.85-3.32.75-.86,1.38-1.37,1.8-1.5l.79-.24.74-.39.29-.09c.86-.26,1.71-.3,2.53-.16.75.16,1.31.69,1.56,1.48l.09.29.15.74c-.27.63-.45,1.31-.52,2.12-.2,1.63.22,4.24,1.11,8.11.39,2,1.02,4.54,1.79,7.51l.88,3.33c.17.81.21,1.42.29,1.94.08.52.19,1.12.39,1.76.08,1-.57,2.45-1.37,3.64-.85,1.28-1.73,2.26-1.73,2.26l-.14.04c-.36.11-.83.1-1.58-.06-.9-.11-1.29-.15-1.32-.22-.33-1.07-.41-1.83-.19-2.37.18-.45.14-1.06,0-1.8l-.98-3.92c-.39-1.52-.61-2.71-.66-3.4l-.09-.29c-.15-.5-.51-.62-1.1-.52l-.5.16c-.09-.05-.24,0-.31.02-.29.09-.43.37-.42.91-.02.71-.04,1.65-.01,2.74.05,1.16.02,2.34-.12,3.64-.12,1.37-.53,2.59-1.21,3.66-.8,1.19-1.34,1.98-1.75,2.42-.41.44-.92.83-1.54,1.11-.33.18-.77.31-1.19.44-.93.29-1.99.39-3.1.34-1.58-.06-3.13-.75-4.67-1.92-1.12-.83-.98-.64-1.07-.92l-.11-.36c-.18-.33-.27-.62-.29-.93l-.22-.71c-.13-.43-.22-.71-.21-.95-.1-.83-.02-1.32.24-1.48l.14-.04c.15-.04.26.08.33.29l.04.14c.09.28.39.5.84.68l1.36.59c1.12.59,1.78.94,1.99,1.11.09.05.26.08.47,0,.21-.07.55-.25.88-.43,1.29-.63,2.02-1.8,2.29-3.45.22-1.56.33-3.47.21-5.63ZM151.94,151.32c-.68.6-.9,1.38-.64,2.47l.18.57c.26.86.75,1.65,1.37,2.4.83.91,1.76,1.64,2.94,2.14.84.44,1.72.49,2.57.22.22-.07.36-.11.55-.25.45-.3.61-.82.36-1.6l-.13-.43c-.93-1.98-2.78-4.15-4.81-5.4-.77-.46-1.36-.59-1.86-.44-.21.07-.33.18-.53.32Z"/>
          </g>
          <g>
            <path class="cls-1" d="M323.93,249.28l-.13-.17s-.04-.06-.06-.08c-.03-.55,0-1.16.03-1.75.02-.52.04-1.01.03-1.54l-.04-.49c-.03-.35-.07-.75-.18-1.01-.25-.82-.94-1.31-1.86-1.31-.04,0-.21,0-.25.01-1.11.1-2.15.26-3.18.52-.95.31-1.61.39-1.94.41-.17,0-.39-.01-.66-.03-.85-.06-2.12-.14-3.82.01l-2.09.18c-.02-.34-.04-.72-.04-1.13l-.65-6.61c-.04-.48.02-.97.1-1.32l1.49-.03.55-.05c.89-.08,1.78-.32,2.72-.72.83-.36,1.59-.57,2.35-.63.58-.05,1.17,0,1.72.11,1.22.37,1.42.37,1.69.36,1.38-.12,2.2-1.09,2.08-2.48-.07-.72-.34-1.49-.58-2.16-.13-.37-.31-.87-.33-1.06,0-.01-.02-.29.18-1.16.11-.48.24-1.11.22-1.47-.22-2.49-1.85-2.76-2.54-2.76-.04,0-.25,0-.28.01-.69.06-1.48.18-2.38.33l-.44.07c-1.06.2-2.16.41-3.19.61-1.61.32-3.14.62-3.91.71,0-.04,0-.07,0-.11v-.79c0-.64,0-1.38.01-2.27-.03-1.19,0-2.49.08-3.81.01-.82.04-1.45.08-1.95.78-.13,1.55-.34,2.37-.64,1.17-.45,1.72-.52,1.86-.54,1.03-.09,2.32-.13,3.03-.16.32,0,.53-.02.6-.02.47-.04.91-.02.96-.02.02,0,.25.1.99.57.48.31,1.12.25,1.53-.14l.66-.64c.53-.52.91-.98.98-1.34.14-.36.19-.84.15-1.34-.05-.52-.29-1.05-.7-1.57.02-.08.04-.17.05-.26.04-.25.09-.53.06-.85-.02-.24-.16-.78-.3-1.24-.06-.2-.12-.38-.13-.41-.07-.86-.25-1.52-.32-1.76-.05-.17-.13-.32-.25-.46-.73-.85-2.11-1.04-5.15-.77-.56.05-1.4.07-2,.08-.38,0-.68.02-.79.03-.36.03-3.39.59-5.44.97-2.81.53-6,1.01-7.77,1.17-.62.05-1.11.05-1.58-.08-.73-.17-1.51-.21-2.3-.14-1.38.12-1.74.99-1.83,1.37-.06.26-.1.67-.11,1.88l.05,1.33s.01.18.02.2c.08.88.54,1.6.96,2.15.17.21.29.38.36.5-.3.5-.51.97-.47,1.48.07.74.68,1.61,2.35,1.46.38-.03.82-.08,1.27-.18l.41-.04c.04.19.08.42.14.72.11.51.16,1.08.21,1.72.06.67.12,1.4.13,2.3l.12,4.53.24,3.54v3.28s.27,6.17.27,6.17c.16,2.58.28,4.8.38,6.69.1,1.91.23,3.38.33,4.58.17,1.95.62,3.09,1.38,3.63.42.36,1.06.57,1.88.61.51.03,1.34.08,3.32.01.18,0,.47.01.87.01h.34c.86.06,1.86.12,3,.16.89.04,1.78.08,2.66.08h1.53c.5-.02.85-.02,1.09-.04.69-.06,1.59-.22,2.67-.47.78-.24,1.26-.36,1.32-.37l.77-.07c.32.03.64.01,1.04-.02.78-.07,1.34-.42,1.8-.76.58-.51.82-1.12.75-1.82-.04-.5-.25-1.05-.59-1.51Z"/>
            <path class="cls-1" d="M349.4,202.35c-.67,0-1.43,0-2.25.08-.84.08-1.64.06-2.66.07h-5.86c-1.13,0-2.41.13-4.01.42-1.17.21-1.9.29-1.9.3l-3.1-.24c-.58,0-1.16.29-2.07,1.08-.8.8-1.15,1.44-1.15,2.06,0,1.35.34,2.52.97,3.41.35.59.54,1.41.54,2.37v1.27c0,.83.59,1.71,1.87,1.71.52,0,1.09-.09,1.63-.25.28-.05.5-.09.65-.13l2.79.15h1.91c-.02.33-.07.66-.14,1.03-.26.54-.46,1.85-.55,6.48-.05.53-.07,1.21-.09,2.04-.02.55-.04,1.18-.07,1.89-.03.61-.06,1.26-.1,1.97-.07,1.32-.16,2.81-.21,4.44l-.03.54c-.15,2.91-.29,5.73-.37,8.35l-.02.65c-.07,2.62-.14,5.11-.14,7.46,0,.92-.1,1.29-.06,1.29h0c-.46.47-.73,1.17-.73,1.88,0,1.33.7,1.71,1.2,1.83.08.1.22.29.44.62l.71,1.03c.13.18.3.33.5.42l1.02.48.65.59c.18.16.41.27.65.31.38.05.64.15.83.29.61.49,1.26.75,1.88.75,1.58,0,2.66-.25,3.43-.79,1.22-.9,1.97-2.22,2.01-3.57.1-.28.11-.59,0-.88-.37-.96-.65-2.31-.8-3.85-.23-1.58-.31-3.38-.39-5.18-.08-1.8-.15-3.68-.15-5.49v-4.67c0-.83.05-2.31.31-4.74.15-2.15.38-4.3.63-6.61l.22-2.19c.13-1.33.25-2.55.41-3.68l.25-2.5c0-.38.08-.49.08-.51.9-.1,1.76-.15,2.55-.15h.77c.15,0,.66.13,1.08.26,1.12.34,2.4-1.21,2.39-2.3l-.11-.83c.12-.26.21-.51.3-.75l.13-.32c.03-.07.05-.14.06-.21.11-.53.18-.93.18-1.27,0-4.66-1.65-6.39-6.07-6.39Z"/>
            <path class="cls-1" d="M211.31,116.13c-.02-.08-.04-.21-.07-.4-.01-.08-.03-.15-.06-.23-.27-.74-.7-1.64-1.56-1.98-.3-.12-.87-.35-1.74-.75l-.46-.34c-.38-.28-.48-.36-.66-.42l-.22-.09c-.27-.11-.56-.18-.86-.22-.49-.33-1.24-.68-2.49-1.18-.33-.13-.66-.26-1.06-.48-.51-.27-.86-.41-1.03-.48-.03-.01-.18-.06-.21-.07-.18-.05-.57-.16-1.14-.35-.63-.2-1.36-.41-2.17-.65l-.77-.22c-1.07-.31-2.2-.64-3.31-1.02l-.57-.19c-.86-.3-1.61-.55-2.16-.78-.49-.19-.8-.37-1.05-.59-.47-.4-1.02-.73-1.68-.98-.79-.32-1.57-.16-2.05.41-.15.18-.33.47-.8,1.37l-.52,1.14c-.22.55-.28,1.11-.17,1.72,0,.34-.03.46-.1.55l-.26.39c-.14.21-.27.41-.37.65-.22.56-.1,1.16.32,1.61.22.24.52.43.93.59.29.12.64.25,1.01.34l.1.04-.11.38c-.1.4-.28.82-.47,1.3-.2.5-.42,1.05-.73,1.69l-1.58,3.34-1.11,2.64-1.2,2.38-2.07,4.57c-.83,1.92-1.56,3.58-2.17,4.98-.63,1.41-1.07,2.52-1.44,3.44-.62,1.55-.71,2.6-.32,3.31.23.54.67.91,1.08,1.2.27.21.83.57,2.55,1.26l1.37.55c.43.17.81.25,1.19.25.15,0,.3-.01.35-.02.72-.06,1.34-.41,1.95-1.14.25-.34.42-.65.54-.96.18-.45.34-1.03.45-1.6l.1-.47c.05-.26.11-.57.25-1.05.21-1.11.53-2.34.89-3.41l.1-.35c.12-.4.22-.74.33-1.03l1.54-4c.53-1.32,1.05-2.49,1.57-3.48.64-1.29,1.2-2.53,1.7-3.77.46-1.16,1.66-3.7,2.92-5.66.16-.27.33-.57.51-.85.58.17,1.18.29,1.84.37.98.1,1.38.24,1.48.28.54.22,1.09.43,1.62.7.57.29.96.45,1.06.49-.21.44-.45.86-.72,1.28-.26.49-.47,1-.7,1.58l-.29.74c-.29.72-.61,1.39-.99,2.05l-1.33,2.39-1.25,3.15-1.1,2.12-1.29,3.08c-.39.8-.65,1.46-.85,1.95l-.47,1.17c-.33.84-.55,1.39-.66,1.85-.08.34-.23.7-.33.95l-.42.63c-.06.08-.2.32-.24.41l-.2.49s-.07.07-.11.1c-.33.3-.67.62-.83,1.03-.57,1.43.95,3.88,1.47,4.66l.4.53c.07.1.16.18.25.25.07.05.22.18.4.38.31.41.68.72,1.04.85.12.05.25.07.38.08l2.2.16s.08,0,.13,0c.17,0,.33-.03.49-.1l.39-.17c1-.37,1.64-.71,1.89-1.34.03-.07.05-.14.07-.22l.19-.97c.28-1.26.48-2.21.7-2.92l.07-.3c.08-.37.12-.59.1-.53l.54-1.19c.05-.1.08-.21.09-.32l.09-.58.45-.99s.07-.24.08-.28c.05-.18.14-.49.3-1.04.19-.82.33-1.25.41-1.46.24-.61.58-1.32.94-2.09l.11-.23c.43-.91.62-1.4.7-1.58.37-.78.75-1.59,1.26-2.42.45-.81.82-1.57,1.16-2.41l.79-2.13c.08-.2.26-.65.61-1.37l1.17-2.47c.4-.84.82-1.62,1.23-2.34.42-.76.54-.89.52-.88.07-.05.14-.1.21-.16.78-.74,1.09-1.06,1.28-1.53l.66-1.8c.12-.31.15-.55.02-.86Z"/>
            <path class="cls-1" d="M227.85,139.41c-.19-.62-.38-1.23-.68-1.92-.32-.72-.61-1.32-.97-1.86-.3-.51-.66-.88-1.13-1.19-.2-.13-.46-.29-.83-.36l-1.37-.38-.63-.1c-.13-.02-.27-.02-.4,0l-1.96.34c-.93.21-1.57.4-1.88.57-.53.2-.95.54-1.25,1.01-.15.23-.24.47-.27.7l-.34,1.11-.85,1.33c-.76,1.2-2,2.62-3.9,4.48-1.87,1.84-3.85,3.61-5.87,5.27-1.99,1.63-3.95,3.18-5.99,4.72-1.88,1.42-3.33,2.39-4.19,2.94-1.29.77-2.44,1.27-3.49,1.5-.98.25-2.06.32-2.84.23-1.09-.14-1.82-.35-2.5-.72-.47-.23-.95-.47-1.4-.75-.27-.17-.54-.34-.78-.55-.34-.31-.83-.41-1.27-.24-.59.22-1.02.53-1.28.93-.1.16-.29.46-.34.99-.01.48.04,1,.16,1.54.11.49.25.93.36,1.24,0,.03.01.06.02.09-.3.07-.61.17-.8.33-.16.1-.59.35-.78.88-.07.13-.14.3-.18.52-.15.58,0,1.23.29,2.04.26.79.89,1.52,1.87,2.15l.44.28c.79.51,1.6.91,2.38,1.18,1.05.41,2.08.72,3.05.92,1.27.17,2.2,0,2.83-.43,1.88-1.16,3.9-2.54,6.38-4.36,3.32-2.54,6.97-5.66,10.67-9.09-.72,1.23-1.42,2.45-2.01,3.58-.83,1.43-1.4,2.58-1.75,3.49-.68,1.76-1.26,3.63-1.72,5.56-.87,3.9-.79,7,.18,9.16.45,1.2,1.17,2.06,2.04,2.51l.44.28c.05.04.11.07.17.09.81.36,1.87.54,3.06.54.78,0,1.57-.08,2.33-.23,1.03-.17,1.78-.35,2.61-.65.74-.36,1.27-.68,1.61-1.21.03-.04.12-.2.14-.24l.9-1.89c.21-.43.14-.94-.16-1.32-.36-.44-.42-.62-.44-.65,0-.06,0-.34.24-1.31.05-.19.05-.38,0-.57-.14-.64-.5-.98-.86-1.19-.08-.09-.16-.24-.27-.42-.25-.41-.71-.65-1.19-.6l-1.98.2c0-.25.04-.65.21-1.27.41-1.63,1.05-3.41,1.9-5.29,1.01-2.24,2.02-4.26,3.13-6.2.99-1.86,2.03-3.66,3.11-5.35.28-.44.88-1.26,1.8-2.47.84-1.2,1.74-2.37,2.7-3.51.91-1.17,1.73-2.24,2.42-3.08.32-.38.54-.65.69-.8.15-.1.29-.23.39-.38.16-.25.23-.55.19-.85,0-.31-.06-.7-.19-1.29Z"/>
            <path class="cls-1" d="M249.4,216.48c0-.19-.05-.38-.14-.55l-.43-.82c-.03-.18-.03-.28-.03-.32,0-.69-.55-1.24-1.24-1.24-.04,0-.11,0-.28-.02,0,0-.29-.21-.67-1.28-.51-1.21-.92-2.46-1.26-3.9-.37-1.21-.62-2.44-.85-3.63l-.07-.37c-.25-1.19-.32-1.91-.34-1.96.03-.07.23-.35.73-.72,1.08-.79,1.64-1.57,1.64-2.31,0-.19,0-.63-.75-2.06-.47-.88-.75-1.32-.75-1.32-.28-.43-.79-.65-1.3-.55l-.15.03c-.04-.19-.07-.46-.1-.86-.07-1.21-.21-2.54-.36-3.93l-.34-3.41c-.08-.84-.08-1.9-.08-2.92,0-4.47.45-7.8.77-10.23.11-.79.2-1.5.27-2.24v-.74c0-1.03-.19-1.89-.58-2.63-.03-.06-.07-.12-.11-.17-.62-.81-1.68-1.35-3.16-1.58-1.87-1.56-3.81-2.77-5.62-3.5-2.12-.86-3.55-1.24-4.64-1.24-.33,0-1.05.18-1.59.33-.54.22-.91.24-.9.25,0,0-.13-.04-.41-.26-.07-.05-.14-.09-.21-.13l-.47-.23c-.32-.16-.58-.29-.93-.29-1.89,0-3.23.79-3.96,2.3-.3.56-.6,1.14-.68,1.57-.1.28-.2.53-.28.74l-.08.24c-.4.77-.86,2.16-1.24,3.83-.44,1.91-.97,4.49-1.57,7.66-.08.41-.43,1.95-1.03,4.48-.61,2.54-1.3,5.4-2.08,8.43l-.75,2.87c-.52,1.99-1.01,3.87-1.42,5.57-.43,1.58-1.08,3.97-1.27,4.4-1.35,3.54-2.72,6.38-3.95,8.19-1.89,2.74-2.13,3.79-2.13,4.4,0,1.1.78,2.39,2.98,2.39.3,0,.65-.09,1.32-.27l.18-.05c.2.02.63.11,1.31.42,1.37.72,1.95.72,2.14.72.85,0,1.51-.22,1.98-.67.31-.29.77-.81,1.4-1.58,2.06-2.45,3.4-4.26,4.59-8.68.84-3.07,1.6-3.44,1.58-3.44.39,0,.93.08,1.49.15l.57.09c.66.11.84.11,1.73,0l.78-.09c.77-.08,1.55-.16,2.5-.24.87-.08,1.66-.17,2.45-.25.53-.06.88-.07,1.09-.07.17.24.44.93.75,2.87l.26,3.35v2.87c0,.77,0,1.25.13,1.61l-.03.16c0,.07-.02.13-.02.2,0,.79.58,1.42,1.52,2.22.98.93,1.71,1.32,2.42,1.32h.55c.94.35,3.17,1.07,4.22,1.07.85,0,1.81-.36,2.94-1.11.78-.51,1.32-.7,1.57-.7.23,0,.62-.05,1.44-.52.24-.15.88-.55.95-1.28,0-.13,0-.25-.02-.37ZM231.2,187.99c0,.43.01,1.02.1,1.76.04.29.06.59.08.88.02.36.05.71.08.85v1.8c0,.22-.04.29-.04.29,0,0-.13.11-.6.11l-3.85-.08c-.64,0-1.24.13-1.65.32-.15.05-.28.1-.41.14,0-.06,0-.13,0-.21,0-.21.07-.92.34-2.39.15-1.25.39-2.68.77-4.76l.33-1.73c.25-1.3.5-2.67.8-4.07.28-1.33.53-2.59.76-3.78l.37-1.9c.24-1.2.49-2.24.7-3.15l.25-1.07c.02-.08.04-.16.06-.23.28.1.55.17.79.24.23.07.44.12.63.2.2.15.34.29.44.4.08.12.15.33.15.98v1.21c-.09.67-.09,1.24-.09,1.75v1.48c0,.51.1,1.16.29,1.98.06.28.06.72.06,1.14,0,.36,0,.79-.08,1.4l-.35,5.74c0,.1.01.31.09.7Z"/>
            <path class="cls-1" d="M398.31,203.32c-.02-.06-.05-.12-.08-.18-.47-.92-1.41-1.61-2.79-2.06-1.55-1.84-3.22-3.34-4.84-4.34-1.91-1.18-3.23-1.77-4.27-1.93-.25-.04-.64-.03-1.62.11-.33.09-.59.1-.75.1-.05,0-.1,0-.11,0-.05-.04-.15-.11-.3-.28-.06-.06-.12-.12-.19-.17l-.41-.3c-.29-.22-.52-.4-.89-.45-1.94-.29-3.27.36-4.17,1.76-.39.54-.75,1.08-.89,1.48-.13.26-.26.5-.37.69l-.13.25c-.5.71-1.14,2.05-1.76,3.68-.7,1.85-1.6,4.38-2.66,7.51-.14.4-.71,1.91-1.67,4.38-.96,2.48-2.06,5.28-3.26,8.23l-1.16,2.81c-.79,1.93-1.55,3.76-2.19,5.41-.73,1.72-1.64,3.87-1.87,4.27-1.84,3.39-3.58,6.07-5.02,7.73-2.2,2.49-2.59,3.5-2.68,4.1-.17,1.1.4,2.5,2.53,2.82.3.04.89-.03,1.33-.09l.16-.02c.22.06.63.24,1.14.59,1.08.84,1.65,1,1.97,1.05.78.12,1.52,0,2.05-.4.33-.24.83-.69,1.58-1.4,2.34-2.18,3.89-3.82,5.69-8.1,1.24-2.93,2.02-3.24,1.99-3.25.37.05.86.21,1.37.36l.51.16c.34.11.59.18.8.22.18.03.48.04.9.05l.76.02c.75.03,1.5.06,2.43.11.71.03,1.37.06,2.01.08h.36c.47.03.8.06,1,.09.12.28.28,1.04.28,3.03l-.26,3.43-.43,2.9c-.12.79-.19,1.27-.11,1.66l-.11.35c-.12.76.33,1.48,1.11,2.41.81,1.09,1.45,1.6,2.16,1.71l.51.08c.88.5,2.87,1.53,3.89,1.68.14.02.29.03.44.03.74,0,1.58-.24,2.59-.74.86-.43,1.37-.48,1.54-.48.18.03.24.21,1.52-.32.39-.18.92-.5,1.08-1.12.03-.12.04-.24.04-.36.03-.19.01-.38-.05-.55l-.29-.9c0-.2.01-.32.02-.38.09-.67-.37-1.29-1.04-1.39-.04,0-.1-.02-.21-.04,0,0-.25-.27-.44-1.39-.31-1.3-.51-2.63-.62-4.14-.18-1.28-.22-2.56-.27-3.79v-.38c-.08-1.24-.03-1.99-.03-2.08.04-.07.26-.32.81-.63,1.15-.64,1.79-1.34,1.9-2.07.03-.18.09-.62-.41-2.14-.31-.95-.51-1.43-.51-1.43-.21-.49-.72-.81-1.24-.76h-.07c0-.19,0-.48.04-.89.12-1.3.19-2.74.26-4.26l.18-3.26c.05-.89.22-2,.37-2.97.68-4.52,1.61-7.82,2.29-10.24.22-.79.42-1.49.6-2.22l.11-.75c.16-1.03.11-1.91-.15-2.7ZM385.55,212.22c.02.3-.05.75-.12,1.18-.06.37-.12.81-.29,1.41l-1.2,5.75s-.04.2-.02.7c-.07.44-.14,1.03-.17,1.79,0,.3-.03.59-.06.88-.03.38-.06.74-.05.9l-.27,1.83c-.03.22-.09.32-.1.33,0,0-.28.06-.53.02l-3.67-.64c-.21-.03-.42-.05-.63-.05-.4,0-.79.06-1.03.14-.12.03-.22.05-.32.07,0-.07.02-.14.03-.22.03-.21.2-.93.68-2.38.34-1.23.77-2.65,1.46-4.71l.57-1.68c.43-1.29.89-2.64,1.38-4.03.47-1.29.89-2.51,1.29-3.67l.66-1.9c.43-1.21.83-2.26,1.17-3.16l.37-.97c.03-.07.05-.14.08-.21.23.12.45.22.65.32.2.1.39.18.55.28.16.18.28.34.36.47.05.13.1.37,0,1.05l-.17,1.23c-.19.63-.28,1.18-.36,1.74l-.22,1.5c-.08.51-.08,1.18-.03,2.02Z"/>
            <path class="cls-1" d="M293.39,197.31c-.21-.66-.65-1.22-1.33-1.7-.13-.09-.27-.16-.42-.19l-.33-.08c-.6-.14-1.33-.07-2.44.25-.07.01-1.09.2-4.06.06h-.45c-.62-.71-.98-.98-1.4-1.08-1.36-.31-2.89,1.72-3.22,3.09-.17.72-.03,1.37.48,2.03-.04.07-.09.15-.15.24-.36.52-.6,1.06-.77,1.76l-.58,3.21-.1.2c-.11.21-.19.43-.28.66-.05.13-.1.27-.09.28-.48.77-.81,1.7-.87,1.92-.25,1.05-.41,1.72-.44,2.25l-.15.64c-.06.13-.12.27-.18.42-.04.1-.07.2-.15.36l-.16.32c-.19.4-.46.96-.78,1.75-.45,1.11-.83,2.37-1.2,3.93,0,0-.37.4-2.19.4-1.04,0-2.1-.13-2.83-.24l-.72-.11c-.46-.07-.67-.12-.98-.09-.96-.05-1.59-.07-1.93-.07.11-.42.33-1.27.68-2.52.45-1.86,1.03-3.96,1.75-6.27.61-2.21,1.27-4.28,1.98-6.19.38-1.18.65-1.78.8-2.07.41,0,.72-.06,1.01-.24.54-.33.66-.82.74-1.16.22-.91.12-1.81-.33-2.7-.33-.54-.66-1.07-1.16-1.73-.28-.3-.57-.57-.84-.82l-.39-.37c-.07-.06-.14-.12-.22-.17-.36-.23-.6-.42-.74-.54l-.51-.42c-.5-.49-.89-.74-1.44-.86-2-.27-3.85.15-5.5,1.25-1.7,1.13-2.74,2.48-3.1,4.01-.19.78-.13,1.38.16,1.86.21.34.53.58.92.7-.08.23-.16.47-.26.74l-.11.33c-.39.84-.69,1.72-.88,2.54l-.39,1.63c-.1.42-.2.85-.22,1.29l-.16.68c-1.58,6.65-2.52,8.74-2.92,9.39l-1.06-.31c-.09-.02-.29-.05-.39-.05-.56,0-1.3.34-1.53,1.31-.25,1.04-.51,2.15-.91,3.48l-.08.33c-.36,1.52-.15,2.84.61,3.94.17.25.5.44.79.51.06.01.12.03.18.04-.02.05-.04.11-.07.18-.16.42-.4,1.06-.66,1.91l-1.19,3.95-.69,1.85c-.13.3-.24.66-.36,1.08-.08.28-.18.58-.29.92-.13.38-.29.76-.44,1.14-.16.41-.33.81-.47,1.23-.26.75-.58,1.4-.81,1.86-.35.56-.53.68-.52.68-.96.36-1.97.85-2.21,1.83-.26,1.1.22,2.12,1.24,2.7,0,0,.02.01.03.02-.05.16-.09.3-.11.4-.29,1.23.13,2.33,1.08,2.97.88.68,1.82,1.15,2.79,1.38,1,.24,2.08.13,3.06-.3,1.46-.62,2.75-1.69,3.99-3.34.4-.59.67-1.15.82-1.7.47-.91,1.31-3.39,2.93-8.36.62-1.91,1.21-3.67,1.8-5.39.29-1.03.49-1.67.63-2.08.27,0,.58,0,.86.02.82.12,1.65.17,2.55.23l1.09.1c1.43.15,3.06.32,3.48.41.12.03.2.06.26.08-.02.23-.07.66-.25,1.41l-.19.79c-.19.45-.3.9-.4,1.31l-.49,2.04c-1.86,7.84-1.78,10.28-1.56,11.46.33,1.57,1.01,2.94,2.07,4.15,1.04,1.28,2.24,2.09,3.57,2.4.18.04.37.06.57.06.26,0,.53-.04.87-.12.26-.06.56-.11.94-.17l2.7-.38c.14-.02.27-.06.4-.12l1.97-1.01c.72-.38,1.27-.65,1.76-.82.43-.19.86-.48,1.28-.87.35-.33.56-.66.77-1.07.05-.09.08-.19.11-.29l.28-1.19c.72-.89.78-1.11.83-1.31.15-.63.04-1.3-.28-1.83-.33-.54-.88-.93-1.51-1.08-.18-.04-.38-.04-.56,0-.03,0-.19.04-.54.09-.06,0-.12.02-.19.04-.23.07-.47.11-.72.16-.24.04-.49.09-.73.14l-.58.14c-.28.07-.53.14-.71.17l-.27.04c-.24-.08-.36-.18-.4-.25-.35-.84-.08-2.27.2-3.43.21-.88.33-1.76.44-2.65l.18-1.86c.05-.53.09-1.07.21-1.58.16-.65.39-1.28.69-1.92.17-.37.3-.63.4-.81l2.25.49.98.53c.09.05.36.13.46.15.09.02.25.04.35.04.62,0,1.08-.36,1.32-.58.5-.41.83-.94.97-1.57.25-1.03.12-2.03-.37-2.99-.27-.53-.28-.76-.29-.76.07-.19.24-.49.39-.75.26-.47.39-.71.45-.97.19-.79,0-1.56-.51-2.18-.06-.07-.13-.14-.2-.19-.76-.58-1.73-.92-2.5-1.19-.02,0-.11-.04-.19-.06,0-.28.07-.82.29-1.77.06-.24.25-.88.84-2.49l.18-.49c.41-1.1.84-2.26,1.33-3.39.41-.94.75-1.81,1.07-2.6l.37-.93c.37-.84.54-1.22.54-1.23.03-.07.06-.15.08-.23l.54-2.28c.28-1.19.82-2.21,1.54-2.93l.66-.66c.78-.77.94-.93,1.03-1.31.03-.1.11-.41.15-1.18.02-.46.04-1.1-.16-1.74Z"/>
          </g>
        </g>
      </g>
    </g>
  </g>
</svg>