<?xml version="1.0" encoding="utf-8"?>
<!-- Generator: Adobe Illustrator 27.2.0, SVG Export Plug-In . SVG Version: 6.00 Build 0)  -->
<svg version="1.1" id="Шар_1" xmlns="http://www.w3.org/2000/svg" xmlns:xlink="http://www.w3.org/1999/xlink" x="0px" y="0px"
	 viewBox="0 0 400 260" style="enable-background:new 0 0 400 260;" xml:space="preserve">
<style type="text/css">
	.st0{fill:#231F20;}
</style>
<path class="st0" d="M40.1,50.7L40.1,50.7C40.1,50.7,40.1,50.7,40.1,50.7C40.1,50.7,40.1,50.7,40.1,50.7z"/>
<path class="st0" d="M352.5,181.9c-0.2-2.5-1.7-6-4.4-9.8c-2.8-3.8-6.7-7.9-11.7-12.2c-5-4.3-11-8.7-17.6-13.3
	c-13.4-9.1-29.8-18.7-47.8-28c-9-4.7-18.5-9.2-28.1-13.7c-9.7-4.5-19.5-8.8-29.6-13c-9.9-4.2-20-8.2-30-11.9
	c-10-3.7-19.9-7.2-29.5-10.3c-9.7-3.1-19-5.9-28-8.3c-9-2.4-17.5-4.4-25.5-5.9c-8-1.5-15.3-2.6-21.8-3.2c-6.5-0.5-12.3-0.5-16.9,0.3
	c-4.6,0.7-8.1,2.1-10.1,3.8c-0.9,0.9-1.6,1.6-1.9,2.2c-0.3,0.5-0.5,0.8-0.5,0.8l0,0c-4.9,11.8,19,34,59.1,57.6l-24.1,19.2
	c-2.9-1.3-6.4-1.1-9,1c-3.8,3-4.4,8.6-1.2,12.3c3,3.5,8.4,4,12,1.2c2.6-2.1,3.6-5.4,3-8.5l26.5-21.1c8.1,4.6,16.8,9.2,26,13.8
	l6.9,3.6l4.6,2.4c4.9,2.3,13.4,7.8,33.5,15.8c18,7.2,22.1,8.8,26.2,10.1c0.6,0.2,5.3,1.5,6.4,1.8l1.8,0.5l6.8,2.4l9.4,2.9
	c9.2,3,18.1,5.8,26.6,8.1l4.3,31.1c-2.6,1.8-4.2,4.9-3.7,8.3c0.7,4.7,5,8,9.7,7.4c4.7-0.7,8-5,7.4-9.7c-0.5-3.3-2.8-5.9-5.8-7
	l-3.9-27.9c43.9,11.4,75.5,12.6,80.4,0.9c0,0,0.1-0.3,0.2-1C352.5,184.1,352.5,183.2,352.5,181.9L352.5,181.9z M68.4,64.4
	c0.3-0.2,0.9-0.3,1.6-0.2c0.7,0,1.6,0.2,2.5,0.4c1,0.2,2.1,0.5,3.3,0.9c1.2,0.4,2.5,0.9,3.8,1.4c0.4,0.2,0.9,0.4,1.3,0.6
	s0.9,0.4,1.3,0.6c0.4,0.2,0.9,0.4,1.3,0.6c0.4,0.2,0.9,0.4,1.3,0.7c1.8,0.9,3.4,1.9,4.7,2.7c1.3,0.9,2.4,1.7,3.2,2.5
	c0.8,0.7,1.3,1.4,1.5,1.9c0.2,0.5,0,0.9-0.5,1.1c-0.4,0.2-1,0.2-1.7,0.1c-0.7,0-1.6-0.2-2.6-0.4c-1-0.2-2-0.5-3.2-0.9
	c-1.1-0.4-2.4-0.9-3.6-1.4c-0.4-0.2-0.8-0.3-1.2-0.5c-0.4-0.2-0.8-0.4-1.3-0.6c-0.4-0.2-0.8-0.4-1.3-0.6c-0.4-0.2-0.8-0.4-1.3-0.6
	c-1.7-0.9-3.3-1.8-4.6-2.6s-2.4-1.7-3.3-2.4c-0.8-0.7-1.4-1.4-1.7-2C67.9,65.1,68,64.7,68.4,64.4L68.4,64.4z M74.2,82.8
	c-1.5-0.8-2.9-1.5-4.1-2.3c-1.2-0.8-2.3-1.5-3.1-2.2c-0.8-0.7-1.4-1.3-1.6-1.8c-0.2-0.5-0.1-0.8,0.3-1c0.4-0.2,1.1-0.2,2-0.1
	c1,0.1,2.2,0.4,3.5,0.8c1.4,0.4,3,1,4.6,1.7c1.7,0.7,3.3,1.5,4.9,2.3c1.5,0.8,3,1.6,4.2,2.4c1.2,0.8,2.3,1.5,3,2.2
	c0.8,0.7,1.3,1.3,1.4,1.7c0.2,0.5,0,0.8-0.5,0.9c-0.5,0.1-1.2,0.1-2.1,0c-1-0.1-2.1-0.4-3.5-0.9c-1.3-0.4-2.9-1-4.5-1.6
	C77.2,84.3,75.7,83.6,74.2,82.8L74.2,82.8z M102,103.1c-0.4,0.1-1.1,0.1-2-0.1c-0.9-0.2-2.1-0.5-3.4-0.9c-0.3-0.1-0.7-0.2-1-0.3
	s-0.7-0.2-1-0.4c-0.3-0.1-0.7-0.3-1-0.4c-0.4-0.1-0.7-0.3-1-0.4c-1.1-0.4-2.1-0.9-3.2-1.4c-1-0.5-2.1-1-3-1.5
	c-0.9-0.5-1.8-1.1-2.6-1.6c-0.8-0.5-1.5-1-2.1-1.5c-0.7-0.6-1.2-1.1-1.4-1.5c-0.2-0.4,0-0.7,0.4-0.8c0.4-0.1,1.1-0.1,2,0
	c0.9,0.1,2.1,0.4,3.4,0.9c0.3,0.1,0.7,0.2,1,0.3s0.7,0.2,1.1,0.4c0.4,0.1,0.7,0.3,1.1,0.4c0.4,0.1,0.7,0.3,1.1,0.4
	c1.1,0.5,2.2,1,3.3,1.5c1.1,0.5,2.1,1.1,3.1,1.6c1,0.5,1.9,1.1,2.7,1.6c0.8,0.5,1.5,1,2,1.5c0.7,0.6,1.1,1.1,1.2,1.5
	C102.6,102.8,102.4,103,102,103.1L102,103.1z M120,76.8c-0.6,0.2-1.5,0.3-2.8,0.1c-0.6-0.1-1.3-0.2-2.1-0.4
	c-0.7-0.2-1.5-0.4-2.3-0.6c-0.8-0.3-1.6-0.5-2.5-0.8c-0.9-0.3-1.7-0.6-2.6-1c-0.9-0.4-1.8-0.8-2.6-1.2c-0.9-0.4-1.8-0.8-2.6-1.3
	c-0.9-0.5-1.7-0.9-2.5-1.4c-0.8-0.5-1.6-1-2.3-1.5c-1.5-1-2.6-1.9-3.5-2.7c-0.8-0.8-1.4-1.5-1.5-2.1c-0.2-0.6,0-1,0.5-1.3
	c0.5-0.3,1.4-0.3,2.7-0.2c0.6,0.1,1.3,0.2,2.1,0.3c0.8,0.2,1.5,0.4,2.4,0.6c0.8,0.2,1.7,0.5,2.6,0.9c0.9,0.3,1.8,0.7,2.7,1.1
	c0.9,0.4,1.9,0.8,2.8,1.2c0.9,0.4,1.8,0.9,2.7,1.4c0.9,0.5,1.8,1,2.6,1.5c0.8,0.5,1.6,1,2.4,1.5c1.5,1,2.6,1.9,3.4,2.8
	c0.8,0.8,1.2,1.5,1.3,2C120.8,76.2,120.6,76.6,120,76.8L120,76.8z M166.6,87.4c-0.8,0.2-1.8,0.2-3.2,0c-1.4-0.2-3-0.5-4.8-1.1
	c-0.5-0.1-0.9-0.3-1.4-0.4c-0.5-0.2-0.9-0.3-1.4-0.5c-0.5-0.2-0.9-0.3-1.4-0.5c-0.5-0.2-0.9-0.4-1.4-0.6c-1.4-0.6-2.8-1.2-4.2-1.9
	c-1.3-0.7-2.6-1.4-3.8-2.1c-1.2-0.7-2.3-1.4-3.2-2.2c-0.9-0.7-1.7-1.4-2.4-2.1c-0.8-0.9-1.2-1.6-1.2-2.2c0-0.6,0.3-1,1-1.2
	c0.7-0.2,1.8-0.3,3.1-0.1c1.4,0.2,3,0.5,5,1.1c0.5,0.1,0.9,0.3,1.4,0.4c0.5,0.2,1,0.3,1.5,0.5c0.5,0.2,1,0.4,1.5,0.5
	c0.5,0.2,1,0.4,1.5,0.6c1.5,0.6,3,1.3,4.4,2c1.4,0.7,2.7,1.5,4,2.2c1.2,0.7,2.3,1.5,3.2,2.2c0.9,0.7,1.7,1.4,2.2,2.1
	c0.7,0.9,1,1.6,1,2.1C167.8,86.8,167.3,87.2,166.6,87.4L166.6,87.4z M226.9,107.5c-0.3,0.5-0.9,0.8-1.9,0.9c-1,0.1-2.3,0.1-3.8-0.2
	c-1.5-0.2-3.2-0.6-5.1-1.2c-1.8-0.6-3.8-1.3-5.9-2.1c-2-0.9-3.9-1.8-5.6-2.7s-3.2-1.9-4.4-2.8c-1.2-0.9-2.2-1.8-2.8-2.6
	c-0.6-0.8-0.9-1.5-0.7-2.1c0.2-0.6,0.7-0.9,1.7-1.1c0.9-0.2,2.2-0.1,3.7,0.1c1.5,0.2,3.3,0.6,5.2,1.2c1.9,0.6,4,1.3,6.2,2.2
	c2.2,0.9,4.2,1.9,5.9,2.8c1.8,1,3.3,2,4.5,2.9c1.2,0.9,2.1,1.8,2.7,2.6C227,106.4,227.2,107,226.9,107.5L226.9,107.5z M283.1,134.5
	c-0.4,0.4-1.2,0.6-2.4,0.7c-0.9,0-2,0-3.1-0.2c-1.2-0.2-2.4-0.4-3.8-0.8c-1.3-0.3-2.7-0.7-4.2-1.2c-1.4-0.5-2.9-1-4.3-1.6
	c-0.5-0.2-0.9-0.4-1.4-0.6s-0.9-0.4-1.4-0.6c-0.5-0.2-0.9-0.4-1.3-0.7c-0.4-0.2-0.9-0.4-1.3-0.7c-1.7-0.9-3.1-1.9-4.2-2.7
	c-1.1-0.8-1.9-1.6-2.3-2.3c-0.4-0.7-0.5-1.3-0.2-1.7s1-0.7,2.2-0.8c0.9-0.1,1.9,0,3.1,0.1c1.2,0.1,2.5,0.4,3.9,0.7
	c1.4,0.3,2.8,0.8,4.3,1.3c1.5,0.5,3,1.1,4.5,1.7c0.5,0.2,1,0.4,1.4,0.6s1,0.4,1.4,0.7c0.5,0.2,0.9,0.5,1.4,0.7
	c0.4,0.2,0.9,0.5,1.3,0.7c1.8,1,3.2,1.9,4.3,2.8c1.1,0.9,1.8,1.7,2.1,2.3C283.6,133.5,283.5,134.1,283.1,134.5L283.1,134.5z
	 M294.3,148.3c0.4-0.3,1.2-0.5,2.3-0.5c1.1,0,2.6,0.1,4.3,0.5c0.9,0.2,1.8,0.4,2.7,0.6c0.9,0.2,1.9,0.5,2.9,0.8c1,0.3,1.9,0.6,2.9,1
	c1,0.3,1.9,0.7,2.8,1.1c0.9,0.4,1.8,0.8,2.7,1.2c0.9,0.4,1.7,0.8,2.4,1.3c0.8,0.4,1.5,0.8,2.1,1.3c0.7,0.4,1.2,0.8,1.7,1.2
	c1,0.8,1.6,1.5,1.8,2.1c0.2,0.6,0,1-0.5,1.3c-0.5,0.3-1.4,0.4-2.5,0.4c-1.2,0-2.6-0.2-4.4-0.6c-0.9-0.2-1.8-0.4-2.7-0.6
	c-0.9-0.2-1.8-0.5-2.7-0.8c-0.9-0.3-1.8-0.6-2.8-0.9c-0.9-0.3-1.8-0.7-2.7-1.1s-1.7-0.7-2.6-1.1c-0.8-0.4-1.6-0.8-2.4-1.2
	c-0.7-0.4-1.4-0.8-2.1-1.2s-1.2-0.8-1.7-1.2c-1-0.8-1.7-1.5-1.9-2.1C293.8,149.1,293.9,148.6,294.3,148.3L294.3,148.3z M311.3,189.8
	c-0.4,0.2-1,0.2-2,0.1c-0.7-0.1-1.6-0.2-2.5-0.4c-0.9-0.2-1.9-0.5-3-0.8s-2.1-0.7-3.2-1.1c-1.1-0.4-2.2-0.8-3.3-1.3
	c-0.4-0.1-0.7-0.3-1-0.4c-0.3-0.1-0.7-0.3-1-0.5c-0.3-0.2-0.7-0.3-1-0.5c-0.3-0.2-0.6-0.3-0.9-0.5c-1.3-0.7-2.3-1.3-3-1.8
	c-0.8-0.5-1.3-1-1.5-1.4s-0.2-0.7,0.1-0.9c0.3-0.2,1-0.2,1.9-0.2c0.7,0.1,1.5,0.2,2.5,0.4c0.9,0.2,1.9,0.5,3,0.8
	c1.1,0.3,2.2,0.7,3.3,1.1c1.1,0.4,2.3,0.8,3.4,1.3c0.4,0.2,0.7,0.3,1.1,0.5c0.3,0.2,0.7,0.3,1.1,0.5c0.3,0.2,0.7,0.3,1,0.5
	c0.3,0.2,0.7,0.3,1,0.5c1.3,0.7,2.3,1.3,3.1,1.9c0.8,0.5,1.2,1,1.4,1.4C311.8,189.4,311.7,189.6,311.3,189.8L311.3,189.8z
	 M333.3,188.7c-0.5,0.2-1.3,0.2-2.4,0.1c-1-0.1-2.3-0.3-3.7-0.7c-1.4-0.3-2.9-0.8-4.5-1.3c-1.6-0.5-3.2-1.1-4.9-1.8
	c-1.6-0.7-3.1-1.4-4.3-2c-1.2-0.7-2.3-1.3-3.1-1.9c-0.8-0.6-1.3-1.1-1.5-1.5c-0.2-0.4-0.1-0.8,0.3-1c0.4-0.2,1.2-0.3,2.2-0.2
	c1,0.1,2.3,0.3,3.7,0.6c1.4,0.3,3,0.8,4.6,1.3c1.6,0.5,3.4,1.2,5.1,1.9s3.2,1.4,4.5,2.1c1.3,0.7,2.3,1.3,3.1,1.9
	c0.8,0.6,1.3,1.1,1.4,1.5C334,188.2,333.8,188.5,333.3,188.7z M338.8,178.9c-0.6,0.2-1.4,0.3-2.5,0.2c-1.1-0.1-2.5-0.3-4-0.6
	c-1.5-0.3-3.3-0.8-5.1-1.4c-0.4-0.1-0.9-0.3-1.3-0.5c-0.5-0.2-0.9-0.3-1.3-0.5c-0.4-0.2-0.9-0.3-1.3-0.5c-0.4-0.2-0.8-0.3-1.2-0.5
	c-1.3-0.5-2.4-1.1-3.5-1.6c-1.1-0.5-2.1-1.1-2.9-1.6c-0.9-0.5-1.6-1-2.1-1.5c-0.5-0.5-0.9-0.9-1.1-1.3c-0.2-0.5-0.1-0.9,0.4-1.1
	c0.5-0.2,1.3-0.3,2.4-0.3c1.1,0,2.4,0.2,4,0.6c1.6,0.3,3.3,0.8,5.2,1.4c0.5,0.1,0.9,0.3,1.4,0.5c0.5,0.2,0.9,0.3,1.4,0.5
	s0.9,0.3,1.3,0.5c0.4,0.2,0.9,0.3,1.3,0.5c1.3,0.5,2.6,1.1,3.7,1.7c1.1,0.6,2.1,1.1,3,1.7c0.9,0.5,1.6,1.1,2.1,1.6
	c0.5,0.5,0.9,0.9,1,1.3C339.5,178.3,339.3,178.7,338.8,178.9L338.8,178.9z"/>
<polygon class="st0" points="291.2,101.7 291.2,101.7 291.2,101.7 "/>
<path class="st0" d="M291.2,101.7L291.2,101.7c0,0-2.2-1.2-5.8-3.2c-1.8-1-4.1-2.3-6.6-3.8c-2.5-1.5-5.6-2.9-8.7-4.6
	c-3.2-1.6-6.7-3.4-10.4-5.3c-3.7-1.7-7.7-3.6-11.8-5.4c-2-0.9-4.1-2-6.2-2.9c-2.2-0.9-4.3-1.8-6.5-2.7c-4.4-1.8-8.9-3.8-13.3-5.5
	c-4.5-1.7-9-3.4-13.4-5.1c-2.2-0.8-4.4-1.7-6.6-2.5c-2.2-0.7-4.4-1.5-6.5-2.2c-4.3-1.5-8.4-2.9-12.3-4.2c-4-1.2-7.7-2.3-11.2-3.3
	c-3.5-1-6.6-2.1-9.5-2.7c-2.8-0.7-5.3-1.4-7.4-1.9c-4.1-1.1-6.4-1.7-6.4-1.7s2.4,0.3,6.6,1c2.1,0.3,4.6,0.8,7.5,1.2
	c2.9,0.4,6.2,1.2,9.7,2c3.5,0.8,7.4,1.7,11.5,2.7c4,1.2,8.2,2.4,12.6,3.7c2.2,0.7,4.4,1.3,6.6,2c2.2,0.7,4.4,1.6,6.7,2.4
	c4.5,1.6,9,3.3,13.6,5c4.6,1.9,8.9,3.8,13.3,5.7c2.2,0.9,4.3,1.9,6.5,2.8c2.1,1,4.2,2.1,6.2,3.1c4.1,2.1,8,4.1,11.7,6
	c3.6,2,7,4.1,10.1,5.9c3.1,1.9,6,3.5,8.4,5.3c2.4,1.7,4.6,3.1,6.3,4.3C289.3,100.3,291.2,101.7,291.2,101.7
	c-3.1-24.2-24.6-49.2-56.4-62.5c-33-13.8-67.3-10.7-86.3,5.6C89.6,34.2,54.7,46,49.1,59.3c0-0.1,0.2-0.4,0.4-0.9
	c0.2-0.6,0.9-1.4,1.7-2.4c1.8-1.8,5.3-3.7,10.1-4.6c9.5-2.1,23.4-1.7,39.6,0.7c8.1,1.2,16.8,2.9,26,5c9.1,2.1,18.7,4.6,28.5,7.6
	c9.8,3,19.9,6.2,29.9,9.9c10.1,3.7,20.2,7.6,30.4,11.8c10,4.2,20,8.7,29.7,13.3c9.7,4.6,19.1,9.4,28.1,14.3
	c9,4.9,17.5,9.9,25.5,14.9c8,5,15.3,10,21.8,14.9c13.1,9.8,23.1,19.5,28.3,27.6c2.6,4.1,3.8,7.8,3.8,10.4c-0.1,1.3-0.2,2.3-0.5,2.9
	c-0.2,0.6-0.3,1-0.3,1C357.7,172.1,343.4,136.7,291.2,101.7L291.2,101.7z"/>
</svg>
