<?xml version="1.0" encoding="UTF-8"?>
<svg id="Layer_1" data-name="Layer 1" xmlns="http://www.w3.org/2000/svg" viewBox="0 0 379.84 90.71">
  <defs>
    <style>
      .cls-1 {
        fill: #fff;
      }

      .cls-2 {
        fill: #fcbf00;
      }
    </style>
  </defs>
  <path class="cls-1" d="M376.25,41.16c-.76-1.15-1.94-1.96-3.29-2.24-5.79-1.2-11.68-2.36-17.48-3.44-.32-.06-.64-.09-.95-.09-1.56,0-3.06.71-4.06,1.95-.22.28-.44.55-.66.83-.1-.84-.41-1.65-.91-2.36-.79-1.13-2-1.9-3.36-2.13-5.95-1.04-12-2.03-17.97-2.95,0,0,0,0,0,0,0,0,0,0,0,0l-5.28-.8s0,0,0,0c0,0,0,0,0,0-6.92-1.02-13.95-1.97-20.89-2.83-.21-.03-.43-.04-.64-.04-1.42,0-2.77.58-3.75,1.6-.12-.21-.26-.42-.42-.61-.86-1.08-2.11-1.77-3.48-1.93-6.18-.71-12.46-1.36-18.65-1.93-.16-.02-.33-.02-.49-.02-1.4,0-2.68.57-3.63,1.5-.86-1.2-2.2-2.04-3.78-2.18-6.19-.52-12.48-.98-18.69-1.37-.11,0-.22-.01-.33-.01-1.16,0-2.25.39-3.12,1.04-.89-.85-2.06-1.36-3.31-1.43-6.21-.34-12.5-.63-18.71-.84-.06,0-.12,0-.18,0-2.79,0-5.1,2.21-5.19,5.02l-.12,3.57c-.39-.53-.8-1.04-1.24-1.52-2.87-3.23-9.5-8.66-21.61-8.7h-.09s0,0,0,0c-8.11,0-13.76,2.44-17.47,5.01-.11-.35-.24-.7-.43-1.03-.92-1.64-2.66-2.64-4.53-2.64-.04,0-.08,0-.12,0-6.98.16-14.06.4-21.03.72-1.65.08-3.15.93-4.06,2.27-.16-.19-.33-.36-.51-.53-.96-.86-2.19-1.32-3.47-1.32-.1,0-.19,0-.29,0-6.21.35-12.5.76-18.7,1.24-1.05.08-2.03.48-2.84,1.12.08-.45.13-.91.09-1.37l-.66-7.67-.67-7.79c-.23-2.71-2.5-4.76-5.18-4.76-.15,0-.3,0-.45.02-6.34.54-12.77,1.16-19.1,1.84-2.8.3-4.82,2.76-4.62,5.54-.72-.37-1.52-.6-2.37-.6-.2,0-.4.01-.6.03-9.63,1.11-19.37,2.4-28.96,3.82-2.16.32-3.89,1.96-4.33,4.1-1.28,6.23-2.52,12.51-3.72,18.79-3.43-5.6-6.91-11.19-10.4-16.71-.96-1.52-2.63-2.42-4.39-2.42-.3,0-.6.03-.9.08-9.09,1.59-18.29,3.35-27.33,5.23-1.35.28-2.53,1.08-3.29,2.24-.76,1.15-1.03,2.56-.75,3.91l11.54,55.7c.28,1.35,1.08,2.53,2.24,3.29.85.56,1.85.85,2.85.85.35,0,.7-.04,1.05-.11,5.92-1.23,11.94-2.4,17.89-3.5,2.82-.52,4.69-3.23,4.17-6.06l-.33-1.76c.56,1.06,1.12,2.11,1.68,3.17.91,1.72,2.69,2.77,4.6,2.77.29,0,.58-.02.88-.07,5.36-.92,10.8-1.79,16.17-2.6,2.22-.34,3.98-2.06,4.35-4.28.2-1.16.39-2.33.59-3.49l.24,1.73c.36,2.6,2.59,4.49,5.14,4.49.24,0,.47-.02.72-.05,5.98-.82,12.05-1.59,18.03-2.28,1.47-.17,2.71-.94,3.54-2.03.91.77,2.08,1.24,3.34,1.24.18,0,.37,0,.56-.03,5.84-.62,11.76-1.19,17.61-1.69,1.47-.13,2.74-.86,3.59-1.92.93.83,2.14,1.33,3.46,1.33.13,0,.27,0,.4-.02,5.85-.45,11.79-.84,17.64-1.17,1.38-.08,2.67-.7,3.59-1.72.22-.24.41-.5.58-.78.98,1.3,2.52,2.08,4.16,2.08.08,0,.16,0,.24,0,6.74-.31,13.57-.53,20.31-.68,1.91-.04,3.64-1.12,4.51-2.81.04-.07.06-.14.09-.22,3.71,2.21,8.79,3.94,15.59,3.95h.12c10.9,0,17.37-4.43,20.88-8.15.3-.31.56-.66.85-.99l-.11,3.15c-.1,2.87,2.15,5.28,5.02,5.38,5.86.2,11.8.47,17.66.79.1,0,.2,0,.29,0,1.09,0,2.12-.34,2.96-.93.84.74,1.92,1.22,3.12,1.3,5.86.37,11.79.81,17.64,1.3.15.01.29.02.44.02,1.22,0,2.41-.43,3.36-1.23.03-.02.05-.05.08-.08.02.03.04.06.06.09.88,1.06,2.15,1.73,3.52,1.86,5.85.54,11.77,1.16,17.6,1.82.2.02.4.03.6.03,1.55,0,2.97-.69,3.94-1.81.78,1.52,2.27,2.58,3.99,2.79,6.71.83,13.5,1.76,20.18,2.76l3.86.59c5.5.85,11.08,1.76,16.57,2.72.3.05.6.08.89.08,1.63,0,3.19-.77,4.18-2.11.06-.09.13-.17.19-.26.14.64.41,1.25.79,1.81.78,1.14,1.98,1.92,3.34,2.17,5.61,1.04,11.3,2.16,16.89,3.32.36.07.71.11,1.06.11,2.41,0,4.58-1.69,5.09-4.15l4.97-24.02,3.1-14.98c.28-1.35.01-2.76-.75-3.91Z"/>
  <g>
    <path class="cls-2" d="M101.55,70.17c-1.41-13.2-2.82-26.4-4.23-39.6,6.18-.66,12.36-1.25,18.55-1.78,1.13,13.23,2.26,26.45,3.4,39.68-5.91.51-11.82,1.07-17.72,1.7Z"/>
    <path class="cls-2" d="M123.73,28.15c6.19-.47,12.39-.88,18.59-1.23.3,5.39.6,10.79.9,16.18.05,0,.11,0,.16,0,2.36-5.54,4.76-11.07,7.22-16.59,6.97-.32,13.93-.56,20.9-.72-4.12,6.49-8.15,13.01-12.08,19.56,4.83,6.71,9.55,13.45,14.16,20.23-6.81.15-13.63.37-20.44.68-3.06-5.13-6.17-10.24-9.33-15.33-.05,0-.11,0-.16,0,.29,5.25.58,10.5.88,15.75-5.92.33-11.84.72-17.75,1.17-1.01-13.24-2.03-26.47-3.04-39.71Z"/>
    <path class="cls-2" d="M211.1,59.97c-3.08,3.26-8.45,6.55-17.21,6.52-8.75-.02-14.11-3.33-17.17-6.61-3.13-3.36-5.48-8.5-5.62-14.21-.12-4.86,1.52-10.36,5.12-14.35,3.03-3.37,8.58-6.89,17.78-6.87,9.21.03,14.73,3.57,17.75,6.96,3.58,4.01,5.19,9.52,5.05,14.38-.17,5.71-2.55,10.84-5.7,14.18ZM190.68,41.48c-.82.79-1.48,2.05-1.48,3.95,0,1.97.68,3.23,1.49,4.02.52.55,1.55,1.26,3.24,1.26,1.7,0,2.73-.7,3.25-1.25.82-.78,1.49-2.04,1.51-4.01.02-1.89-.64-3.16-1.46-3.96-.52-.55-1.56-1.27-3.28-1.28-1.72,0-2.76.71-3.28,1.26Z"/>
    <path class="cls-2" d="M222.18,26.07c6.2.21,12.4.49,18.6.83-.23,4.23-.47,8.46-.7,12.69,2.21.12,4.41.25,6.62.39.27-4.23.53-8.45.8-12.68,6.2.39,12.39.85,18.58,1.37-1.11,13.23-2.22,26.46-3.34,39.69-5.91-.5-11.83-.93-17.75-1.3.29-4.54.57-9.08.86-13.62-2.17-.14-4.35-.27-6.52-.39-.25,4.54-.5,9.08-.75,13.62-5.92-.33-11.84-.59-17.77-.8.46-13.27.91-26.54,1.37-39.8Z"/>
    <path class="cls-2" d="M273.93,29.36c6.19.58,12.37,1.22,18.54,1.92-.61,5.37-1.23,10.73-1.84,16.1.05,0,.11.01.16.02,3.26-5.06,6.56-10.11,9.92-15.14,6.93.86,13.86,1.8,20.77,2.82-5.16,5.7-10.24,11.45-15.23,17.24,3.64,7.42,7.16,14.87,10.58,22.33-6.76-1.01-13.53-1.93-20.3-2.78-2.15-5.57-4.36-11.13-6.62-16.68-.05,0-.11-.01-.16-.02-.6,5.23-1.19,10.45-1.79,15.68-5.9-.67-11.8-1.28-17.71-1.83,1.23-13.22,2.46-26.44,3.69-39.66Z"/>
    <path class="cls-2" d="M344.63,38.81c-.76,4.37-1.53,8.74-2.29,13.11-.32,1.85-1.21,4.55-1.95,6.5.15.06.31.11.46.17.46-.78,1.61-2.66,2.35-3.57,3.72-4.83,7.5-9.63,11.32-14.41,5.8,1.08,11.6,2.22,17.38,3.42-2.69,13-5.38,26-8.08,39-5.65-1.17-11.32-2.28-16.99-3.34.83-4.44,1.65-8.89,2.48-13.33.34-1.84,1.25-4.54,2.02-6.48-.15-.06-.31-.11-.46-.17-.49.86-1.62,2.56-2.37,3.55-3.75,4.89-7.46,9.8-11.11,14.73-5.55-.97-11.11-1.88-16.67-2.73,2.02-13.12,4.04-26.24,6.05-39.36,5.96.92,11.92,1.89,17.86,2.93Z"/>
    <path class="cls-2" d="M115.4,23.16c-6.23.53-12.45,1.13-18.67,1.79-.55-5.15-1.1-10.29-1.65-15.44,6.33-.68,12.66-1.28,18.99-1.83.44,5.16.88,10.31,1.32,15.47Z"/>
    <path class="cls-2" d="M58.73,18.3c-2.17,10.58-4.22,21.17-6.14,31.76-.02.13-.19.16-.26.05-5.6-9.38-11.34-18.71-17.22-27.98-9.08,1.59-18.14,3.32-27.17,5.2,3.85,18.57,7.69,37.13,11.54,55.7,5.99-1.24,11.99-2.42,18-3.52-2.02-10.95-4.04-21.9-6.07-32.85-.03-.16.18-.24.26-.1,5.76,10.28,11.39,20.61,16.87,30.98,5.42-.93,10.84-1.8,16.27-2.62,1.95-11.57,4.04-23.14,6.28-34.71.03-.16.26-.15.28.01,1.52,11.03,3.04,22.06,4.55,33.09,6.04-.83,12.09-1.6,18.14-2.3-2.18-18.84-4.36-37.67-6.54-56.51-9.61,1.11-19.22,2.38-28.8,3.8Z"/>
  </g>
</svg>